<svg xmlns="http://www.w3.org/2000/svg" version="1.1"
    xmlns:xlink="http://www.w3.org/1999/xlink"
    xmlns:svgjs="http://svgjs.dev/svgjs" width="1290" height="720" preserveAspectRatio="none" viewBox="0 0 1290 720">
    <g mask="url(&quot;#SvgjsMask1059&quot;)" fill="none">
        <g mask="url(&quot;#SvgjsMask1060&quot;)">
            <path d="M645 135L645 225L555 315L555 495L345 705" stroke-width="5" stroke="rgba(43, 127, 255, 0.7)"></path>
            <path d="M637.5 135 a7.5 7.5 0 1 0 15 0 a7.5 7.5 0 1 0 -15 0zM337.5 705 a7.5 7.5 0 1 0 15 0 a7.5 7.5 0 1 0 -15 0z" fill="rgba(43, 127, 255, 0.7)"></path>
            <path d="M315 375L375 315L375 285L105 15L15 15" stroke-width="5" stroke="rgba(43, 127, 255, 0.7)"></path>
            <path d="M307.5 375 a7.5 7.5 0 1 0 15 0 a7.5 7.5 0 1 0 -15 0zM7.5 15 a7.5 7.5 0 1 0 15 0 a7.5 7.5 0 1 0 -15 0z" fill="rgba(43, 127, 255, 0.7)"></path>
            <path d="M915 675L945 705L1275 705" stroke-width="5" stroke="rgba(43, 127, 255, 0.7)"></path>
            <path d="M907.5 675 a7.5 7.5 0 1 0 15 0 a7.5 7.5 0 1 0 -15 0zM1267.5 705 a7.5 7.5 0 1 0 15 0 a7.5 7.5 0 1 0 -15 0z" fill="rgba(43, 127, 255, 0.7)"></path>
            <path d="M75 75L135 75L345 285L345 315L135 525L135 585" stroke-width="5" stroke="rgba(43, 127, 255, 0.7)"></path>
            <path d="M67.5 75 a7.5 7.5 0 1 0 15 0 a7.5 7.5 0 1 0 -15 0zM127.5 585 a7.5 7.5 0 1 0 15 0 a7.5 7.5 0 1 0 -15 0z" fill="rgba(43, 127, 255, 0.7)"></path>
            <path d="M1245 195L1035 195L855 15L675 15" stroke-width="5" stroke="rgba(43, 127, 255, 0.7)"></path>
            <path d="M1237.5 195 a7.5 7.5 0 1 0 15 0 a7.5 7.5 0 1 0 -15 0zM667.5 15 a7.5 7.5 0 1 0 15 0 a7.5 7.5 0 1 0 -15 0z" fill="rgba(43, 127, 255, 0.7)"></path>
            <path d="M375 585L255 705L15 705" stroke-width="5" stroke="rgba(43, 127, 255, 0.7)"></path>
            <path d="M367.5 585 a7.5 7.5 0 1 0 15 0 a7.5 7.5 0 1 0 -15 0zM7.5 705 a7.5 7.5 0 1 0 15 0 a7.5 7.5 0 1 0 -15 0z" fill="rgba(43, 127, 255, 0.7)"></path>
            <path d="M1125 345L765 705L555 705" stroke-width="5" stroke="rgba(43, 127, 255, 0.7)"></path>
            <path d="M1117.5 345 a7.5 7.5 0 1 0 15 0 a7.5 7.5 0 1 0 -15 0zM547.5 705 a7.5 7.5 0 1 0 15 0 a7.5 7.5 0 1 0 -15 0z" fill="rgba(43, 127, 255, 0.7)"></path>
            <path d="M255 615L165 525" stroke-width="5" stroke="rgba(43, 127, 255, 0.7)"></path>
            <path d="M247.5 615 a7.5 7.5 0 1 0 15 0 a7.5 7.5 0 1 0 -15 0zM157.5 525 a7.5 7.5 0 1 0 15 0 a7.5 7.5 0 1 0 -15 0z" fill="rgba(43, 127, 255, 0.7)"></path>
            <path d="M915 105L855 45L585 45L555 15L345 15" stroke-width="5" stroke="rgba(43, 127, 255, 0.7)"></path>
            <path d="M907.5 105 a7.5 7.5 0 1 0 15 0 a7.5 7.5 0 1 0 -15 0zM337.5 15 a7.5 7.5 0 1 0 15 0 a7.5 7.5 0 1 0 -15 0z" fill="rgba(43, 127, 255, 0.7)"></path>
            <path d="M195 345L45 495L15 495" stroke-width="5" stroke="rgba(43, 127, 255, 0.7)"></path>
            <path d="M187.5 345 a7.5 7.5 0 1 0 15 0 a7.5 7.5 0 1 0 -15 0zM7.5 495 a7.5 7.5 0 1 0 15 0 a7.5 7.5 0 1 0 -15 0z" fill="rgba(43, 127, 255, 0.7)"></path>
            <path d="M1035 255L945 345L945 495L765 675L645 675L615 645" stroke-width="5" stroke="rgba(43, 127, 255, 0.7)"></path>
            <path d="M1027.5 255 a7.5 7.5 0 1 0 15 0 a7.5 7.5 0 1 0 -15 0zM607.5 645 a7.5 7.5 0 1 0 15 0 a7.5 7.5 0 1 0 -15 0z" fill="rgba(43, 127, 255, 0.7)"></path>
            <path d="M735 645L675 585L675 555L585 465" stroke-width="5" stroke="rgba(43, 127, 255, 0.7)"></path>
            <path d="M727.5 645 a7.5 7.5 0 1 0 15 0 a7.5 7.5 0 1 0 -15 0zM577.5 465 a7.5 7.5 0 1 0 15 0 a7.5 7.5 0 1 0 -15 0z" fill="rgba(43, 127, 255, 0.7)"></path>
            <path d="M495 405L495 195L615 75L855 75" stroke-width="5" stroke="rgba(43, 127, 255, 0.7)"></path>
            <path d="M487.5 405 a7.5 7.5 0 1 0 15 0 a7.5 7.5 0 1 0 -15 0zM847.5 75 a7.5 7.5 0 1 0 15 0 a7.5 7.5 0 1 0 -15 0z" fill="rgba(43, 127, 255, 0.7)"></path>
            <path d="M525 645L495 645L435 705L375 705" stroke-width="5" stroke="rgba(43, 127, 255, 0.7)"></path>
            <path d="M517.5 645 a7.5 7.5 0 1 0 15 0 a7.5 7.5 0 1 0 -15 0zM367.5 705 a7.5 7.5 0 1 0 15 0 a7.5 7.5 0 1 0 -15 0z" fill="rgba(43, 127, 255, 0.7)"></path>
            <path d="M1065 675L1275 675" stroke-width="5" stroke="rgba(43, 127, 255, 0.7)"></path>
            <path d="M1057.5 675 a7.5 7.5 0 1 0 15 0 a7.5 7.5 0 1 0 -15 0zM1267.5 675 a7.5 7.5 0 1 0 15 0 a7.5 7.5 0 1 0 -15 0z" fill="rgba(43, 127, 255, 0.7)"></path>
            <path d="M795 375L675 255L645 255L585 315L585 405L795 615" stroke-width="5" stroke="rgba(43, 127, 255, 0.7)"></path>
            <path d="M787.5 375 a7.5 7.5 0 1 0 15 0 a7.5 7.5 0 1 0 -15 0zM787.5 615 a7.5 7.5 0 1 0 15 0 a7.5 7.5 0 1 0 -15 0z" fill="rgba(43, 127, 255, 0.7)"></path>
            <path d="M405 525L195 525" stroke-width="5" stroke="rgba(43, 127, 255, 0.7)"></path>
            <path d="M397.5 525 a7.5 7.5 0 1 0 15 0 a7.5 7.5 0 1 0 -15 0zM187.5 525 a7.5 7.5 0 1 0 15 0 a7.5 7.5 0 1 0 -15 0z" fill="rgba(43, 127, 255, 0.7)"></path>
            <path d="M555 615L615 675" stroke-width="5" stroke="rgba(43, 127, 255, 0.7)"></path>
            <path d="M547.5 615 a7.5 7.5 0 1 0 15 0 a7.5 7.5 0 1 0 -15 0zM607.5 675 a7.5 7.5 0 1 0 15 0 a7.5 7.5 0 1 0 -15 0z" fill="rgba(43, 127, 255, 0.7)"></path>
            <path d="M675 375L645 345L615 345" stroke-width="5" stroke="rgba(43, 127, 255, 0.7)"></path>
            <path d="M667.5 375 a7.5 7.5 0 1 0 15 0 a7.5 7.5 0 1 0 -15 0zM607.5 345 a7.5 7.5 0 1 0 15 0 a7.5 7.5 0 1 0 -15 0z" fill="rgba(43, 127, 255, 0.7)"></path>
            <path d="M765 315L915 465L915 495L885 525L735 525L615 405L615 375" stroke-width="5" stroke="rgba(43, 127, 255, 0.7)"></path>
            <path d="M757.5 315 a7.5 7.5 0 1 0 15 0 a7.5 7.5 0 1 0 -15 0zM607.5 375 a7.5 7.5 0 1 0 15 0 a7.5 7.5 0 1 0 -15 0z" fill="rgba(43, 127, 255, 0.7)"></path>
            <path d="M15 255L15 45" stroke-width="5" stroke="rgba(43, 127, 255, 0.7)"></path>
            <path d="M7.5 255 a7.5 7.5 0 1 0 15 0 a7.5 7.5 0 1 0 -15 0zM7.5 45 a7.5 7.5 0 1 0 15 0 a7.5 7.5 0 1 0 -15 0z" fill="rgba(43, 127, 255, 0.7)"></path>
            <path d="M735 465L705 465L645 405L645 375" stroke-width="5" stroke="rgba(43, 127, 255, 0.7)"></path>
            <path d="M727.5 465 a7.5 7.5 0 1 0 15 0 a7.5 7.5 0 1 0 -15 0zM637.5 375 a7.5 7.5 0 1 0 15 0 a7.5 7.5 0 1 0 -15 0z" fill="rgba(43, 127, 255, 0.7)"></path>
            <path d="M825 315L825 105" stroke-width="5" stroke="rgba(43, 127, 255, 0.7)"></path>
            <path d="M817.5 315 a7.5 7.5 0 1 0 15 0 a7.5 7.5 0 1 0 -15 0zM817.5 105 a7.5 7.5 0 1 0 15 0 a7.5 7.5 0 1 0 -15 0z" fill="rgba(43, 127, 255, 0.7)"></path>
            <path d="M15 315L165 165L195 165L315 285L315 315L75 555" stroke-width="5" stroke="rgba(43, 127, 255, 0.7)"></path>
            <path d="M7.5 315 a7.5 7.5 0 1 0 15 0 a7.5 7.5 0 1 0 -15 0zM67.5 555 a7.5 7.5 0 1 0 15 0 a7.5 7.5 0 1 0 -15 0z" fill="rgba(43, 127, 255, 0.7)"></path>
            <path d="M735 225L675 225" stroke-width="5" stroke="rgba(43, 127, 255, 0.7)"></path>
            <path d="M727.5 225 a7.5 7.5 0 1 0 15 0 a7.5 7.5 0 1 0 -15 0zM667.5 225 a7.5 7.5 0 1 0 15 0 a7.5 7.5 0 1 0 -15 0z" fill="rgba(43, 127, 255, 0.7)"></path>
            <path d="M1185 285L1185 225" stroke-width="5" stroke="rgba(43, 127, 255, 0.7)"></path>
            <path d="M1177.5 285 a7.5 7.5 0 1 0 15 0 a7.5 7.5 0 1 0 -15 0zM1177.5 225 a7.5 7.5 0 1 0 15 0 a7.5 7.5 0 1 0 -15 0z" fill="rgba(43, 127, 255, 0.7)"></path>
            <path d="M855 225L1155 225" stroke-width="5" stroke="rgba(43, 127, 255, 0.7)"></path>
            <path d="M847.5 225 a7.5 7.5 0 1 0 15 0 a7.5 7.5 0 1 0 -15 0zM1147.5 225 a7.5 7.5 0 1 0 15 0 a7.5 7.5 0 1 0 -15 0z" fill="rgba(43, 127, 255, 0.7)"></path>
            <path d="M75 315L45 315L15 345L15 465" stroke-width="5" stroke="rgba(43, 127, 255, 0.7)"></path>
            <path d="M67.5 315 a7.5 7.5 0 1 0 15 0 a7.5 7.5 0 1 0 -15 0zM7.5 465 a7.5 7.5 0 1 0 15 0 a7.5 7.5 0 1 0 -15 0z" fill="rgba(43, 127, 255, 0.7)"></path>
            <path d="M345 465L315 495L195 495" stroke-width="5" stroke="rgba(43, 127, 255, 0.7)"></path>
            <path d="M337.5 465 a7.5 7.5 0 1 0 15 0 a7.5 7.5 0 1 0 -15 0zM187.5 495 a7.5 7.5 0 1 0 15 0 a7.5 7.5 0 1 0 -15 0z" fill="rgba(43, 127, 255, 0.7)"></path>
            <path d="M45 585L105 585L135 615L225 615L255 645L255 675" stroke-width="5" stroke="rgba(43, 127, 255, 0.7)"></path>
            <path d="M37.5 585 a7.5 7.5 0 1 0 15 0 a7.5 7.5 0 1 0 -15 0zM247.5 675 a7.5 7.5 0 1 0 15 0 a7.5 7.5 0 1 0 -15 0z" fill="rgba(43, 127, 255, 0.7)"></path>
            <path d="M405 285L465 285" stroke-width="5" stroke="rgba(43, 127, 255, 0.7)"></path>
            <path d="M397.5 285 a7.5 7.5 0 1 0 15 0 a7.5 7.5 0 1 0 -15 0zM457.5 285 a7.5 7.5 0 1 0 15 0 a7.5 7.5 0 1 0 -15 0z" fill="rgba(43, 127, 255, 0.7)"></path>
            <path d="M1155 375L1125 375L795 705" stroke-width="5" stroke="rgba(43, 127, 255, 0.7)"></path>
            <path d="M1147.5 375 a7.5 7.5 0 1 0 15 0 a7.5 7.5 0 1 0 -15 0zM787.5 705 a7.5 7.5 0 1 0 15 0 a7.5 7.5 0 1 0 -15 0z" fill="rgba(43, 127, 255, 0.7)"></path>
            <path d="M915 15L915 45L1035 165L1275 165" stroke-width="5" stroke="rgba(43, 127, 255, 0.7)"></path>
            <path d="M907.5 15 a7.5 7.5 0 1 0 15 0 a7.5 7.5 0 1 0 -15 0zM1267.5 165 a7.5 7.5 0 1 0 15 0 a7.5 7.5 0 1 0 -15 0z" fill="rgba(43, 127, 255, 0.7)"></path>
            <path d="M315 15L225 15L195 45L195 75L375 255L465 255" stroke-width="5" stroke="rgba(43, 127, 255, 0.7)"></path>
            <path d="M307.5 15 a7.5 7.5 0 1 0 15 0 a7.5 7.5 0 1 0 -15 0zM457.5 255 a7.5 7.5 0 1 0 15 0 a7.5 7.5 0 1 0 -15 0z" fill="rgba(43, 127, 255, 0.7)"></path>
            <path d="M465 135L465 105L405 45L225 45" stroke-width="5" stroke="rgba(43, 127, 255, 0.7)"></path>
            <path d="M457.5 135 a7.5 7.5 0 1 0 15 0 a7.5 7.5 0 1 0 -15 0zM217.5 45 a7.5 7.5 0 1 0 15 0 a7.5 7.5 0 1 0 -15 0z" fill="rgba(43, 127, 255, 0.7)"></path>
            <path d="M525 255L525 195L615 105L765 105L795 135L795 315" stroke-width="5" stroke="rgba(43, 127, 255, 0.7)"></path>
            <path d="M517.5 255 a7.5 7.5 0 1 0 15 0 a7.5 7.5 0 1 0 -15 0zM787.5 315 a7.5 7.5 0 1 0 15 0 a7.5 7.5 0 1 0 -15 0z" fill="rgba(43, 127, 255, 0.7)"></path>
            <path d="M1065 645L1275 435L1275 315L1215 255L1215 225" stroke-width="5" stroke="rgba(43, 127, 255, 0.7)"></path>
            <path d="M1057.5 645 a7.5 7.5 0 1 0 15 0 a7.5 7.5 0 1 0 -15 0zM1207.5 225 a7.5 7.5 0 1 0 15 0 a7.5 7.5 0 1 0 -15 0z" fill="rgba(43, 127, 255, 0.7)"></path>
            <path d="M105 315L45 375L45 465" stroke-width="5" stroke="rgba(43, 127, 255, 0.7)"></path>
            <path d="M97.5 315 a7.5 7.5 0 1 0 15 0 a7.5 7.5 0 1 0 -15 0zM37.5 465 a7.5 7.5 0 1 0 15 0 a7.5 7.5 0 1 0 -15 0z" fill="rgba(43, 127, 255, 0.7)"></path>
            <path d="M255 555L465 555L525 495L525 285L615 195" stroke-width="5" stroke="rgba(43, 127, 255, 0.7)"></path>
            <path d="M247.5 555 a7.5 7.5 0 1 0 15 0 a7.5 7.5 0 1 0 -15 0zM607.5 195 a7.5 7.5 0 1 0 15 0 a7.5 7.5 0 1 0 -15 0z" fill="rgba(43, 127, 255, 0.7)"></path>
            <path d="M345 645L405 585L435 585" stroke-width="5" stroke="rgba(43, 127, 255, 0.7)"></path>
            <path d="M337.5 645 a7.5 7.5 0 1 0 15 0 a7.5 7.5 0 1 0 -15 0zM427.5 585 a7.5 7.5 0 1 0 15 0 a7.5 7.5 0 1 0 -15 0z" fill="rgba(43, 127, 255, 0.7)"></path>
            <path d="M45 195L135 105" stroke-width="5" stroke="rgba(43, 127, 255, 0.7)"></path>
            <path d="M37.5 195 a7.5 7.5 0 1 0 15 0 a7.5 7.5 0 1 0 -15 0zM127.5 105 a7.5 7.5 0 1 0 15 0 a7.5 7.5 0 1 0 -15 0z" fill="rgba(43, 127, 255, 0.7)"></path>
            <path d="M1065 285L1035 285L975 345L975 465" stroke-width="5" stroke="rgba(43, 127, 255, 0.7)"></path>
            <path d="M1057.5 285 a7.5 7.5 0 1 0 15 0 a7.5 7.5 0 1 0 -15 0zM967.5 465 a7.5 7.5 0 1 0 15 0 a7.5 7.5 0 1 0 -15 0z" fill="rgba(43, 127, 255, 0.7)"></path>
            <path d="M435 405L465 405L495 435L495 495L465 525L435 525L315 405L285 405L225 465" stroke-width="5" stroke="rgba(43, 127, 255, 0.7)"></path>
            <path d="M427.5 405 a7.5 7.5 0 1 0 15 0 a7.5 7.5 0 1 0 -15 0zM217.5 465 a7.5 7.5 0 1 0 15 0 a7.5 7.5 0 1 0 -15 0z" fill="rgba(43, 127, 255, 0.7)"></path>
            <path d="M495 585L405 675" stroke-width="5" stroke="rgba(43, 127, 255, 0.7)"></path>
            <path d="M487.5 585 a7.5 7.5 0 1 0 15 0 a7.5 7.5 0 1 0 -15 0zM397.5 675 a7.5 7.5 0 1 0 15 0 a7.5 7.5 0 1 0 -15 0z" fill="rgba(43, 127, 255, 0.7)"></path>
            <path d="M315 135L285 135L225 75" stroke-width="5" stroke="rgba(43, 127, 255, 0.7)"></path>
            <path d="M307.5 135 a7.5 7.5 0 1 0 15 0 a7.5 7.5 0 1 0 -15 0zM217.5 75 a7.5 7.5 0 1 0 15 0 a7.5 7.5 0 1 0 -15 0z" fill="rgba(43, 127, 255, 0.7)"></path>
            <path d="M825 405L735 495" stroke-width="5" stroke="rgba(43, 127, 255, 0.7)"></path>
            <path d="M817.5 405 a7.5 7.5 0 1 0 15 0 a7.5 7.5 0 1 0 -15 0zM727.5 495 a7.5 7.5 0 1 0 15 0 a7.5 7.5 0 1 0 -15 0z" fill="rgba(43, 127, 255, 0.7)"></path>
            <path d="M75 375L135 375L255 255" stroke-width="5" stroke="rgba(43, 127, 255, 0.7)"></path>
            <path d="M67.5 375 a7.5 7.5 0 1 0 15 0 a7.5 7.5 0 1 0 -15 0zM247.5 255 a7.5 7.5 0 1 0 15 0 a7.5 7.5 0 1 0 -15 0z" fill="rgba(43, 127, 255, 0.7)"></path>
            <path d="M345 165L405 225L465 225" stroke-width="5" stroke="rgba(43, 127, 255, 0.7)"></path>
            <path d="M337.5 165 a7.5 7.5 0 1 0 15 0 a7.5 7.5 0 1 0 -15 0zM457.5 225 a7.5 7.5 0 1 0 15 0 a7.5 7.5 0 1 0 -15 0z" fill="rgba(43, 127, 255, 0.7)"></path>
            <path d="M945 615L855 705L825 705" stroke-width="5" stroke="rgba(43, 127, 255, 0.7)"></path>
            <path d="M937.5 615 a7.5 7.5 0 1 0 15 0 a7.5 7.5 0 1 0 -15 0zM817.5 705 a7.5 7.5 0 1 0 15 0 a7.5 7.5 0 1 0 -15 0z" fill="rgba(43, 127, 255, 0.7)"></path>
            <path d="M555 585L555 525L585 495" stroke-width="5" stroke="rgba(43, 127, 255, 0.7)"></path>
            <path d="M547.5 585 a7.5 7.5 0 1 0 15 0 a7.5 7.5 0 1 0 -15 0zM577.5 495 a7.5 7.5 0 1 0 15 0 a7.5 7.5 0 1 0 -15 0z" fill="rgba(43, 127, 255, 0.7)"></path>
            <path d="M375 165L285 75L255 75" stroke-width="5" stroke="rgba(43, 127, 255, 0.7)"></path>
            <path d="M367.5 165 a7.5 7.5 0 1 0 15 0 a7.5 7.5 0 1 0 -15 0zM247.5 75 a7.5 7.5 0 1 0 15 0 a7.5 7.5 0 1 0 -15 0z" fill="rgba(43, 127, 255, 0.7)"></path>
            <path d="M1155 495L1185 495L1245 435L1245 315L1215 285" stroke-width="5" stroke="rgba(43, 127, 255, 0.7)"></path>
            <path d="M1147.5 495 a7.5 7.5 0 1 0 15 0 a7.5 7.5 0 1 0 -15 0zM1207.5 285 a7.5 7.5 0 1 0 15 0 a7.5 7.5 0 1 0 -15 0z" fill="rgba(43, 127, 255, 0.7)"></path>
            <path d="M855 555L825 585L795 585L765 555" stroke-width="5" stroke="rgba(43, 127, 255, 0.7)"></path>
            <path d="M847.5 555 a7.5 7.5 0 1 0 15 0 a7.5 7.5 0 1 0 -15 0zM757.5 555 a7.5 7.5 0 1 0 15 0 a7.5 7.5 0 1 0 -15 0z" fill="rgba(43, 127, 255, 0.7)"></path>
            <path d="M255 315L255 345L165 435L135 435L15 555L15 675" stroke-width="5" stroke="rgba(43, 127, 255, 0.7)"></path>
            <path d="M247.5 315 a7.5 7.5 0 1 0 15 0 a7.5 7.5 0 1 0 -15 0zM7.5 675 a7.5 7.5 0 1 0 15 0 a7.5 7.5 0 1 0 -15 0z" fill="rgba(43, 127, 255, 0.7)"></path>
            <path d="M1065 465L1185 465L1215 435L1215 315" stroke-width="5" stroke="rgba(43, 127, 255, 0.7)"></path>
            <path d="M1057.5 465 a7.5 7.5 0 1 0 15 0 a7.5 7.5 0 1 0 -15 0zM1207.5 315 a7.5 7.5 0 1 0 15 0 a7.5 7.5 0 1 0 -15 0z" fill="rgba(43, 127, 255, 0.7)"></path>
            <path d="M435 105L405 75L315 75" stroke-width="5" stroke="rgba(43, 127, 255, 0.7)"></path>
            <path d="M427.5 105 a7.5 7.5 0 1 0 15 0 a7.5 7.5 0 1 0 -15 0zM307.5 75 a7.5 7.5 0 1 0 15 0 a7.5 7.5 0 1 0 -15 0z" fill="rgba(43, 127, 255, 0.7)"></path>
            <path d="M1125 75L1095 45L1095 15" stroke-width="5" stroke="rgba(43, 127, 255, 0.7)"></path>
            <path d="M1117.5 75 a7.5 7.5 0 1 0 15 0 a7.5 7.5 0 1 0 -15 0zM1087.5 15 a7.5 7.5 0 1 0 15 0 a7.5 7.5 0 1 0 -15 0z" fill="rgba(43, 127, 255, 0.7)"></path>
            <path d="M1005 675L1005 525L1035 495L1125 495L1155 525" stroke-width="5" stroke="rgba(43, 127, 255, 0.7)"></path>
            <path d="M997.5 675 a7.5 7.5 0 1 0 15 0 a7.5 7.5 0 1 0 -15 0zM1147.5 525 a7.5 7.5 0 1 0 15 0 a7.5 7.5 0 1 0 -15 0z" fill="rgba(43, 127, 255, 0.7)"></path>
            <path d="M885 195L1005 195" stroke-width="5" stroke="rgba(43, 127, 255, 0.7)"></path>
            <path d="M877.5 195 a7.5 7.5 0 1 0 15 0 a7.5 7.5 0 1 0 -15 0zM997.5 195 a7.5 7.5 0 1 0 15 0 a7.5 7.5 0 1 0 -15 0z" fill="rgba(43, 127, 255, 0.7)"></path>
            <path d="M525 675L585 675" stroke-width="5" stroke="rgba(43, 127, 255, 0.7)"></path>
            <path d="M517.5 675 a7.5 7.5 0 1 0 15 0 a7.5 7.5 0 1 0 -15 0zM577.5 675 a7.5 7.5 0 1 0 15 0 a7.5 7.5 0 1 0 -15 0z" fill="rgba(43, 127, 255, 0.7)"></path>
            <path d="M165 225L195 255L225 255" stroke-width="5" stroke="rgba(43, 127, 255, 0.7)"></path>
            <path d="M157.5 225 a7.5 7.5 0 1 0 15 0 a7.5 7.5 0 1 0 -15 0zM217.5 255 a7.5 7.5 0 1 0 15 0 a7.5 7.5 0 1 0 -15 0z" fill="rgba(43, 127, 255, 0.7)"></path>
            <path d="M765 225L765 285" stroke-width="5" stroke="rgba(43, 127, 255, 0.7)"></path>
            <path d="M757.5 225 a7.5 7.5 0 1 0 15 0 a7.5 7.5 0 1 0 -15 0zM757.5 285 a7.5 7.5 0 1 0 15 0 a7.5 7.5 0 1 0 -15 0z" fill="rgba(43, 127, 255, 0.7)"></path>
            <path d="M1245 525L1215 525L1095 645" stroke-width="5" stroke="rgba(43, 127, 255, 0.7)"></path>
            <path d="M1237.5 525 a7.5 7.5 0 1 0 15 0 a7.5 7.5 0 1 0 -15 0zM1087.5 645 a7.5 7.5 0 1 0 15 0 a7.5 7.5 0 1 0 -15 0z" fill="rgba(43, 127, 255, 0.7)"></path>
            <path d="M1185 615L1215 645L1275 645" stroke-width="5" stroke="rgba(43, 127, 255, 0.7)"></path>
            <path d="M1177.5 615 a7.5 7.5 0 1 0 15 0 a7.5 7.5 0 1 0 -15 0zM1267.5 645 a7.5 7.5 0 1 0 15 0 a7.5 7.5 0 1 0 -15 0z" fill="rgba(43, 127, 255, 0.7)"></path>
            <path d="M1035 135L945 45L945 15" stroke-width="5" stroke="rgba(43, 127, 255, 0.7)"></path>
            <path d="M1027.5 135 a7.5 7.5 0 1 0 15 0 a7.5 7.5 0 1 0 -15 0zM937.5 15 a7.5 7.5 0 1 0 15 0 a7.5 7.5 0 1 0 -15 0z" fill="rgba(43, 127, 255, 0.7)"></path>
            <path d="M45 615L105 615L135 645L135 675" stroke-width="5" stroke="rgba(43, 127, 255, 0.7)"></path>
            <path d="M37.5 615 a7.5 7.5 0 1 0 15 0 a7.5 7.5 0 1 0 -15 0zM127.5 675 a7.5 7.5 0 1 0 15 0 a7.5 7.5 0 1 0 -15 0z" fill="rgba(43, 127, 255, 0.7)"></path>
            <path d="M585 165L585 195L555 225" stroke-width="5" stroke="rgba(43, 127, 255, 0.7)"></path>
            <path d="M577.5 165 a7.5 7.5 0 1 0 15 0 a7.5 7.5 0 1 0 -15 0zM547.5 225 a7.5 7.5 0 1 0 15 0 a7.5 7.5 0 1 0 -15 0z" fill="rgba(43, 127, 255, 0.7)"></path>
            <path d="M1155 105L1125 135L1065 135L975 45L975 15" stroke-width="5" stroke="rgba(43, 127, 255, 0.7)"></path>
            <path d="M1147.5 105 a7.5 7.5 0 1 0 15 0 a7.5 7.5 0 1 0 -15 0zM967.5 15 a7.5 7.5 0 1 0 15 0 a7.5 7.5 0 1 0 -15 0z" fill="rgba(43, 127, 255, 0.7)"></path>
            <path d="M405 345L345 405" stroke-width="5" stroke="rgba(43, 127, 255, 0.7)"></path>
            <path d="M397.5 345 a7.5 7.5 0 1 0 15 0 a7.5 7.5 0 1 0 -15 0zM337.5 405 a7.5 7.5 0 1 0 15 0 a7.5 7.5 0 1 0 -15 0z" fill="rgba(43, 127, 255, 0.7)"></path>
            <path d="M405 405L405 375L435 345L435 315" stroke-width="5" stroke="rgba(43, 127, 255, 0.7)"></path>
            <path d="M397.5 405 a7.5 7.5 0 1 0 15 0 a7.5 7.5 0 1 0 -15 0zM427.5 315 a7.5 7.5 0 1 0 15 0 a7.5 7.5 0 1 0 -15 0z" fill="rgba(43, 127, 255, 0.7)"></path>
            <path d="M855 165L885 135L885 105" stroke-width="5" stroke="rgba(43, 127, 255, 0.7)"></path>
            <path d="M847.5 165 a7.5 7.5 0 1 0 15 0 a7.5 7.5 0 1 0 -15 0zM877.5 105 a7.5 7.5 0 1 0 15 0 a7.5 7.5 0 1 0 -15 0z" fill="rgba(43, 127, 255, 0.7)"></path>
            <path d="M1095 285L1095 345L1035 405" stroke-width="5" stroke="rgba(43, 127, 255, 0.7)"></path>
            <path d="M1087.5 285 a7.5 7.5 0 1 0 15 0 a7.5 7.5 0 1 0 -15 0zM1027.5 405 a7.5 7.5 0 1 0 15 0 a7.5 7.5 0 1 0 -15 0z" fill="rgba(43, 127, 255, 0.7)"></path>
            <path d="M735 615L705 585L705 555" stroke-width="5" stroke="rgba(43, 127, 255, 0.7)"></path>
            <path d="M727.5 615 a7.5 7.5 0 1 0 15 0 a7.5 7.5 0 1 0 -15 0zM697.5 555 a7.5 7.5 0 1 0 15 0 a7.5 7.5 0 1 0 -15 0z" fill="rgba(43, 127, 255, 0.7)"></path>
            <path d="M855 435L795 495L765 495" stroke-width="5" stroke="rgba(43, 127, 255, 0.7)"></path>
            <path d="M847.5 435 a7.5 7.5 0 1 0 15 0 a7.5 7.5 0 1 0 -15 0zM757.5 495 a7.5 7.5 0 1 0 15 0 a7.5 7.5 0 1 0 -15 0z" fill="rgba(43, 127, 255, 0.7)"></path>
            <path d="M915 285L855 285" stroke-width="5" stroke="rgba(43, 127, 255, 0.7)"></path>
            <path d="M907.5 285 a7.5 7.5 0 1 0 15 0 a7.5 7.5 0 1 0 -15 0zM847.5 285 a7.5 7.5 0 1 0 15 0 a7.5 7.5 0 1 0 -15 0z" fill="rgba(43, 127, 255, 0.7)"></path>
            <path d="M1155 405L1125 435L1095 435" stroke-width="5" stroke="rgba(43, 127, 255, 0.7)"></path>
            <path d="M1147.5 405 a7.5 7.5 0 1 0 15 0 a7.5 7.5 0 1 0 -15 0zM1087.5 435 a7.5 7.5 0 1 0 15 0 a7.5 7.5 0 1 0 -15 0z" fill="rgba(43, 127, 255, 0.7)"></path>
            <path d="M945 285L975 285L1005 255" stroke-width="5" stroke="rgba(43, 127, 255, 0.7)"></path>
            <path d="M937.5 285 a7.5 7.5 0 1 0 15 0 a7.5 7.5 0 1 0 -15 0zM997.5 255 a7.5 7.5 0 1 0 15 0 a7.5 7.5 0 1 0 -15 0z" fill="rgba(43, 127, 255, 0.7)"></path>
            <path d="M1185 45L1155 15L1125 15" stroke-width="5" stroke="rgba(43, 127, 255, 0.7)"></path>
            <path d="M1177.5 45 a7.5 7.5 0 1 0 15 0 a7.5 7.5 0 1 0 -15 0zM1117.5 15 a7.5 7.5 0 1 0 15 0 a7.5 7.5 0 1 0 -15 0z" fill="rgba(43, 127, 255, 0.7)"></path>
            <path d="M1185 105L1185 75L1155 45L1125 45" stroke-width="5" stroke="rgba(43, 127, 255, 0.7)"></path>
            <path d="M1177.5 105 a7.5 7.5 0 1 0 15 0 a7.5 7.5 0 1 0 -15 0zM1117.5 45 a7.5 7.5 0 1 0 15 0 a7.5 7.5 0 1 0 -15 0z" fill="rgba(43, 127, 255, 0.7)"></path>
            <path d="M165 255L165 315L135 345L105 345" stroke-width="5" stroke="rgba(43, 127, 255, 0.7)"></path>
            <path d="M157.5 255 a7.5 7.5 0 1 0 15 0 a7.5 7.5 0 1 0 -15 0zM97.5 345 a7.5 7.5 0 1 0 15 0 a7.5 7.5 0 1 0 -15 0z" fill="rgba(43, 127, 255, 0.7)"></path>
            <path d="M1125 525L1035 615L1035 675" stroke-width="5" stroke="rgba(43, 127, 255, 0.7)"></path>
            <path d="M1117.5 525 a7.5 7.5 0 1 0 15 0 a7.5 7.5 0 1 0 -15 0zM1027.5 675 a7.5 7.5 0 1 0 15 0 a7.5 7.5 0 1 0 -15 0z" fill="rgba(43, 127, 255, 0.7)"></path>
            <path d="M465 75L525 135" stroke-width="5" stroke="rgba(43, 127, 255, 0.7)"></path>
            <path d="M457.5 75 a7.5 7.5 0 1 0 15 0 a7.5 7.5 0 1 0 -15 0zM517.5 135 a7.5 7.5 0 1 0 15 0 a7.5 7.5 0 1 0 -15 0z" fill="rgba(43, 127, 255, 0.7)"></path>
            <path d="M735 345L675 405" stroke-width="5" stroke="rgba(43, 127, 255, 0.7)"></path>
            <path d="M727.5 345 a7.5 7.5 0 1 0 15 0 a7.5 7.5 0 1 0 -15 0zM667.5 405 a7.5 7.5 0 1 0 15 0 a7.5 7.5 0 1 0 -15 0z" fill="rgba(43, 127, 255, 0.7)"></path>
            <path d="M1245 75L1245 135" stroke-width="5" stroke="rgba(43, 127, 255, 0.7)"></path>
            <path d="M1237.5 75 a7.5 7.5 0 1 0 15 0 a7.5 7.5 0 1 0 -15 0zM1237.5 135 a7.5 7.5 0 1 0 15 0 a7.5 7.5 0 1 0 -15 0z" fill="rgba(43, 127, 255, 0.7)"></path>
            <path d="M405 135L375 105L345 105" stroke-width="5" stroke="rgba(43, 127, 255, 0.7)"></path>
            <path d="M397.5 135 a7.5 7.5 0 1 0 15 0 a7.5 7.5 0 1 0 -15 0zM337.5 105 a7.5 7.5 0 1 0 15 0 a7.5 7.5 0 1 0 -15 0z" fill="rgba(43, 127, 255, 0.7)"></path>
            <path d="M1275 615L1245 615L1215 585L1185 585" stroke-width="5" stroke="rgba(43, 127, 255, 0.7)"></path>
            <path d="M1267.5 615 a7.5 7.5 0 1 0 15 0 a7.5 7.5 0 1 0 -15 0zM1177.5 585 a7.5 7.5 0 1 0 15 0 a7.5 7.5 0 1 0 -15 0z" fill="rgba(43, 127, 255, 0.7)"></path>
            <path d="M1035 555L1065 525L1095 525" stroke-width="5" stroke="rgba(43, 127, 255, 0.7)"></path>
            <path d="M1027.5 555 a7.5 7.5 0 1 0 15 0 a7.5 7.5 0 1 0 -15 0zM1087.5 525 a7.5 7.5 0 1 0 15 0 a7.5 7.5 0 1 0 -15 0z" fill="rgba(43, 127, 255, 0.7)"></path>
            <path d="M75 135L45 105L45 75" stroke-width="5" stroke="rgba(43, 127, 255, 0.7)"></path>
            <path d="M67.5 135 a7.5 7.5 0 1 0 15 0 a7.5 7.5 0 1 0 -15 0zM37.5 75 a7.5 7.5 0 1 0 15 0 a7.5 7.5 0 1 0 -15 0z" fill="rgba(43, 127, 255, 0.7)"></path>
            <path d="M885 375L885 345L855 315" stroke-width="5" stroke="rgba(43, 127, 255, 0.7)"></path>
            <path d="M877.5 375 a7.5 7.5 0 1 0 15 0 a7.5 7.5 0 1 0 -15 0zM847.5 315 a7.5 7.5 0 1 0 15 0 a7.5 7.5 0 1 0 -15 0z" fill="rgba(43, 127, 255, 0.7)"></path>
            <path d="M165 645L225 645" stroke-width="5" stroke="rgba(43, 127, 255, 0.7)"></path>
            <path d="M157.5 645 a7.5 7.5 0 1 0 15 0 a7.5 7.5 0 1 0 -15 0zM217.5 645 a7.5 7.5 0 1 0 15 0 a7.5 7.5 0 1 0 -15 0z" fill="rgba(43, 127, 255, 0.7)"></path>
            <path d="M765 405L735 435L705 435" stroke-width="5" stroke="rgba(43, 127, 255, 0.7)"></path>
            <path d="M757.5 405 a7.5 7.5 0 1 0 15 0 a7.5 7.5 0 1 0 -15 0zM697.5 435 a7.5 7.5 0 1 0 15 0 a7.5 7.5 0 1 0 -15 0z" fill="rgba(43, 127, 255, 0.7)"></path>
            <path d="M435 435L435 495" stroke-width="5" stroke="rgba(43, 127, 255, 0.7)"></path>
            <path d="M427.5 435 a7.5 7.5 0 1 0 15 0 a7.5 7.5 0 1 0 -15 0zM427.5 495 a7.5 7.5 0 1 0 15 0 a7.5 7.5 0 1 0 -15 0z" fill="rgba(43, 127, 255, 0.7)"></path>
            <path d="M165 135L135 135L75 195" stroke-width="5" stroke="rgba(43, 127, 255, 0.7)"></path>
            <path d="M157.5 135 a7.5 7.5 0 1 0 15 0 a7.5 7.5 0 1 0 -15 0zM67.5 195 a7.5 7.5 0 1 0 15 0 a7.5 7.5 0 1 0 -15 0z" fill="rgba(43, 127, 255, 0.7)"></path>
            <path d="M1275 555L1215 555" stroke-width="5" stroke="rgba(43, 127, 255, 0.7)"></path>
            <path d="M1267.5 555 a7.5 7.5 0 1 0 15 0 a7.5 7.5 0 1 0 -15 0zM1207.5 555 a7.5 7.5 0 1 0 15 0 a7.5 7.5 0 1 0 -15 0z" fill="rgba(43, 127, 255, 0.7)"></path>
            <path d="M915 135L945 165L975 165" stroke-width="5" stroke="rgba(43, 127, 255, 0.7)"></path>
            <path d="M907.5 135 a7.5 7.5 0 1 0 15 0 a7.5 7.5 0 1 0 -15 0zM967.5 165 a7.5 7.5 0 1 0 15 0 a7.5 7.5 0 1 0 -15 0z" fill="rgba(43, 127, 255, 0.7)"></path>
            <path d="M915 315L915 435" stroke-width="5" stroke="rgba(43, 127, 255, 0.7)"></path>
            <path d="M907.5 315 a7.5 7.5 0 1 0 15 0 a7.5 7.5 0 1 0 -15 0zM907.5 435 a7.5 7.5 0 1 0 15 0 a7.5 7.5 0 1 0 -15 0z" fill="rgba(43, 127, 255, 0.7)"></path>
            <path d="M1155 285L1155 345L1185 375" stroke-width="5" stroke="rgba(43, 127, 255, 0.7)"></path>
            <path d="M1147.5 285 a7.5 7.5 0 1 0 15 0 a7.5 7.5 0 1 0 -15 0zM1177.5 375 a7.5 7.5 0 1 0 15 0 a7.5 7.5 0 1 0 -15 0z" fill="rgba(43, 127, 255, 0.7)"></path>
            <path d="M1275 75L1275 135" stroke-width="5" stroke="rgba(43, 127, 255, 0.7)"></path>
            <path d="M1267.5 75 a7.5 7.5 0 1 0 15 0 a7.5 7.5 0 1 0 -15 0zM1267.5 135 a7.5 7.5 0 1 0 15 0 a7.5 7.5 0 1 0 -15 0z" fill="rgba(43, 127, 255, 0.7)"></path>
            <path d="M1125 315L1125 255" stroke-width="5" stroke="rgba(43, 127, 255, 0.7)"></path>
            <path d="M1117.5 315 a7.5 7.5 0 1 0 15 0 a7.5 7.5 0 1 0 -15 0zM1117.5 255 a7.5 7.5 0 1 0 15 0 a7.5 7.5 0 1 0 -15 0z" fill="rgba(43, 127, 255, 0.7)"></path>
            <path d="M465 435L465 495" stroke-width="5" stroke="rgba(43, 127, 255, 0.7)"></path>
            <path d="M457.5 435 a7.5 7.5 0 1 0 15 0 a7.5 7.5 0 1 0 -15 0zM457.5 495 a7.5 7.5 0 1 0 15 0 a7.5 7.5 0 1 0 -15 0z" fill="rgba(43, 127, 255, 0.7)"></path>
            <path d="M105 645L45 645" stroke-width="5" stroke="rgba(43, 127, 255, 0.7)"></path>
            <path d="M97.5 645 a7.5 7.5 0 1 0 15 0 a7.5 7.5 0 1 0 -15 0zM37.5 645 a7.5 7.5 0 1 0 15 0 a7.5 7.5 0 1 0 -15 0z" fill="rgba(43, 127, 255, 0.7)"></path>
            <path d="M645 585L615 615L585 615" stroke-width="5" stroke="rgba(43, 127, 255, 0.7)"></path>
            <path d="M637.5 585 a7.5 7.5 0 1 0 15 0 a7.5 7.5 0 1 0 -15 0zM577.5 615 a7.5 7.5 0 1 0 15 0 a7.5 7.5 0 1 0 -15 0z" fill="rgba(43, 127, 255, 0.7)"></path>
            <path d="M1215 15L1215 135" stroke-width="5" stroke="rgba(43, 127, 255, 0.7)"></path>
            <path d="M1207.5 15 a7.5 7.5 0 1 0 15 0 a7.5 7.5 0 1 0 -15 0zM1207.5 135 a7.5 7.5 0 1 0 15 0 a7.5 7.5 0 1 0 -15 0z" fill="rgba(43, 127, 255, 0.7)"></path>
            <path d="M525 45L435 45" stroke-width="5" stroke="rgba(43, 127, 255, 0.7)"></path>
            <path d="M517.5 45 a7.5 7.5 0 1 0 15 0 a7.5 7.5 0 1 0 -15 0zM427.5 45 a7.5 7.5 0 1 0 15 0 a7.5 7.5 0 1 0 -15 0z" fill="rgba(43, 127, 255, 0.7)"></path>
        </g>
    </g>
    <defs>
        <mask id="SvgjsMask1059">
            <rect width="1290" height="720" fill="#ffffff"></rect>
        </mask>
        <mask id="SvgjsMask1060">
            <rect width="1290" height="720" fill="white"></rect>
            <path d="M641.25 135 a3.75 3.75 0 1 0 7.5 0 a3.75 3.75 0 1 0 -7.5 0zM341.25 705 a3.75 3.75 0 1 0 7.5 0 a3.75 3.75 0 1 0 -7.5 0z" fill="black"></path>
            <path d="M311.25 375 a3.75 3.75 0 1 0 7.5 0 a3.75 3.75 0 1 0 -7.5 0zM11.25 15 a3.75 3.75 0 1 0 7.5 0 a3.75 3.75 0 1 0 -7.5 0z" fill="black"></path>
            <path d="M911.25 675 a3.75 3.75 0 1 0 7.5 0 a3.75 3.75 0 1 0 -7.5 0zM1271.25 705 a3.75 3.75 0 1 0 7.5 0 a3.75 3.75 0 1 0 -7.5 0z" fill="black"></path>
            <path d="M71.25 75 a3.75 3.75 0 1 0 7.5 0 a3.75 3.75 0 1 0 -7.5 0zM131.25 585 a3.75 3.75 0 1 0 7.5 0 a3.75 3.75 0 1 0 -7.5 0z" fill="black"></path>
            <path d="M1241.25 195 a3.75 3.75 0 1 0 7.5 0 a3.75 3.75 0 1 0 -7.5 0zM671.25 15 a3.75 3.75 0 1 0 7.5 0 a3.75 3.75 0 1 0 -7.5 0z" fill="black"></path>
            <path d="M371.25 585 a3.75 3.75 0 1 0 7.5 0 a3.75 3.75 0 1 0 -7.5 0zM11.25 705 a3.75 3.75 0 1 0 7.5 0 a3.75 3.75 0 1 0 -7.5 0z" fill="black"></path>
            <path d="M1121.25 345 a3.75 3.75 0 1 0 7.5 0 a3.75 3.75 0 1 0 -7.5 0zM551.25 705 a3.75 3.75 0 1 0 7.5 0 a3.75 3.75 0 1 0 -7.5 0z" fill="black"></path>
            <path d="M251.25 615 a3.75 3.75 0 1 0 7.5 0 a3.75 3.75 0 1 0 -7.5 0zM161.25 525 a3.75 3.75 0 1 0 7.5 0 a3.75 3.75 0 1 0 -7.5 0z" fill="black"></path>
            <path d="M911.25 105 a3.75 3.75 0 1 0 7.5 0 a3.75 3.75 0 1 0 -7.5 0zM341.25 15 a3.75 3.75 0 1 0 7.5 0 a3.75 3.75 0 1 0 -7.5 0z" fill="black"></path>
            <path d="M191.25 345 a3.75 3.75 0 1 0 7.5 0 a3.75 3.75 0 1 0 -7.5 0zM11.25 495 a3.75 3.75 0 1 0 7.5 0 a3.75 3.75 0 1 0 -7.5 0z" fill="black"></path>
            <path d="M1031.25 255 a3.75 3.75 0 1 0 7.5 0 a3.75 3.75 0 1 0 -7.5 0zM611.25 645 a3.75 3.75 0 1 0 7.5 0 a3.75 3.75 0 1 0 -7.5 0z" fill="black"></path>
            <path d="M731.25 645 a3.75 3.75 0 1 0 7.5 0 a3.75 3.75 0 1 0 -7.5 0zM581.25 465 a3.75 3.75 0 1 0 7.5 0 a3.75 3.75 0 1 0 -7.5 0z" fill="black"></path>
            <path d="M491.25 405 a3.75 3.75 0 1 0 7.5 0 a3.75 3.75 0 1 0 -7.5 0zM851.25 75 a3.75 3.75 0 1 0 7.5 0 a3.75 3.75 0 1 0 -7.5 0z" fill="black"></path>
            <path d="M521.25 645 a3.75 3.75 0 1 0 7.5 0 a3.75 3.75 0 1 0 -7.5 0zM371.25 705 a3.75 3.75 0 1 0 7.5 0 a3.75 3.75 0 1 0 -7.5 0z" fill="black"></path>
            <path d="M1061.25 675 a3.75 3.75 0 1 0 7.5 0 a3.75 3.75 0 1 0 -7.5 0zM1271.25 675 a3.75 3.75 0 1 0 7.5 0 a3.75 3.75 0 1 0 -7.5 0z" fill="black"></path>
            <path d="M791.25 375 a3.75 3.75 0 1 0 7.5 0 a3.75 3.75 0 1 0 -7.5 0zM791.25 615 a3.75 3.75 0 1 0 7.5 0 a3.75 3.75 0 1 0 -7.5 0z" fill="black"></path>
            <path d="M401.25 525 a3.75 3.75 0 1 0 7.5 0 a3.75 3.75 0 1 0 -7.5 0zM191.25 525 a3.75 3.75 0 1 0 7.5 0 a3.75 3.75 0 1 0 -7.5 0z" fill="black"></path>
            <path d="M551.25 615 a3.75 3.75 0 1 0 7.5 0 a3.75 3.75 0 1 0 -7.5 0zM611.25 675 a3.75 3.75 0 1 0 7.5 0 a3.75 3.75 0 1 0 -7.5 0z" fill="black"></path>
            <path d="M671.25 375 a3.75 3.75 0 1 0 7.5 0 a3.75 3.75 0 1 0 -7.5 0zM611.25 345 a3.75 3.75 0 1 0 7.5 0 a3.75 3.75 0 1 0 -7.5 0z" fill="black"></path>
            <path d="M761.25 315 a3.75 3.75 0 1 0 7.5 0 a3.75 3.75 0 1 0 -7.5 0zM611.25 375 a3.75 3.75 0 1 0 7.5 0 a3.75 3.75 0 1 0 -7.5 0z" fill="black"></path>
            <path d="M11.25 255 a3.75 3.75 0 1 0 7.5 0 a3.75 3.75 0 1 0 -7.5 0zM11.25 45 a3.75 3.75 0 1 0 7.5 0 a3.75 3.75 0 1 0 -7.5 0z" fill="black"></path>
            <path d="M731.25 465 a3.75 3.75 0 1 0 7.5 0 a3.75 3.75 0 1 0 -7.5 0zM641.25 375 a3.75 3.75 0 1 0 7.5 0 a3.75 3.75 0 1 0 -7.5 0z" fill="black"></path>
            <path d="M821.25 315 a3.75 3.75 0 1 0 7.5 0 a3.75 3.75 0 1 0 -7.5 0zM821.25 105 a3.75 3.75 0 1 0 7.5 0 a3.75 3.75 0 1 0 -7.5 0z" fill="black"></path>
            <path d="M11.25 315 a3.75 3.75 0 1 0 7.5 0 a3.75 3.75 0 1 0 -7.5 0zM71.25 555 a3.75 3.75 0 1 0 7.5 0 a3.75 3.75 0 1 0 -7.5 0z" fill="black"></path>
            <path d="M731.25 225 a3.75 3.75 0 1 0 7.5 0 a3.75 3.75 0 1 0 -7.5 0zM671.25 225 a3.75 3.75 0 1 0 7.5 0 a3.75 3.75 0 1 0 -7.5 0z" fill="black"></path>
            <path d="M1181.25 285 a3.75 3.75 0 1 0 7.5 0 a3.75 3.75 0 1 0 -7.5 0zM1181.25 225 a3.75 3.75 0 1 0 7.5 0 a3.75 3.75 0 1 0 -7.5 0z" fill="black"></path>
            <path d="M851.25 225 a3.75 3.75 0 1 0 7.5 0 a3.75 3.75 0 1 0 -7.5 0zM1151.25 225 a3.75 3.75 0 1 0 7.5 0 a3.75 3.75 0 1 0 -7.5 0z" fill="black"></path>
            <path d="M71.25 315 a3.75 3.75 0 1 0 7.5 0 a3.75 3.75 0 1 0 -7.5 0zM11.25 465 a3.75 3.75 0 1 0 7.5 0 a3.75 3.75 0 1 0 -7.5 0z" fill="black"></path>
            <path d="M341.25 465 a3.75 3.75 0 1 0 7.5 0 a3.75 3.75 0 1 0 -7.5 0zM191.25 495 a3.75 3.75 0 1 0 7.5 0 a3.75 3.75 0 1 0 -7.5 0z" fill="black"></path>
            <path d="M41.25 585 a3.75 3.75 0 1 0 7.5 0 a3.75 3.75 0 1 0 -7.5 0zM251.25 675 a3.75 3.75 0 1 0 7.5 0 a3.75 3.75 0 1 0 -7.5 0z" fill="black"></path>
            <path d="M401.25 285 a3.75 3.75 0 1 0 7.5 0 a3.75 3.75 0 1 0 -7.5 0zM461.25 285 a3.75 3.75 0 1 0 7.5 0 a3.75 3.75 0 1 0 -7.5 0z" fill="black"></path>
            <path d="M1151.25 375 a3.75 3.75 0 1 0 7.5 0 a3.75 3.75 0 1 0 -7.5 0zM791.25 705 a3.75 3.75 0 1 0 7.5 0 a3.75 3.75 0 1 0 -7.5 0z" fill="black"></path>
            <path d="M911.25 15 a3.75 3.75 0 1 0 7.5 0 a3.75 3.75 0 1 0 -7.5 0zM1271.25 165 a3.75 3.75 0 1 0 7.5 0 a3.75 3.75 0 1 0 -7.5 0z" fill="black"></path>
            <path d="M311.25 15 a3.75 3.75 0 1 0 7.5 0 a3.75 3.75 0 1 0 -7.5 0zM461.25 255 a3.75 3.75 0 1 0 7.5 0 a3.75 3.75 0 1 0 -7.5 0z" fill="black"></path>
            <path d="M461.25 135 a3.75 3.75 0 1 0 7.5 0 a3.75 3.75 0 1 0 -7.5 0zM221.25 45 a3.75 3.75 0 1 0 7.5 0 a3.75 3.75 0 1 0 -7.5 0z" fill="black"></path>
            <path d="M521.25 255 a3.75 3.75 0 1 0 7.5 0 a3.75 3.75 0 1 0 -7.5 0zM791.25 315 a3.75 3.75 0 1 0 7.5 0 a3.75 3.75 0 1 0 -7.5 0z" fill="black"></path>
            <path d="M1061.25 645 a3.75 3.75 0 1 0 7.5 0 a3.75 3.75 0 1 0 -7.5 0zM1211.25 225 a3.75 3.75 0 1 0 7.5 0 a3.75 3.75 0 1 0 -7.5 0z" fill="black"></path>
            <path d="M101.25 315 a3.75 3.75 0 1 0 7.5 0 a3.75 3.75 0 1 0 -7.5 0zM41.25 465 a3.75 3.75 0 1 0 7.5 0 a3.75 3.75 0 1 0 -7.5 0z" fill="black"></path>
            <path d="M251.25 555 a3.75 3.75 0 1 0 7.5 0 a3.75 3.75 0 1 0 -7.5 0zM611.25 195 a3.75 3.75 0 1 0 7.5 0 a3.75 3.75 0 1 0 -7.5 0z" fill="black"></path>
            <path d="M341.25 645 a3.75 3.75 0 1 0 7.5 0 a3.75 3.75 0 1 0 -7.5 0zM431.25 585 a3.75 3.75 0 1 0 7.5 0 a3.75 3.75 0 1 0 -7.5 0z" fill="black"></path>
            <path d="M41.25 195 a3.75 3.75 0 1 0 7.5 0 a3.75 3.75 0 1 0 -7.5 0zM131.25 105 a3.75 3.75 0 1 0 7.5 0 a3.75 3.75 0 1 0 -7.5 0z" fill="black"></path>
            <path d="M1061.25 285 a3.75 3.75 0 1 0 7.5 0 a3.75 3.75 0 1 0 -7.5 0zM971.25 465 a3.75 3.75 0 1 0 7.5 0 a3.75 3.75 0 1 0 -7.5 0z" fill="black"></path>
            <path d="M431.25 405 a3.75 3.75 0 1 0 7.5 0 a3.75 3.75 0 1 0 -7.5 0zM221.25 465 a3.75 3.75 0 1 0 7.5 0 a3.75 3.75 0 1 0 -7.5 0z" fill="black"></path>
            <path d="M491.25 585 a3.75 3.75 0 1 0 7.5 0 a3.75 3.75 0 1 0 -7.5 0zM401.25 675 a3.75 3.75 0 1 0 7.5 0 a3.75 3.75 0 1 0 -7.5 0z" fill="black"></path>
            <path d="M311.25 135 a3.75 3.75 0 1 0 7.5 0 a3.75 3.75 0 1 0 -7.5 0zM221.25 75 a3.75 3.75 0 1 0 7.5 0 a3.75 3.75 0 1 0 -7.5 0z" fill="black"></path>
            <path d="M821.25 405 a3.75 3.75 0 1 0 7.5 0 a3.75 3.75 0 1 0 -7.5 0zM731.25 495 a3.75 3.75 0 1 0 7.5 0 a3.75 3.75 0 1 0 -7.5 0z" fill="black"></path>
            <path d="M71.25 375 a3.75 3.75 0 1 0 7.5 0 a3.75 3.75 0 1 0 -7.5 0zM251.25 255 a3.75 3.75 0 1 0 7.5 0 a3.75 3.75 0 1 0 -7.5 0z" fill="black"></path>
            <path d="M341.25 165 a3.75 3.75 0 1 0 7.5 0 a3.75 3.75 0 1 0 -7.5 0zM461.25 225 a3.75 3.75 0 1 0 7.5 0 a3.75 3.75 0 1 0 -7.5 0z" fill="black"></path>
            <path d="M941.25 615 a3.75 3.75 0 1 0 7.5 0 a3.75 3.75 0 1 0 -7.5 0zM821.25 705 a3.75 3.75 0 1 0 7.5 0 a3.75 3.75 0 1 0 -7.5 0z" fill="black"></path>
            <path d="M551.25 585 a3.75 3.75 0 1 0 7.5 0 a3.75 3.75 0 1 0 -7.5 0zM581.25 495 a3.75 3.75 0 1 0 7.5 0 a3.75 3.75 0 1 0 -7.5 0z" fill="black"></path>
            <path d="M371.25 165 a3.75 3.75 0 1 0 7.5 0 a3.75 3.75 0 1 0 -7.5 0zM251.25 75 a3.75 3.75 0 1 0 7.5 0 a3.75 3.75 0 1 0 -7.5 0z" fill="black"></path>
            <path d="M1151.25 495 a3.75 3.75 0 1 0 7.5 0 a3.75 3.75 0 1 0 -7.5 0zM1211.25 285 a3.75 3.75 0 1 0 7.5 0 a3.75 3.75 0 1 0 -7.5 0z" fill="black"></path>
            <path d="M851.25 555 a3.75 3.75 0 1 0 7.5 0 a3.75 3.75 0 1 0 -7.5 0zM761.25 555 a3.75 3.75 0 1 0 7.5 0 a3.75 3.75 0 1 0 -7.5 0z" fill="black"></path>
            <path d="M251.25 315 a3.75 3.75 0 1 0 7.5 0 a3.75 3.75 0 1 0 -7.5 0zM11.25 675 a3.75 3.75 0 1 0 7.5 0 a3.75 3.75 0 1 0 -7.5 0z" fill="black"></path>
            <path d="M1061.25 465 a3.75 3.75 0 1 0 7.5 0 a3.75 3.75 0 1 0 -7.5 0zM1211.25 315 a3.75 3.75 0 1 0 7.5 0 a3.75 3.75 0 1 0 -7.5 0z" fill="black"></path>
            <path d="M431.25 105 a3.75 3.75 0 1 0 7.5 0 a3.75 3.75 0 1 0 -7.5 0zM311.25 75 a3.75 3.75 0 1 0 7.5 0 a3.75 3.75 0 1 0 -7.5 0z" fill="black"></path>
            <path d="M1121.25 75 a3.75 3.75 0 1 0 7.5 0 a3.75 3.75 0 1 0 -7.5 0zM1091.25 15 a3.75 3.75 0 1 0 7.5 0 a3.75 3.75 0 1 0 -7.5 0z" fill="black"></path>
            <path d="M1001.25 675 a3.75 3.75 0 1 0 7.5 0 a3.75 3.75 0 1 0 -7.5 0zM1151.25 525 a3.75 3.75 0 1 0 7.5 0 a3.75 3.75 0 1 0 -7.5 0z" fill="black"></path>
            <path d="M881.25 195 a3.75 3.75 0 1 0 7.5 0 a3.75 3.75 0 1 0 -7.5 0zM1001.25 195 a3.75 3.75 0 1 0 7.5 0 a3.75 3.75 0 1 0 -7.5 0z" fill="black"></path>
            <path d="M521.25 675 a3.75 3.75 0 1 0 7.5 0 a3.75 3.75 0 1 0 -7.5 0zM581.25 675 a3.75 3.75 0 1 0 7.5 0 a3.75 3.75 0 1 0 -7.5 0z" fill="black"></path>
            <path d="M161.25 225 a3.75 3.75 0 1 0 7.5 0 a3.75 3.75 0 1 0 -7.5 0zM221.25 255 a3.75 3.75 0 1 0 7.5 0 a3.75 3.75 0 1 0 -7.5 0z" fill="black"></path>
            <path d="M761.25 225 a3.75 3.75 0 1 0 7.5 0 a3.75 3.75 0 1 0 -7.5 0zM761.25 285 a3.75 3.75 0 1 0 7.5 0 a3.75 3.75 0 1 0 -7.5 0z" fill="black"></path>
            <path d="M1241.25 525 a3.75 3.75 0 1 0 7.5 0 a3.75 3.75 0 1 0 -7.5 0zM1091.25 645 a3.75 3.75 0 1 0 7.5 0 a3.75 3.75 0 1 0 -7.5 0z" fill="black"></path>
            <path d="M1181.25 615 a3.75 3.75 0 1 0 7.5 0 a3.75 3.75 0 1 0 -7.5 0zM1271.25 645 a3.75 3.75 0 1 0 7.5 0 a3.75 3.75 0 1 0 -7.5 0z" fill="black"></path>
            <path d="M1031.25 135 a3.75 3.75 0 1 0 7.5 0 a3.75 3.75 0 1 0 -7.5 0zM941.25 15 a3.75 3.75 0 1 0 7.5 0 a3.75 3.75 0 1 0 -7.5 0z" fill="black"></path>
            <path d="M41.25 615 a3.75 3.75 0 1 0 7.5 0 a3.75 3.75 0 1 0 -7.5 0zM131.25 675 a3.75 3.75 0 1 0 7.5 0 a3.75 3.75 0 1 0 -7.5 0z" fill="black"></path>
            <path d="M581.25 165 a3.75 3.75 0 1 0 7.5 0 a3.75 3.75 0 1 0 -7.5 0zM551.25 225 a3.75 3.75 0 1 0 7.5 0 a3.75 3.75 0 1 0 -7.5 0z" fill="black"></path>
            <path d="M1151.25 105 a3.75 3.75 0 1 0 7.5 0 a3.75 3.75 0 1 0 -7.5 0zM971.25 15 a3.75 3.75 0 1 0 7.5 0 a3.75 3.75 0 1 0 -7.5 0z" fill="black"></path>
            <path d="M401.25 345 a3.75 3.75 0 1 0 7.5 0 a3.75 3.75 0 1 0 -7.5 0zM341.25 405 a3.75 3.75 0 1 0 7.5 0 a3.75 3.75 0 1 0 -7.5 0z" fill="black"></path>
            <path d="M401.25 405 a3.75 3.75 0 1 0 7.5 0 a3.75 3.75 0 1 0 -7.5 0zM431.25 315 a3.75 3.75 0 1 0 7.5 0 a3.75 3.75 0 1 0 -7.5 0z" fill="black"></path>
            <path d="M851.25 165 a3.75 3.75 0 1 0 7.5 0 a3.75 3.75 0 1 0 -7.5 0zM881.25 105 a3.75 3.75 0 1 0 7.5 0 a3.75 3.75 0 1 0 -7.5 0z" fill="black"></path>
            <path d="M1091.25 285 a3.75 3.75 0 1 0 7.5 0 a3.75 3.75 0 1 0 -7.5 0zM1031.25 405 a3.75 3.75 0 1 0 7.5 0 a3.75 3.75 0 1 0 -7.5 0z" fill="black"></path>
            <path d="M731.25 615 a3.75 3.75 0 1 0 7.5 0 a3.75 3.75 0 1 0 -7.5 0zM701.25 555 a3.75 3.75 0 1 0 7.5 0 a3.75 3.75 0 1 0 -7.5 0z" fill="black"></path>
            <path d="M851.25 435 a3.75 3.75 0 1 0 7.5 0 a3.75 3.75 0 1 0 -7.5 0zM761.25 495 a3.75 3.75 0 1 0 7.5 0 a3.75 3.75 0 1 0 -7.5 0z" fill="black"></path>
            <path d="M911.25 285 a3.75 3.75 0 1 0 7.5 0 a3.75 3.75 0 1 0 -7.5 0zM851.25 285 a3.75 3.75 0 1 0 7.5 0 a3.75 3.75 0 1 0 -7.5 0z" fill="black"></path>
            <path d="M1151.25 405 a3.75 3.75 0 1 0 7.5 0 a3.75 3.75 0 1 0 -7.5 0zM1091.25 435 a3.75 3.75 0 1 0 7.5 0 a3.75 3.75 0 1 0 -7.5 0z" fill="black"></path>
            <path d="M941.25 285 a3.75 3.75 0 1 0 7.5 0 a3.75 3.75 0 1 0 -7.5 0zM1001.25 255 a3.75 3.75 0 1 0 7.5 0 a3.75 3.75 0 1 0 -7.5 0z" fill="black"></path>
            <path d="M1181.25 45 a3.75 3.75 0 1 0 7.5 0 a3.75 3.75 0 1 0 -7.5 0zM1121.25 15 a3.75 3.75 0 1 0 7.5 0 a3.75 3.75 0 1 0 -7.5 0z" fill="black"></path>
            <path d="M1181.25 105 a3.75 3.75 0 1 0 7.5 0 a3.75 3.75 0 1 0 -7.5 0zM1121.25 45 a3.75 3.75 0 1 0 7.5 0 a3.75 3.75 0 1 0 -7.5 0z" fill="black"></path>
            <path d="M161.25 255 a3.75 3.75 0 1 0 7.5 0 a3.75 3.75 0 1 0 -7.5 0zM101.25 345 a3.75 3.75 0 1 0 7.5 0 a3.75 3.75 0 1 0 -7.5 0z" fill="black"></path>
            <path d="M1121.25 525 a3.75 3.75 0 1 0 7.5 0 a3.75 3.75 0 1 0 -7.5 0zM1031.25 675 a3.75 3.75 0 1 0 7.5 0 a3.75 3.75 0 1 0 -7.5 0z" fill="black"></path>
            <path d="M461.25 75 a3.75 3.75 0 1 0 7.5 0 a3.75 3.75 0 1 0 -7.5 0zM521.25 135 a3.75 3.75 0 1 0 7.5 0 a3.75 3.75 0 1 0 -7.5 0z" fill="black"></path>
            <path d="M731.25 345 a3.75 3.75 0 1 0 7.5 0 a3.75 3.75 0 1 0 -7.5 0zM671.25 405 a3.75 3.75 0 1 0 7.5 0 a3.75 3.75 0 1 0 -7.5 0z" fill="black"></path>
            <path d="M1241.25 75 a3.75 3.75 0 1 0 7.5 0 a3.75 3.75 0 1 0 -7.5 0zM1241.25 135 a3.75 3.75 0 1 0 7.5 0 a3.75 3.75 0 1 0 -7.5 0z" fill="black"></path>
            <path d="M401.25 135 a3.75 3.75 0 1 0 7.5 0 a3.75 3.75 0 1 0 -7.5 0zM341.25 105 a3.75 3.75 0 1 0 7.5 0 a3.75 3.75 0 1 0 -7.5 0z" fill="black"></path>
            <path d="M1271.25 615 a3.75 3.75 0 1 0 7.5 0 a3.75 3.75 0 1 0 -7.5 0zM1181.25 585 a3.75 3.75 0 1 0 7.5 0 a3.75 3.75 0 1 0 -7.5 0z" fill="black"></path>
            <path d="M1031.25 555 a3.75 3.75 0 1 0 7.5 0 a3.75 3.75 0 1 0 -7.5 0zM1091.25 525 a3.75 3.75 0 1 0 7.5 0 a3.75 3.75 0 1 0 -7.5 0z" fill="black"></path>
            <path d="M71.25 135 a3.75 3.75 0 1 0 7.5 0 a3.75 3.75 0 1 0 -7.5 0zM41.25 75 a3.75 3.75 0 1 0 7.5 0 a3.75 3.75 0 1 0 -7.5 0z" fill="black"></path>
            <path d="M881.25 375 a3.75 3.75 0 1 0 7.5 0 a3.75 3.75 0 1 0 -7.5 0zM851.25 315 a3.75 3.75 0 1 0 7.5 0 a3.75 3.75 0 1 0 -7.5 0z" fill="black"></path>
            <path d="M161.25 645 a3.75 3.75 0 1 0 7.5 0 a3.75 3.75 0 1 0 -7.5 0zM221.25 645 a3.75 3.75 0 1 0 7.5 0 a3.75 3.75 0 1 0 -7.5 0z" fill="black"></path>
            <path d="M761.25 405 a3.75 3.75 0 1 0 7.5 0 a3.75 3.75 0 1 0 -7.5 0zM701.25 435 a3.75 3.75 0 1 0 7.5 0 a3.75 3.75 0 1 0 -7.5 0z" fill="black"></path>
            <path d="M431.25 435 a3.75 3.75 0 1 0 7.5 0 a3.75 3.75 0 1 0 -7.5 0zM431.25 495 a3.75 3.75 0 1 0 7.5 0 a3.75 3.75 0 1 0 -7.5 0z" fill="black"></path>
            <path d="M161.25 135 a3.75 3.75 0 1 0 7.5 0 a3.75 3.75 0 1 0 -7.5 0zM71.25 195 a3.75 3.75 0 1 0 7.5 0 a3.75 3.75 0 1 0 -7.5 0z" fill="black"></path>
            <path d="M1271.25 555 a3.75 3.75 0 1 0 7.5 0 a3.75 3.75 0 1 0 -7.5 0zM1211.25 555 a3.75 3.75 0 1 0 7.5 0 a3.75 3.75 0 1 0 -7.5 0z" fill="black"></path>
            <path d="M911.25 135 a3.75 3.75 0 1 0 7.5 0 a3.75 3.75 0 1 0 -7.5 0zM971.25 165 a3.75 3.75 0 1 0 7.5 0 a3.75 3.75 0 1 0 -7.5 0z" fill="black"></path>
            <path d="M911.25 315 a3.75 3.75 0 1 0 7.5 0 a3.75 3.75 0 1 0 -7.5 0zM911.25 435 a3.75 3.75 0 1 0 7.5 0 a3.75 3.75 0 1 0 -7.5 0z" fill="black"></path>
            <path d="M1151.25 285 a3.75 3.75 0 1 0 7.5 0 a3.75 3.75 0 1 0 -7.5 0zM1181.25 375 a3.75 3.75 0 1 0 7.5 0 a3.75 3.75 0 1 0 -7.5 0z" fill="black"></path>
            <path d="M1271.25 75 a3.75 3.75 0 1 0 7.5 0 a3.75 3.75 0 1 0 -7.5 0zM1271.25 135 a3.75 3.75 0 1 0 7.5 0 a3.75 3.75 0 1 0 -7.5 0z" fill="black"></path>
            <path d="M1121.25 315 a3.75 3.75 0 1 0 7.5 0 a3.75 3.75 0 1 0 -7.5 0zM1121.25 255 a3.75 3.75 0 1 0 7.5 0 a3.75 3.75 0 1 0 -7.5 0z" fill="black"></path>
            <path d="M461.25 435 a3.75 3.75 0 1 0 7.5 0 a3.75 3.75 0 1 0 -7.5 0zM461.25 495 a3.75 3.75 0 1 0 7.5 0 a3.75 3.75 0 1 0 -7.5 0z" fill="black"></path>
            <path d="M101.25 645 a3.75 3.75 0 1 0 7.5 0 a3.75 3.75 0 1 0 -7.5 0zM41.25 645 a3.75 3.75 0 1 0 7.5 0 a3.75 3.75 0 1 0 -7.5 0z" fill="black"></path>
            <path d="M641.25 585 a3.75 3.75 0 1 0 7.5 0 a3.75 3.75 0 1 0 -7.5 0zM581.25 615 a3.75 3.75 0 1 0 7.5 0 a3.75 3.75 0 1 0 -7.5 0z" fill="black"></path>
            <path d="M1211.25 15 a3.75 3.75 0 1 0 7.5 0 a3.75 3.75 0 1 0 -7.5 0zM1211.25 135 a3.75 3.75 0 1 0 7.5 0 a3.75 3.75 0 1 0 -7.5 0z" fill="black"></path>
            <path d="M521.25 45 a3.75 3.75 0 1 0 7.5 0 a3.75 3.75 0 1 0 -7.5 0zM431.25 45 a3.75 3.75 0 1 0 7.5 0 a3.75 3.75 0 1 0 -7.5 0z" fill="black"></path>
        </mask>
    </defs>
</svg>