<svg width="1142" height="359" viewBox="0 0 1142 359" fill="none" xmlns="http://www.w3.org/2000/svg">
<path d="M1 358.5C109 351 220 177.5 296 145C372 112.5 379 172.5 455 197.5C531 222.5 624 250 671 197.5C718 145 742.5 72.9998 795.5 70.9998C848.5 68.9998 877.5 208.5 924.5 197.5C962.1 188.7 1024.5 62.8333 1051 1" stroke="url(#paint0_linear_165_239)"/>
<path d="M1 114.5C52.5 122 205 253 298 256.5C391 260 548.419 108.3 633 78.4999C729.5 44.4998 956.5 29.5001 1041.5 99.5C1089.1 132.7 1127.67 45.8333 1141 1" stroke="url(#paint1_linear_165_239)"/>
<path d="M1 346.881C105.083 339.917 213.226 176.327 288.283 147C363.339 117.673 372.929 176.417 447.524 200.31C524.333 224.286 620.401 243.252 669.19 191.833C716.25 141.024 743.435 71.8689 797.693 69.9998C851.952 68.1308 883.286 201.643 930.071 192.833C968.148 186.033 1029.41 62.0238 1055.29 1" stroke="url(#paint2_linear_165_239)"/>
<path d="M1 335.262C101.167 328.833 206.452 175.155 280.565 149C354.679 122.845 366.857 180.333 440.048 203.119C517.667 226.071 616.802 236.505 667.381 186.167C714.5 137.048 744.369 70.7379 799.887 68.9998C855.405 67.2617 889.071 194.786 935.643 188.167C974.195 183.367 1034.33 61.2142 1059.57 1" stroke="url(#paint3_linear_165_239)"/>
<path d="M1 323.643C97.25 317.75 199.679 173.982 272.848 151C346.018 128.018 360.786 184.25 432.571 205.929C511 227.857 613.203 229.757 665.571 180.5C712.75 133.071 745.304 69.607 802.08 67.9998C858.857 66.3927 894.857 187.929 941.214 183.5C980.243 180.7 1039.24 60.4047 1063.86 1" stroke="url(#paint4_linear_165_239)"/>
<path d="M1 312.024C93.3333 306.667 192.905 172.81 265.131 153C337.357 133.191 354.714 188.167 425.095 208.738C504.333 229.643 609.604 223.01 663.762 174.833C711 129.095 746.238 68.476 804.274 66.9998C862.31 65.5237 900.643 181.072 946.786 178.833C986.29 178.033 1044.15 59.5952 1068.14 1" stroke="url(#paint5_linear_165_239)"/>
<path d="M1 300.405C89.4167 295.583 186.131 171.637 257.414 155C328.696 138.363 348.643 192.083 417.619 211.548C497.667 231.429 606.005 216.262 661.952 169.167C709.25 125.119 747.173 67.3451 806.467 65.9999C865.762 64.6546 906.429 174.214 952.357 174.167C992.338 175.367 1049.06 58.7857 1072.43 1" stroke="url(#paint6_linear_165_239)"/>
<path d="M1 288.786C85.5 284.5 179.357 170.464 249.696 157C320.036 143.536 342.571 196 410.143 214.357C491 233.214 602.405 209.514 660.143 163.5C707.5 121.143 748.107 66.2141 808.661 64.9999C869.214 63.7856 912.214 167.357 957.929 169.5C998.386 172.7 1053.98 57.9761 1076.71 1" stroke="url(#paint7_linear_165_239)"/>
<path d="M1 277.167C81.5833 273.417 172.583 169.292 241.979 159C311.375 148.708 336.5 199.917 402.667 217.167C484.333 235 598.806 202.767 658.333 157.833C705.75 117.167 749.042 65.0832 810.854 63.9999C872.667 62.9165 918 160.5 963.5 164.833C1004.43 170.033 1058.89 57.1666 1081 1" stroke="url(#paint8_linear_165_239)"/>
<path d="M1 265.548C77.6667 262.333 165.81 168.119 234.262 161C302.714 153.881 330.429 203.833 395.19 219.976C477.667 236.786 595.207 196.019 656.524 152.167C704 113.19 749.976 63.9522 813.048 62.9999C876.119 62.0475 923.786 153.643 969.071 160.167C1010.48 167.367 1063.8 56.3571 1085.29 1" stroke="url(#paint9_linear_165_239)"/>
<path d="M1 253.929C73.75 251.25 159.036 166.946 226.545 163C294.054 159.054 324.357 207.75 387.714 222.786C471 238.571 591.608 189.272 654.714 146.5C702.25 109.214 750.911 62.8213 815.241 61.9999C879.571 61.1785 929.571 146.786 974.643 155.5C1016.53 164.7 1068.71 55.5476 1089.57 1" stroke="url(#paint10_linear_165_239)"/>
<path d="M1 242.31C69.8333 240.167 152.262 165.774 218.827 165C285.393 164.226 318.286 211.667 380.238 225.595C464.333 240.357 588.009 182.524 652.905 140.833C700.5 105.238 751.845 61.6903 817.435 60.9999C883.024 60.3094 935.357 139.929 980.214 150.833C1022.58 162.033 1073.63 54.7381 1093.86 1" stroke="url(#paint11_linear_165_239)"/>
<path d="M1 230.69C65.9167 229.083 145.488 164.601 211.11 167C276.732 169.399 312.214 215.583 372.762 228.405C457.667 242.143 584.41 175.776 651.095 135.167C698.75 101.262 752.78 60.5594 819.628 59.9999C886.476 59.4404 941.143 133.072 985.786 146.167C1028.62 159.367 1078.54 53.9285 1098.14 1" stroke="url(#paint12_linear_165_239)"/>
<path d="M1 219.071C62 218 138.714 163.429 203.393 169C268.071 174.571 306.143 219.5 365.286 231.214C451 243.929 580.811 169.029 649.286 129.5C697 97.2856 753.714 59.4284 821.821 58.9999C889.929 58.5713 946.929 126.214 991.357 141.5C1034.67 156.7 1083.45 53.119 1102.43 1" stroke="url(#paint13_linear_165_239)"/>
<path d="M1 207.452C58.0833 206.917 131.94 162.256 195.676 171C259.411 179.744 300.071 223.417 357.81 234.024C444.333 245.714 577.212 162.281 647.476 123.833C695.25 93.3094 754.649 58.2975 824.015 57.9999C893.381 57.7023 952.714 119.357 996.929 136.833C1040.72 154.033 1088.37 52.3095 1106.71 1" stroke="url(#paint14_linear_165_239)"/>
<path d="M1 195.833C54.1667 195.833 125.167 161.083 187.958 173C250.75 184.917 294 227.333 350.333 236.833C437.667 247.5 573.613 155.534 645.667 118.167C693.5 89.3332 755.583 57.1665 826.208 56.9999C896.833 56.8333 958.5 112.5 1002.5 132.167C1046.77 151.367 1093.28 51.5 1111 1" stroke="url(#paint15_linear_165_239)"/>
<path d="M1 184.214C50.25 184.75 118.393 159.911 180.241 175C242.089 190.089 287.929 231.25 342.857 239.643C431 249.286 570.014 148.786 643.857 112.5C691.75 85.357 756.518 56.0356 828.402 55.9999C900.286 55.9642 964.286 105.643 1008.07 127.5C1052.81 148.7 1098.19 50.6905 1115.29 1" stroke="url(#paint16_linear_165_239)"/>
<path d="M1 172.595C46.3333 173.667 111.619 158.738 172.524 177C233.429 195.262 281.857 235.167 335.381 242.452C424.333 251.071 566.415 142.038 642.048 106.833C690 81.3808 757.452 54.9046 830.595 54.9999C903.738 55.0952 970.071 98.7858 1013.64 122.833C1058.86 146.033 1103.1 49.8809 1119.57 1" stroke="url(#paint17_linear_165_239)"/>
<path d="M1 160.976C42.4167 162.583 104.845 157.565 164.807 179C224.768 200.435 275.786 239.083 327.905 245.262C417.667 252.857 562.815 135.291 640.238 101.167C688.25 77.4046 758.387 53.7737 832.789 53.9999C907.19 54.2261 975.857 91.9286 1019.21 118.167C1064.91 143.367 1108.02 49.0714 1123.86 1" stroke="url(#paint18_linear_165_239)"/>
<path d="M1 149.357C38.5 151.5 98.0714 156.393 157.089 181C216.107 205.607 269.714 243 320.429 248.071C411 254.643 559.216 128.543 638.429 95.4999C686.5 73.4284 759.321 52.6427 834.982 52.9999C910.643 53.3571 981.643 85.0715 1024.79 113.5C1070.96 140.7 1112.93 48.2619 1128.14 1" stroke="url(#paint19_linear_165_239)"/>
<path d="M1 137.738C34.5833 140.417 91.2976 155.22 149.372 183C207.446 210.78 263.643 246.917 312.952 250.881C404.333 256.429 555.617 121.796 636.619 89.8332C684.75 69.4522 760.256 51.5118 837.176 51.9999C914.095 52.4881 987.429 78.2143 1030.36 108.833C1077 138.033 1117.84 47.4524 1132.43 1" stroke="url(#paint20_linear_165_239)"/>
<path d="M1 126.119C30.6667 129.333 84.5238 154.048 141.655 185C198.786 215.952 257.571 250.833 305.476 253.69C397.667 258.214 552.018 115.048 634.81 84.1665C683 65.476 761.19 50.3808 839.369 50.9999C917.548 51.619 993.214 71.3572 1035.93 104.167C1083.05 135.367 1122.75 46.6429 1136.71 1" stroke="url(#paint21_linear_165_239)"/>
<defs>
<linearGradient id="paint0_linear_165_239" x1="1" y1="179.75" x2="1051" y2="179.75" gradientUnits="userSpaceOnUse">
<stop stop-color="#2B7FFF" stop-opacity="0.3"/>
<stop offset="1" stop-color="#2B7FFF" stop-opacity="0.1"/>
</linearGradient>
<linearGradient id="paint1_linear_165_239" x1="1" y1="128.78" x2="1141" y2="128.78" gradientUnits="userSpaceOnUse">
<stop stop-color="#2B7FFF" stop-opacity="0.3"/>
<stop offset="1" stop-color="#2B7FFF" stop-opacity="0.1"/>
</linearGradient>
<linearGradient id="paint2_linear_165_239" x1="1" y1="173.94" x2="1055.29" y2="173.94" gradientUnits="userSpaceOnUse">
<stop stop-color="#2B7FFF" stop-opacity="0.3"/>
<stop offset="1" stop-color="#2B7FFF" stop-opacity="0.1"/>
</linearGradient>
<linearGradient id="paint3_linear_165_239" x1="1" y1="168.131" x2="1059.57" y2="168.131" gradientUnits="userSpaceOnUse">
<stop stop-color="#2B7FFF" stop-opacity="0.3"/>
<stop offset="1" stop-color="#2B7FFF" stop-opacity="0.1"/>
</linearGradient>
<linearGradient id="paint4_linear_165_239" x1="1" y1="162.321" x2="1063.86" y2="162.321" gradientUnits="userSpaceOnUse">
<stop stop-color="#2B7FFF" stop-opacity="0.3"/>
<stop offset="1" stop-color="#2B7FFF" stop-opacity="0.1"/>
</linearGradient>
<linearGradient id="paint5_linear_165_239" x1="1" y1="156.512" x2="1068.14" y2="156.512" gradientUnits="userSpaceOnUse">
<stop stop-color="#2B7FFF" stop-opacity="0.3"/>
<stop offset="1" stop-color="#2B7FFF" stop-opacity="0.1"/>
</linearGradient>
<linearGradient id="paint6_linear_165_239" x1="1" y1="150.702" x2="1072.43" y2="150.702" gradientUnits="userSpaceOnUse">
<stop stop-color="#2B7FFF" stop-opacity="0.3"/>
<stop offset="1" stop-color="#2B7FFF" stop-opacity="0.1"/>
</linearGradient>
<linearGradient id="paint7_linear_165_239" x1="1" y1="144.893" x2="1076.71" y2="144.893" gradientUnits="userSpaceOnUse">
<stop stop-color="#2B7FFF" stop-opacity="0.3"/>
<stop offset="1" stop-color="#2B7FFF" stop-opacity="0.1"/>
</linearGradient>
<linearGradient id="paint8_linear_165_239" x1="1" y1="139.083" x2="1081" y2="139.083" gradientUnits="userSpaceOnUse">
<stop stop-color="#2B7FFF" stop-opacity="0.3"/>
<stop offset="1" stop-color="#2B7FFF" stop-opacity="0.1"/>
</linearGradient>
<linearGradient id="paint9_linear_165_239" x1="1" y1="133.274" x2="1085.29" y2="133.274" gradientUnits="userSpaceOnUse">
<stop stop-color="#2B7FFF" stop-opacity="0.3"/>
<stop offset="1" stop-color="#2B7FFF" stop-opacity="0.1"/>
</linearGradient>
<linearGradient id="paint10_linear_165_239" x1="1" y1="127.464" x2="1089.57" y2="127.464" gradientUnits="userSpaceOnUse">
<stop stop-color="#2B7FFF" stop-opacity="0.3"/>
<stop offset="1" stop-color="#2B7FFF" stop-opacity="0.1"/>
</linearGradient>
<linearGradient id="paint11_linear_165_239" x1="1" y1="121.655" x2="1093.86" y2="121.655" gradientUnits="userSpaceOnUse">
<stop stop-color="#2B7FFF" stop-opacity="0.3"/>
<stop offset="1" stop-color="#2B7FFF" stop-opacity="0.1"/>
</linearGradient>
<linearGradient id="paint12_linear_165_239" x1="1" y1="115.845" x2="1098.14" y2="115.845" gradientUnits="userSpaceOnUse">
<stop stop-color="#2B7FFF" stop-opacity="0.3"/>
<stop offset="1" stop-color="#2B7FFF" stop-opacity="0.1"/>
</linearGradient>
<linearGradient id="paint13_linear_165_239" x1="1" y1="116.825" x2="1102.43" y2="116.825" gradientUnits="userSpaceOnUse">
<stop stop-color="#2B7FFF" stop-opacity="0.3"/>
<stop offset="1" stop-color="#2B7FFF" stop-opacity="0.1"/>
</linearGradient>
<linearGradient id="paint14_linear_165_239" x1="1" y1="118.068" x2="1106.71" y2="118.068" gradientUnits="userSpaceOnUse">
<stop stop-color="#2B7FFF" stop-opacity="0.3"/>
<stop offset="1" stop-color="#2B7FFF" stop-opacity="0.1"/>
</linearGradient>
<linearGradient id="paint15_linear_165_239" x1="1" y1="119.344" x2="1111" y2="119.344" gradientUnits="userSpaceOnUse">
<stop stop-color="#2B7FFF" stop-opacity="0.3"/>
<stop offset="1" stop-color="#2B7FFF" stop-opacity="0.1"/>
</linearGradient>
<linearGradient id="paint16_linear_165_239" x1="1" y1="120.646" x2="1115.29" y2="120.646" gradientUnits="userSpaceOnUse">
<stop stop-color="#2B7FFF" stop-opacity="0.3"/>
<stop offset="1" stop-color="#2B7FFF" stop-opacity="0.1"/>
</linearGradient>
<linearGradient id="paint17_linear_165_239" x1="1" y1="121.968" x2="1119.57" y2="121.968" gradientUnits="userSpaceOnUse">
<stop stop-color="#2B7FFF" stop-opacity="0.3"/>
<stop offset="1" stop-color="#2B7FFF" stop-opacity="0.1"/>
</linearGradient>
<linearGradient id="paint18_linear_165_239" x1="1" y1="123.307" x2="1123.86" y2="123.307" gradientUnits="userSpaceOnUse">
<stop stop-color="#2B7FFF" stop-opacity="0.3"/>
<stop offset="1" stop-color="#2B7FFF" stop-opacity="0.1"/>
</linearGradient>
<linearGradient id="paint19_linear_165_239" x1="1" y1="124.66" x2="1128.14" y2="124.66" gradientUnits="userSpaceOnUse">
<stop stop-color="#2B7FFF" stop-opacity="0.3"/>
<stop offset="1" stop-color="#2B7FFF" stop-opacity="0.1"/>
</linearGradient>
<linearGradient id="paint20_linear_165_239" x1="1" y1="126.024" x2="1132.43" y2="126.024" gradientUnits="userSpaceOnUse">
<stop stop-color="#2B7FFF" stop-opacity="0.3"/>
<stop offset="1" stop-color="#2B7FFF" stop-opacity="0.1"/>
</linearGradient>
<linearGradient id="paint21_linear_165_239" x1="1" y1="127.398" x2="1136.71" y2="127.398" gradientUnits="userSpaceOnUse">
<stop stop-color="#2B7FFF" stop-opacity="0.3"/>
<stop offset="1" stop-color="#2B7FFF" stop-opacity="0.1"/>
</linearGradient>
</defs>
</svg>
