<svg width="100%" height="100%" viewBox="0 0 2000 2000"
    xmlns="http://www.w3.org/2000/svg">
    <g transform="scale(1) rotate(0) skewX(0) skewY(0)" style="transform-origin: center center">
        <circle cx="100" cy="100" r="4" stroke="none" stroke-width="0" fill="#2B7FFF" fill-opacity="0.4" />
        <circle cx="300" cy="100" r="4" stroke="none" stroke-width="0" fill="#2B7FFF" fill-opacity="0.4" />
        <circle cx="500" cy="100" r="4" stroke="none" stroke-width="0" fill="#2B7FFF" fill-opacity="0.4" />
        <circle cx="700" cy="100" r="4" stroke="none" stroke-width="0" fill="#2B7FFF" fill-opacity="0.4" />
        <circle cx="900" cy="100" r="4" stroke="none" stroke-width="0" fill="#2B7FFF" fill-opacity="0.4" />
        <circle cx="1100" cy="100" r="4" stroke="none" stroke-width="0" fill="#2B7FFF" fill-opacity="0.4" />
        <circle cx="1300" cy="100" r="4" stroke="none" stroke-width="0" fill="#2B7FFF" fill-opacity="0.4" />
        <circle cx="1500" cy="100" r="4" stroke="none" stroke-width="0" fill="#2B7FFF" fill-opacity="0.4" />
        <circle cx="1700" cy="100" r="4" stroke="none" stroke-width="0" fill="#2B7FFF" fill-opacity="0.4" />
        <circle cx="1900" cy="100" r="4" stroke="none" stroke-width="0" fill="#2B7FFF" fill-opacity="0.4" />
        <circle cx="100" cy="300" r="4" stroke="none" stroke-width="0" fill="#2B7FFF" fill-opacity="0.4" />
        <circle cx="300" cy="300" r="4" stroke="none" stroke-width="0" fill="#2B7FFF" fill-opacity="0.4" />
        <circle cx="500" cy="300" r="4" stroke="none" stroke-width="0" fill="#2B7FFF" fill-opacity="0.4" />
        <circle cx="700" cy="300" r="4" stroke="none" stroke-width="0" fill="#2B7FFF" fill-opacity="0.4" />
        <circle cx="900" cy="300" r="4" stroke="none" stroke-width="0" fill="#2B7FFF" fill-opacity="0.4" />
        <circle cx="1100" cy="300" r="4" stroke="none" stroke-width="0" fill="#2B7FFF" fill-opacity="0.4" />
        <circle cx="1300" cy="300" r="4" stroke="none" stroke-width="0" fill="#2B7FFF" fill-opacity="0.4" />
        <circle cx="1500" cy="300" r="4" stroke="none" stroke-width="0" fill="#2B7FFF" fill-opacity="0.4" />
        <circle cx="1700" cy="300" r="4" stroke="none" stroke-width="0" fill="#2B7FFF" fill-opacity="0.4" />
        <circle cx="1900" cy="300" r="4" stroke="none" stroke-width="0" fill="#2B7FFF" fill-opacity="0.4" />
        <circle cx="100" cy="500" r="4" stroke="none" stroke-width="0" fill="#2B7FFF" fill-opacity="0.4" />
        <circle cx="300" cy="500" r="4" stroke="none" stroke-width="0" fill="#2B7FFF" fill-opacity="0.4" />
        <circle cx="500" cy="500" r="4" stroke="none" stroke-width="0" fill="#2B7FFF" fill-opacity="0.4" />
        <circle cx="700" cy="500" r="4" stroke="none" stroke-width="0" fill="#2B7FFF" fill-opacity="0.4" />
        <circle cx="900" cy="500" r="4" stroke="none" stroke-width="0" fill="#2B7FFF" fill-opacity="0.4" />
        <circle cx="1100" cy="500" r="4" stroke="none" stroke-width="0" fill="#2B7FFF" fill-opacity="0.4" />
        <circle cx="1300" cy="500" r="4" stroke="none" stroke-width="0" fill="#2B7FFF" fill-opacity="0.4" />
        <circle cx="1500" cy="500" r="4" stroke="none" stroke-width="0" fill="#2B7FFF" fill-opacity="0.4" />
        <circle cx="1700" cy="500" r="4" stroke="none" stroke-width="0" fill="#2B7FFF" fill-opacity="0.4" />
        <circle cx="1900" cy="500" r="4" stroke="none" stroke-width="0" fill="#2B7FFF" fill-opacity="0.4" />
        <circle cx="100" cy="700" r="4" stroke="none" stroke-width="0" fill="#2B7FFF" fill-opacity="0.4" />
        <circle cx="300" cy="700" r="4" stroke="none" stroke-width="0" fill="#2B7FFF" fill-opacity="0.4" />
        <circle cx="500" cy="700" r="4" stroke="none" stroke-width="0" fill="#2B7FFF" fill-opacity="0.4" />
        <circle cx="700" cy="700" r="4" stroke="none" stroke-width="0" fill="#2B7FFF" fill-opacity="0.4" />
        <circle cx="900" cy="700" r="4" stroke="none" stroke-width="0" fill="#2B7FFF" fill-opacity="0.4" />
        <circle cx="1100" cy="700" r="4" stroke="none" stroke-width="0" fill="#2B7FFF" fill-opacity="0.4" />
        <circle cx="1300" cy="700" r="4" stroke="none" stroke-width="0" fill="#2B7FFF" fill-opacity="0.4" />
        <circle cx="1500" cy="700" r="4" stroke="none" stroke-width="0" fill="#2B7FFF" fill-opacity="0.4" />
        <circle cx="1700" cy="700" r="4" stroke="none" stroke-width="0" fill="#2B7FFF" fill-opacity="0.4" />
        <circle cx="1900" cy="700" r="4" stroke="none" stroke-width="0" fill="#2B7FFF" fill-opacity="0.4" />
        <circle cx="100" cy="900" r="4" stroke="none" stroke-width="0" fill="#2B7FFF" fill-opacity="0.4" />
        <circle cx="300" cy="900" r="4" stroke="none" stroke-width="0" fill="#2B7FFF" fill-opacity="0.4" />
        <circle cx="500" cy="900" r="4" stroke="none" stroke-width="0" fill="#2B7FFF" fill-opacity="0.4" />
        <circle cx="700" cy="900" r="4" stroke="none" stroke-width="0" fill="#2B7FFF" fill-opacity="0.4" />
        <circle cx="900" cy="900" r="4" stroke="none" stroke-width="0" fill="#2B7FFF" fill-opacity="0.4" />
        <circle cx="1100" cy="900" r="4" stroke="none" stroke-width="0" fill="#2B7FFF" fill-opacity="0.4" />
        <circle cx="1300" cy="900" r="4" stroke="none" stroke-width="0" fill="#2B7FFF" fill-opacity="0.4" />
        <circle cx="1500" cy="900" r="4" stroke="none" stroke-width="0" fill="#2B7FFF" fill-opacity="0.4" />
        <circle cx="1700" cy="900" r="4" stroke="none" stroke-width="0" fill="#2B7FFF" fill-opacity="0.4" />
        <circle cx="1900" cy="900" r="4" stroke="none" stroke-width="0" fill="#2B7FFF" fill-opacity="0.4" />
        <circle cx="100" cy="1100" r="4" stroke="none" stroke-width="0" fill="#2B7FFF" fill-opacity="0.4" />
        <circle cx="300" cy="1100" r="4" stroke="none" stroke-width="0" fill="#2B7FFF" fill-opacity="0.4" />
        <circle cx="500" cy="1100" r="4" stroke="none" stroke-width="0" fill="#2B7FFF" fill-opacity="0.4" />
        <circle cx="700" cy="1100" r="4" stroke="none" stroke-width="0" fill="#2B7FFF" fill-opacity="0.4" />
        <circle cx="900" cy="1100" r="4" stroke="none" stroke-width="0" fill="#2B7FFF" fill-opacity="0.4" />
        <circle cx="1100" cy="1100" r="4" stroke="none" stroke-width="0" fill="#2B7FFF" fill-opacity="0.4" />
        <circle cx="1300" cy="1100" r="4" stroke="none" stroke-width="0" fill="#2B7FFF" fill-opacity="0.4" />
        <circle cx="1500" cy="1100" r="4" stroke="none" stroke-width="0" fill="#2B7FFF" fill-opacity="0.4" />
        <circle cx="1700" cy="1100" r="4" stroke="none" stroke-width="0" fill="#2B7FFF" fill-opacity="0.4" />
        <circle cx="1900" cy="1100" r="4" stroke="none" stroke-width="0" fill="#2B7FFF" fill-opacity="0.4" />
        <circle cx="100" cy="1300" r="4" stroke="none" stroke-width="0" fill="#2B7FFF" fill-opacity="0.4" />
        <circle cx="300" cy="1300" r="4" stroke="none" stroke-width="0" fill="#2B7FFF" fill-opacity="0.4" />
        <circle cx="500" cy="1300" r="4" stroke="none" stroke-width="0" fill="#2B7FFF" fill-opacity="0.4" />
        <circle cx="700" cy="1300" r="4" stroke="none" stroke-width="0" fill="#2B7FFF" fill-opacity="0.4" />
        <circle cx="900" cy="1300" r="4" stroke="none" stroke-width="0" fill="#2B7FFF" fill-opacity="0.4" />
        <circle cx="1100" cy="1300" r="4" stroke="none" stroke-width="0" fill="#2B7FFF" fill-opacity="0.4" />
        <circle cx="1300" cy="1300" r="4" stroke="none" stroke-width="0" fill="#2B7FFF" fill-opacity="0.4" />
        <circle cx="1500" cy="1300" r="4" stroke="none" stroke-width="0" fill="#2B7FFF" fill-opacity="0.4" />
        <circle cx="1700" cy="1300" r="4" stroke="none" stroke-width="0" fill="#2B7FFF" fill-opacity="0.4" />
        <circle cx="1900" cy="1300" r="4" stroke="none" stroke-width="0" fill="#2B7FFF" fill-opacity="0.4" />
        <circle cx="100" cy="1500" r="4" stroke="none" stroke-width="0" fill="#2B7FFF" fill-opacity="0.4" />
        <circle cx="300" cy="1500" r="4" stroke="none" stroke-width="0" fill="#2B7FFF" fill-opacity="0.4" />
        <circle cx="500" cy="1500" r="4" stroke="none" stroke-width="0" fill="#2B7FFF" fill-opacity="0.4" />
        <circle cx="700" cy="1500" r="4" stroke="none" stroke-width="0" fill="#2B7FFF" fill-opacity="0.4" />
        <circle cx="900" cy="1500" r="4" stroke="none" stroke-width="0" fill="#2B7FFF" fill-opacity="0.4" />
        <circle cx="1100" cy="1500" r="4" stroke="none" stroke-width="0" fill="#2B7FFF" fill-opacity="0.4" />
        <circle cx="1300" cy="1500" r="4" stroke="none" stroke-width="0" fill="#2B7FFF" fill-opacity="0.4" />
        <circle cx="1500" cy="1500" r="4" stroke="none" stroke-width="0" fill="#2B7FFF" fill-opacity="0.4" />
        <circle cx="1700" cy="1500" r="4" stroke="none" stroke-width="0" fill="#2B7FFF" fill-opacity="0.4" />
        <circle cx="1900" cy="1500" r="4" stroke="none" stroke-width="0" fill="#2B7FFF" fill-opacity="0.4" />
        <circle cx="100" cy="1700" r="4" stroke="none" stroke-width="0" fill="#2B7FFF" fill-opacity="0.4" />
        <circle cx="300" cy="1700" r="4" stroke="none" stroke-width="0" fill="#2B7FFF" fill-opacity="0.4" />
        <circle cx="500" cy="1700" r="4" stroke="none" stroke-width="0" fill="#2B7FFF" fill-opacity="0.4" />
        <circle cx="700" cy="1700" r="4" stroke="none" stroke-width="0" fill="#2B7FFF" fill-opacity="0.4" />
        <circle cx="900" cy="1700" r="4" stroke="none" stroke-width="0" fill="#2B7FFF" fill-opacity="0.4" />
        <circle cx="1100" cy="1700" r="4" stroke="none" stroke-width="0" fill="#2B7FFF" fill-opacity="0.4" />
        <circle cx="1300" cy="1700" r="4" stroke="none" stroke-width="0" fill="#2B7FFF" fill-opacity="0.4" />
        <circle cx="1500" cy="1700" r="4" stroke="none" stroke-width="0" fill="#2B7FFF" fill-opacity="0.4" />
        <circle cx="1700" cy="1700" r="4" stroke="none" stroke-width="0" fill="#2B7FFF" fill-opacity="0.4" />
        <circle cx="1900" cy="1700" r="4" stroke="none" stroke-width="0" fill="#2B7FFF" fill-opacity="0.4" />
        <circle cx="100" cy="1900" r="4" stroke="none" stroke-width="0" fill="#2B7FFF" fill-opacity="0.4" />
        <circle cx="300" cy="1900" r="4" stroke="none" stroke-width="0" fill="#2B7FFF" fill-opacity="0.4" />
        <circle cx="500" cy="1900" r="4" stroke="none" stroke-width="0" fill="#2B7FFF" fill-opacity="0.4" />
        <circle cx="700" cy="1900" r="4" stroke="none" stroke-width="0" fill="#2B7FFF" fill-opacity="0.4" />
        <circle cx="900" cy="1900" r="4" stroke="none" stroke-width="0" fill="#2B7FFF" fill-opacity="0.4" />
        <circle cx="1100" cy="1900" r="4" stroke="none" stroke-width="0" fill="#2B7FFF" fill-opacity="0.4" />
        <circle cx="1300" cy="1900" r="4" stroke="none" stroke-width="0" fill="#2B7FFF" fill-opacity="0.4" />
        <circle cx="1500" cy="1900" r="4" stroke="none" stroke-width="0" fill="#2B7FFF" fill-opacity="0.4" />
        <circle cx="1700" cy="1900" r="4" stroke="none" stroke-width="0" fill="#2B7FFF" fill-opacity="0.4" />
        <circle cx="1900" cy="1900" r="4" stroke="none" stroke-width="0" fill="#2B7FFF" fill-opacity="0.4" />
    </g>
</svg>