<svg width="932" height="240" viewBox="0 0 932 240" fill="none" xmlns="http://www.w3.org/2000/svg">
<path d="M108.2 14.4V225.6H101.8V14.4H108.2Z" fill="#00D3F3"/>
<path d="M96.9997 232C96.9997 227.582 100.582 224 105 224C109.418 224 113 227.582 113 232C113 236.418 109.418 240 105 240C100.582 240 96.9997 236.418 96.9997 232ZM109 232C109 229.791 107.209 228 105 228C102.791 228 101 229.791 101 232C101 234.209 102.791 236 105 236C107.209 236 109 234.209 109 232Z" fill="#00D3F3"/>
<path d="M96.9997 8C96.9997 3.58172 100.582 0 105 0C109.418 0 113 3.58172 113 8C113 12.4183 109.418 16 105 16C100.582 16 96.9997 12.4183 96.9997 8ZM109 8C109 5.79086 107.209 4 105 4C102.791 4 101 5.79086 101 8C101 10.2091 102.791 12 105 12C107.209 12 109 10.2091 109 8Z" fill="#00D3F3"/>
<path d="M106.2 57.9221L81.9508 43.9221L79.5507 48.079L103.8 62.079L106.2 57.9221Z" fill="#00D3F3"/>
<path d="M80.7511 48.4C79.4255 48.4 78.351 47.3255 78.351 46C78.351 44.6745 79.4255 43.6 80.7511 43.6C82.0766 43.6 83.1511 44.6745 83.1511 46C83.1511 47.3255 82.0766 48.4 80.7511 48.4Z" fill="#00D3F3"/>
<path d="M83.1512 18.0002L83.1511 46H78.351L78.3511 18.0002H83.1512Z" fill="#00D3F3"/>
<path d="M80.7507 22C82.9599 22 84.7508 20.2092 84.7508 18C84.7508 15.7909 82.9599 14 80.7507 14C78.5414 14 76.7505 15.7909 76.7505 18C76.7505 20.2092 78.5414 22 80.7507 22Z" fill="#00D3F3"/>
<path d="M126.85 18.0001V46.0001H131.65V18.0001H126.85Z" fill="#00D3F3"/>
<path d="M130.45 48.079L106.2 62.079L103.8 57.922L128.05 43.922L130.45 48.079Z" fill="#00D3F3"/>
<path d="M129.249 48.4C127.923 48.4 126.849 47.3255 126.849 46C126.849 44.6745 127.923 43.6 129.249 43.6C130.574 43.6 131.649 44.6745 131.649 46C131.649 47.3255 130.574 48.4 129.249 48.4Z" fill="#00D3F3"/>
<path d="M129.25 22.0001C127.041 22.0001 125.25 20.2093 125.25 18.0001C125.25 15.791 127.041 14.0001 129.25 14.0001C131.459 14.0001 133.25 15.791 133.25 18.0001C133.25 20.2093 131.459 22.0001 129.25 22.0001Z" fill="#00D3F3"/>
<path d="M103.799 182.078L128.049 196.078L130.449 191.921L106.199 177.921L103.799 182.078Z" fill="#00D3F3"/>
<path d="M129.249 191.6C130.574 191.6 131.649 192.675 131.649 194C131.649 195.326 130.574 196.4 129.249 196.4C127.923 196.4 126.848 195.326 126.848 194C126.848 192.675 127.923 191.6 129.249 191.6Z" fill="#00D3F3"/>
<path d="M126.848 222L126.848 194H131.649L131.649 222H126.848Z" fill="#00D3F3"/>
<path d="M129.249 218C127.04 218 125.249 219.791 125.249 222C125.249 224.209 127.04 226 129.249 226C131.458 226 133.249 224.209 133.249 222C133.249 219.791 131.458 218 129.249 218Z" fill="#00D3F3"/>
<path d="M83.1496 222V194H78.3494V222H83.1496Z" fill="#00D3F3"/>
<path d="M79.5498 191.921L103.799 177.921L106.2 182.078L81.9499 196.078L79.5498 191.921Z" fill="#00D3F3"/>
<path d="M80.7507 191.6C82.0762 191.6 83.1507 192.675 83.1507 194C83.1507 195.326 82.0762 196.4 80.7507 196.4C79.4251 196.4 78.3506 195.326 78.3506 194C78.3506 192.675 79.4251 191.6 80.7507 191.6Z" fill="#00D3F3"/>
<path d="M80.7495 218C82.9587 218 84.7496 219.791 84.7496 222C84.7496 224.209 82.9587 226 80.7495 226C78.5403 226 76.7493 224.209 76.7493 222C76.7493 219.791 78.5403 218 80.7495 218Z" fill="#00D3F3"/>
<path d="M198.056 69.9714L15.1444 175.571L11.9443 170.029L194.856 64.4289L198.056 69.9714Z" fill="#00D3F3"/>
<path d="M4.00148 169.072C7.82796 166.863 12.7208 168.174 14.9301 172C17.1393 175.826 15.8282 180.719 12.0018 182.928C8.17527 185.137 3.28238 183.826 1.07317 180C-1.13605 176.174 0.174995 171.281 4.00148 169.072ZM10.0017 179.464C11.9149 178.36 12.5704 175.913 11.4658 174C10.3612 172.087 7.91477 171.431 6.00153 172.536C4.08829 173.641 3.43277 176.087 4.53738 178C5.64199 179.913 8.08844 180.569 10.0017 179.464Z" fill="#00D3F3"/>
<path d="M197.998 57.072C201.825 54.8628 206.718 56.1738 208.927 60.0002C211.136 63.8265 209.825 68.7192 205.999 70.9284C202.172 73.1375 197.279 71.8265 195.07 68.0002C192.861 64.1738 194.172 59.2811 197.998 57.072ZM203.998 67.4643C205.912 66.3597 206.567 63.9133 205.463 62.0002C204.358 60.087 201.912 59.4315 199.998 60.5361C198.085 61.6406 197.43 64.087 198.534 66.0002C199.639 67.9133 202.085 68.5688 203.998 67.4643Z" fill="#00D3F3"/>
<path d="M159.363 90.0008V62.0008H154.563V90.0008H159.363Z" fill="#00D3F3"/>
<path d="M154.885 63.2007C154.222 62.0528 154.616 60.585 155.764 59.9223C156.912 59.2595 158.38 59.6528 159.042 60.8007C159.705 61.9486 159.312 63.4164 158.164 64.0792C157.016 64.7419 155.548 64.3486 154.885 63.2007Z" fill="#00D3F3"/>
<path d="M182.413 50.0794L158.164 64.0792L155.764 59.9223L180.013 45.9224L182.413 50.0794Z" fill="#00D3F3"/>
<path d="M177.749 50.0004C178.853 51.9136 181.3 52.5691 183.213 51.4645C185.126 50.3599 185.782 47.9136 184.677 46.0004C183.573 44.0872 181.126 43.4317 179.213 44.5363C177.3 45.6409 176.644 48.0872 177.749 50.0004Z" fill="#00D3F3"/>
<path d="M204.263 87.9222L180.013 101.922L182.413 106.079L206.663 92.0791L204.263 87.9222Z" fill="#00D3F3"/>
<path d="M180.013 106.079L155.763 92.079L158.163 87.922L182.413 101.922L180.013 106.079Z" fill="#00D3F3"/>
<path d="M179.134 105.2C178.471 104.052 178.865 102.584 180.013 101.921C181.161 101.258 182.628 101.652 183.291 102.8C183.954 103.947 183.561 105.415 182.413 106.078C181.265 106.741 179.797 106.347 179.134 105.2Z" fill="#00D3F3"/>
<path d="M201.998 92.0007C200.894 90.0875 201.549 87.6411 203.463 86.5366C205.376 85.432 207.822 86.0875 208.927 88.0007C210.032 89.9138 209.376 92.3602 207.463 93.4648C205.55 94.5693 203.103 93.9138 201.998 92.0007Z" fill="#00D3F3"/>
<path d="M50.6365 149.999V177.999H55.4367V149.999H50.6365Z" fill="#00D3F3"/>
<path d="M55.1145 176.799C55.7773 177.947 55.384 179.415 54.236 180.078C53.0881 180.74 51.6202 180.347 50.9575 179.199C50.2947 178.051 50.688 176.584 51.836 175.921C52.9839 175.258 54.4518 175.651 55.1145 176.799Z" fill="#00D3F3"/>
<path d="M27.5865 189.921L51.836 175.921L54.236 180.078L29.9865 194.078L27.5865 189.921Z" fill="#00D3F3"/>
<path d="M32.2509 190C31.1463 188.086 28.6998 187.431 26.7866 188.535C24.8733 189.64 24.2178 192.086 25.3224 194C26.427 195.913 28.8735 196.568 30.7867 195.464C32.7 194.359 33.3555 191.913 32.2509 190Z" fill="#00D3F3"/>
<path d="M5.73702 152.078L29.9866 138.078L27.5865 133.921L3.33691 147.921L5.73702 152.078Z" fill="#00D3F3"/>
<path d="M29.9871 133.921L54.2368 147.921L51.8367 152.078L27.5871 138.078L29.9871 133.921Z" fill="#00D3F3"/>
<path d="M30.8656 134.8C31.5284 135.948 31.1351 137.416 29.9871 138.079C28.8392 138.742 27.3713 138.348 26.7085 137.2C26.0458 136.053 26.4391 134.585 27.587 133.922C28.735 133.259 30.2028 133.653 30.8656 134.8Z" fill="#00D3F3"/>
<path d="M8.00125 147.999C9.10586 149.912 8.45033 152.359 6.53709 153.463C4.62385 154.568 2.17741 153.912 1.0728 151.999C-0.031811 150.086 0.6237 147.64 2.53694 146.535C4.45018 145.431 6.89664 146.086 8.00125 147.999Z" fill="#00D3F3"/>
<path d="M194.856 175.571L11.9443 69.9714L15.1444 64.4288L198.056 170.029L194.856 175.571Z" fill="#00D3F3"/>
<path d="M12.0018 57.0719C15.8282 59.281 17.1393 64.1738 14.9301 68.0001C12.7208 71.8264 7.82796 73.1374 4.00148 70.9283C0.174995 68.7192 -1.13605 63.8264 1.07317 60.0001C3.28238 56.1738 8.17527 54.8628 12.0018 57.0719ZM6.00153 67.4642C7.91477 68.5688 10.3612 67.9133 11.4658 66.0001C12.5704 64.0869 11.9149 61.6406 10.0017 60.536C8.08844 59.4314 5.64199 60.0869 4.53738 62.0001C3.43277 63.9133 4.08829 66.3596 6.00153 67.4642Z" fill="#00D3F3"/>
<path d="M205.999 169.072C209.825 171.281 211.136 176.174 208.927 180C206.718 183.826 201.825 185.137 197.998 182.928C194.172 180.719 192.861 175.826 195.07 172C197.279 168.174 202.172 166.863 205.999 169.072ZM199.998 179.464C201.912 180.569 204.358 179.913 205.463 178C206.567 176.087 205.912 173.641 203.998 172.536C202.085 171.431 199.639 172.087 198.534 174C197.43 175.913 198.085 178.36 199.998 179.464Z" fill="#00D3F3"/>
<path d="M158.163 152.079L182.412 138.079L180.012 133.922L155.763 147.922L158.163 152.079Z" fill="#00D3F3"/>
<path d="M179.134 134.801C179.797 133.653 181.265 133.259 182.413 133.922C183.561 134.585 183.954 136.053 183.291 137.201C182.628 138.349 181.161 138.742 180.013 138.079C178.865 137.416 178.471 135.949 179.134 134.801Z" fill="#00D3F3"/>
<path d="M204.262 152.079L180.013 138.079L182.413 133.922L206.662 147.922L204.262 152.079Z" fill="#00D3F3"/>
<path d="M201.998 148C200.894 149.913 201.549 152.36 203.462 153.464C205.376 154.569 207.822 153.913 208.927 152C210.031 150.087 209.376 147.641 207.462 146.536C205.549 145.432 203.103 146.087 201.998 148Z" fill="#00D3F3"/>
<path d="M182.413 189.922L158.163 175.922L155.763 180.079L180.013 194.079L182.413 189.922Z" fill="#00D3F3"/>
<path d="M154.563 178V150H159.363V178H154.563Z" fill="#00D3F3"/>
<path d="M154.885 176.8C155.548 175.652 157.016 175.258 158.164 175.921C159.312 176.584 159.705 178.052 159.042 179.2C158.38 180.347 156.912 180.741 155.764 180.078C154.616 179.415 154.222 177.947 154.885 176.8Z" fill="#00D3F3"/>
<path d="M177.748 190C178.853 188.087 181.299 187.432 183.213 188.536C185.126 189.641 185.781 192.087 184.677 194C183.572 195.914 181.126 196.569 179.213 195.465C177.299 194.36 176.644 191.914 177.748 190Z" fill="#00D3F3"/>
<path d="M51.8373 87.9212L27.5877 101.921L29.9878 106.078L54.2374 92.0781L51.8373 87.9212Z" fill="#00D3F3"/>
<path d="M30.866 105.199C30.2032 106.347 28.7354 106.74 27.5874 106.078C26.4395 105.415 26.0462 103.947 26.7089 102.799C27.3717 101.651 28.8396 101.258 29.9875 101.921C31.1354 102.583 31.5288 104.051 30.866 105.199Z" fill="#00D3F3"/>
<path d="M5.73812 87.9207L29.9875 101.921L27.5874 106.078L3.33801 92.0776L5.73812 87.9207Z" fill="#00D3F3"/>
<path d="M8.00194 91.9995C9.10655 90.0864 8.45104 87.64 6.5378 86.5354C4.62456 85.4309 2.17809 86.0864 1.07348 87.9995C-0.0311321 89.9127 0.624406 92.3591 2.53765 93.4636C4.45089 94.5682 6.89733 93.9127 8.00194 91.9995Z" fill="#00D3F3"/>
<path d="M27.5874 50.0778L51.837 64.0778L54.2371 59.9209L29.9875 45.9209L27.5874 50.0778Z" fill="#00D3F3"/>
<path d="M55.4373 61.9999V89.9999H50.6371V61.9999H55.4373Z" fill="#00D3F3"/>
<path d="M55.1149 63.2003C54.4522 64.3482 52.9843 64.7415 51.8363 64.0788C50.6884 63.416 50.2951 61.9482 50.9579 60.8003C51.6206 59.6524 53.0885 59.2591 54.2364 59.9219C55.3844 60.5846 55.7777 62.0524 55.1149 63.2003Z" fill="#00D3F3"/>
<path d="M32.2517 49.9994C31.1471 51.9125 28.7007 52.5681 26.7874 51.4635C24.8742 50.3589 24.2187 47.9126 25.3233 45.9994C26.4279 44.0862 28.8743 43.4307 30.7876 44.5353C32.7008 45.6398 33.3563 48.0862 32.2517 49.9994Z" fill="#00D3F3"/>
<path d="M105 150.667L78.3051 135.333V104.667L105 89.3333L131.695 104.667V135.333L105 150.667Z" fill="#00D3F3"/>
<path d="M269.936 165.28C262.512 165.28 256.283 164.171 251.248 161.952C246.213 159.648 242.331 156.704 239.6 153.12C236.955 149.451 235.547 145.568 235.376 141.472C235.376 140.789 235.632 140.192 236.144 139.68C236.741 139.083 237.424 138.784 238.192 138.784H244.72C245.744 138.784 246.512 139.04 247.024 139.552C247.536 140.064 247.877 140.661 248.048 141.344C248.475 143.392 249.499 145.44 251.12 147.488C252.827 149.451 255.173 151.115 258.16 152.48C261.232 153.76 265.157 154.4 269.936 154.4C277.275 154.4 282.651 153.12 286.064 150.56C289.563 147.915 291.312 144.416 291.312 140.064C291.312 137.077 290.373 134.688 288.496 132.896C286.704 131.019 283.931 129.355 280.176 127.904C276.421 126.453 271.557 124.875 265.584 123.168C259.355 121.376 254.192 119.413 250.096 117.28C246 115.147 242.928 112.501 240.88 109.344C238.917 106.187 237.936 102.176 237.936 97.312C237.936 92.704 239.173 88.608 241.648 85.024C244.123 81.3547 247.664 78.4533 252.272 76.32C256.965 74.1867 262.64 73.12 269.296 73.12C274.587 73.12 279.195 73.8453 283.12 75.296C287.131 76.6613 290.459 78.5387 293.104 80.928C295.749 83.232 297.755 85.7493 299.12 88.48C300.485 91.1253 301.211 93.728 301.296 96.288C301.296 96.8853 301.083 97.4827 300.656 98.08C300.229 98.592 299.547 98.848 298.608 98.848H291.824C291.227 98.848 290.587 98.6773 289.904 98.336C289.307 97.9947 288.837 97.3547 288.496 96.416C287.984 92.9173 286.021 89.9733 282.608 87.584C279.195 85.1947 274.757 84 269.296 84C263.749 84 259.227 85.0667 255.728 87.2C252.315 89.3333 250.608 92.6613 250.608 97.184C250.608 100.085 251.419 102.517 253.04 104.48C254.661 106.357 257.221 108.021 260.72 109.472C264.219 110.923 268.784 112.459 274.416 114.08C281.243 115.957 286.832 117.963 291.184 120.096C295.536 122.144 298.736 124.747 300.784 127.904C302.917 130.976 303.984 134.944 303.984 139.808C303.984 145.184 302.576 149.792 299.76 153.632C296.944 157.387 292.976 160.288 287.856 162.336C282.821 164.299 276.848 165.28 269.936 165.28ZM322.041 164C321.188 164 320.462 163.744 319.865 163.232C319.353 162.635 319.097 161.909 319.097 161.056V100.384C319.097 99.5307 319.353 98.848 319.865 98.336C320.462 97.7387 321.188 97.44 322.041 97.44H328.057C328.91 97.44 329.593 97.7387 330.105 98.336C330.702 98.848 331.001 99.5307 331.001 100.384V106.016C333.22 103.115 335.993 100.768 339.321 98.976C342.734 97.0987 347.086 96.16 352.377 96.16C357.924 96.16 362.617 97.3973 366.457 99.872C370.382 102.261 373.326 105.632 375.289 109.984C377.252 114.251 378.233 119.243 378.233 124.96V161.056C378.233 161.909 377.977 162.635 377.465 163.232C376.953 163.744 376.27 164 375.417 164H369.017C368.164 164 367.438 163.744 366.841 163.232C366.329 162.635 366.073 161.909 366.073 161.056V125.6C366.073 119.627 364.622 114.976 361.721 111.648C358.82 108.235 354.553 106.528 348.921 106.528C343.63 106.528 339.364 108.235 336.121 111.648C332.964 114.976 331.385 119.627 331.385 125.6V161.056C331.385 161.909 331.086 162.635 330.489 163.232C329.977 163.744 329.294 164 328.441 164H322.041ZM423.986 165.28C417.501 165.28 412.082 164.043 407.73 161.568C403.378 159.093 400.05 155.68 397.746 151.328C395.442 146.891 394.162 141.856 393.906 136.224C393.821 134.773 393.778 132.939 393.778 130.72C393.778 128.416 393.821 126.581 393.906 125.216C394.162 119.499 395.442 114.464 397.746 110.112C400.135 105.76 403.506 102.347 407.858 99.872C412.21 97.3973 417.586 96.16 423.986 96.16C430.386 96.16 435.762 97.3973 440.114 99.872C444.466 102.347 447.794 105.76 450.098 110.112C452.487 114.464 453.81 119.499 454.066 125.216C454.151 126.581 454.194 128.416 454.194 130.72C454.194 132.939 454.151 134.773 454.066 136.224C453.81 141.856 452.53 146.891 450.226 151.328C447.922 155.68 444.594 159.093 440.242 161.568C435.89 164.043 430.471 165.28 423.986 165.28ZM423.986 155.424C429.277 155.424 433.501 153.76 436.658 150.432C439.815 147.019 441.522 142.069 441.778 135.584C441.863 134.304 441.906 132.683 441.906 130.72C441.906 128.757 441.863 127.136 441.778 125.856C441.522 119.371 439.815 114.464 436.658 111.136C433.501 107.723 429.277 106.016 423.986 106.016C418.695 106.016 414.429 107.723 411.186 111.136C408.029 114.464 406.365 119.371 406.194 125.856C406.109 127.136 406.066 128.757 406.066 130.72C406.066 132.683 406.109 134.304 406.194 135.584C406.365 142.069 408.029 147.019 411.186 150.432C414.429 153.76 418.695 155.424 423.986 155.424ZM486.136 164C485.027 164 484.173 163.744 483.576 163.232C482.979 162.635 482.467 161.824 482.04 160.8L463.864 101.408C463.693 100.981 463.608 100.555 463.608 100.128C463.608 99.36 463.864 98.72 464.376 98.208C464.973 97.696 465.613 97.44 466.296 97.44H471.928C472.867 97.44 473.592 97.696 474.104 98.208C474.616 98.72 474.957 99.1893 475.128 99.616L489.336 147.872L504.568 100.128C504.739 99.5307 505.08 98.9333 505.592 98.336C506.189 97.7387 507.043 97.44 508.152 97.44H512.504C513.613 97.44 514.467 97.7387 515.064 98.336C515.661 98.9333 516.003 99.5307 516.088 100.128L531.32 147.872L545.528 99.616C545.613 99.1893 545.912 98.72 546.424 98.208C546.936 97.696 547.661 97.44 548.6 97.44H554.232C555 97.44 555.64 97.696 556.152 98.208C556.664 98.72 556.92 99.36 556.92 100.128C556.92 100.555 556.835 100.981 556.664 101.408L538.488 160.8C538.232 161.824 537.763 162.635 537.08 163.232C536.483 163.744 535.587 164 534.392 164H529.4C528.291 164 527.352 163.744 526.584 163.232C525.901 162.635 525.432 161.824 525.176 160.8L510.328 114.976L495.48 160.8C495.139 161.824 494.627 162.635 493.944 163.232C493.261 163.744 492.323 164 491.128 164H486.136ZM582.745 188.32C582.062 188.32 581.465 188.064 580.953 187.552C580.441 187.04 580.185 186.443 580.185 185.76C580.185 185.419 580.228 185.077 580.313 184.736C580.398 184.395 580.569 183.968 580.825 183.456L590.681 160.032L566.233 102.304C565.806 101.28 565.593 100.555 565.593 100.128C565.593 99.36 565.849 98.72 566.361 98.208C566.873 97.696 567.513 97.44 568.281 97.44H574.553C575.406 97.44 576.089 97.6533 576.601 98.08C577.113 98.5067 577.454 99.0187 577.625 99.616L597.081 146.208L617.049 99.616C617.305 99.0187 617.646 98.5067 618.073 98.08C618.585 97.6533 619.31 97.44 620.249 97.44H626.265C627.033 97.44 627.673 97.696 628.185 98.208C628.697 98.72 628.953 99.3173 628.953 100C628.953 100.427 628.74 101.195 628.313 102.304L591.961 186.144C591.705 186.741 591.321 187.253 590.809 187.68C590.382 188.107 589.7 188.32 588.761 188.32H582.745ZM632.87 164C632.187 164 631.59 163.744 631.078 163.232C630.566 162.72 630.31 162.123 630.31 161.44C630.31 161.013 630.353 160.544 630.438 160.032L662.182 77.216C662.523 76.3627 662.993 75.68 663.59 75.168C664.187 74.656 665.083 74.4 666.278 74.4H674.982C676.091 74.4 676.945 74.656 677.542 75.168C678.225 75.68 678.737 76.3627 679.078 77.216L710.694 160.032C710.865 160.544 710.95 161.013 710.95 161.44C710.95 162.123 710.694 162.72 710.182 163.232C709.67 163.744 709.073 164 708.39 164H701.862C700.838 164 700.07 163.744 699.558 163.232C699.131 162.72 698.833 162.251 698.662 161.824L691.622 143.648H649.638L642.598 161.824C642.513 162.251 642.214 162.72 641.702 163.232C641.19 163.744 640.422 164 639.398 164H632.87ZM653.35 132.64H687.91L670.63 87.2L653.35 132.64ZM726.044 188.32C725.191 188.32 724.465 188.021 723.868 187.424C723.356 186.912 723.1 186.229 723.1 185.376V100.384C723.1 99.5307 723.356 98.848 723.868 98.336C724.465 97.7387 725.191 97.44 726.044 97.44H731.932C732.785 97.44 733.468 97.7387 733.98 98.336C734.577 98.848 734.876 99.5307 734.876 100.384V106.016C736.924 103.2 739.655 100.853 743.068 98.976C746.481 97.0987 750.748 96.16 755.868 96.16C760.647 96.16 764.7 96.9707 768.028 98.592C771.441 100.213 774.215 102.432 776.348 105.248C778.567 108.064 780.231 111.264 781.34 114.848C782.449 118.432 783.047 122.272 783.132 126.368C783.217 127.733 783.26 129.184 783.26 130.72C783.26 132.256 783.217 133.707 783.132 135.072C783.047 139.083 782.449 142.923 781.34 146.592C780.231 150.176 778.567 153.376 776.348 156.192C774.215 158.923 771.441 161.141 768.028 162.848C764.7 164.469 760.647 165.28 755.868 165.28C750.919 165.28 746.737 164.384 743.324 162.592C739.996 160.715 737.265 158.411 735.132 155.68V185.376C735.132 186.229 734.876 186.912 734.364 187.424C733.852 188.021 733.127 188.32 732.188 188.32H726.044ZM753.18 154.912C757.617 154.912 761.073 153.973 763.548 152.096C766.108 150.133 767.943 147.616 769.052 144.544C770.161 141.387 770.801 138.016 770.972 134.432C771.057 131.957 771.057 129.483 770.972 127.008C770.801 123.424 770.161 120.096 769.052 117.024C767.943 113.867 766.108 111.349 763.548 109.472C761.073 107.509 757.617 106.528 753.18 106.528C748.999 106.528 745.585 107.509 742.94 109.472C740.38 111.435 738.46 113.952 737.18 117.024C735.985 120.011 735.303 123.083 735.132 126.24C735.047 127.605 735.004 129.227 735.004 131.104C735.004 132.981 735.047 134.645 735.132 136.096C735.217 139.083 735.9 142.027 737.18 144.928C738.545 147.829 740.551 150.219 743.196 152.096C745.841 153.973 749.169 154.912 753.18 154.912ZM802.294 188.32C801.441 188.32 800.715 188.021 800.118 187.424C799.606 186.912 799.35 186.229 799.35 185.376V100.384C799.35 99.5307 799.606 98.848 800.118 98.336C800.715 97.7387 801.441 97.44 802.294 97.44H808.182C809.035 97.44 809.718 97.7387 810.23 98.336C810.827 98.848 811.126 99.5307 811.126 100.384V106.016C813.174 103.2 815.905 100.853 819.318 98.976C822.731 97.0987 826.998 96.16 832.118 96.16C836.897 96.16 840.95 96.9707 844.278 98.592C847.691 100.213 850.465 102.432 852.598 105.248C854.817 108.064 856.481 111.264 857.59 114.848C858.699 118.432 859.297 122.272 859.382 126.368C859.467 127.733 859.51 129.184 859.51 130.72C859.51 132.256 859.467 133.707 859.382 135.072C859.297 139.083 858.699 142.923 857.59 146.592C856.481 150.176 854.817 153.376 852.598 156.192C850.465 158.923 847.691 161.141 844.278 162.848C840.95 164.469 836.897 165.28 832.118 165.28C827.169 165.28 822.987 164.384 819.574 162.592C816.246 160.715 813.515 158.411 811.382 155.68V185.376C811.382 186.229 811.126 186.912 810.614 187.424C810.102 188.021 809.377 188.32 808.438 188.32H802.294ZM829.43 154.912C833.867 154.912 837.323 153.973 839.798 152.096C842.358 150.133 844.193 147.616 845.302 144.544C846.411 141.387 847.051 138.016 847.222 134.432C847.307 131.957 847.307 129.483 847.222 127.008C847.051 123.424 846.411 120.096 845.302 117.024C844.193 113.867 842.358 111.349 839.798 109.472C837.323 107.509 833.867 106.528 829.43 106.528C825.249 106.528 821.835 107.509 819.19 109.472C816.63 111.435 814.71 113.952 813.43 117.024C812.235 120.011 811.553 123.083 811.382 126.24C811.297 127.605 811.254 129.227 811.254 131.104C811.254 132.981 811.297 134.645 811.382 136.096C811.467 139.083 812.15 142.027 813.43 144.928C814.795 147.829 816.801 150.219 819.446 152.096C822.091 153.973 825.419 154.912 829.43 154.912ZM898.512 165.28C893.733 165.28 889.637 164.683 886.224 163.488C882.811 162.293 880.037 160.843 877.904 159.136C875.771 157.429 874.149 155.723 873.04 154.016C872.016 152.309 871.461 150.944 871.376 149.92C871.291 148.981 871.589 148.256 872.272 147.744C872.955 147.232 873.637 146.976 874.32 146.976H879.952C880.464 146.976 880.848 147.061 881.104 147.232C881.445 147.317 881.872 147.659 882.384 148.256C883.493 149.451 884.731 150.645 886.096 151.84C887.461 153.035 889.125 154.016 891.088 154.784C893.136 155.552 895.653 155.936 898.64 155.936C902.992 155.936 906.576 155.125 909.392 153.504C912.208 151.797 913.616 149.323 913.616 146.08C913.616 143.947 913.019 142.24 911.824 140.96C910.715 139.68 908.667 138.528 905.68 137.504C902.779 136.48 898.768 135.413 893.648 134.304C888.528 133.109 884.475 131.659 881.488 129.952C878.501 128.16 876.368 126.069 875.088 123.68C873.808 121.205 873.168 118.432 873.168 115.36C873.168 112.203 874.107 109.173 875.984 106.272C877.861 103.285 880.592 100.853 884.176 98.976C887.845 97.0987 892.411 96.16 897.872 96.16C902.309 96.16 906.107 96.7147 909.264 97.824C912.421 98.9333 915.024 100.341 917.072 102.048C919.12 103.669 920.656 105.291 921.68 106.912C922.704 108.533 923.259 109.899 923.344 111.008C923.429 111.861 923.173 112.587 922.576 113.184C921.979 113.696 921.296 113.952 920.528 113.952H915.152C914.555 113.952 914.043 113.824 913.616 113.568C913.275 113.312 912.933 113.013 912.592 112.672C911.739 111.563 910.715 110.453 909.52 109.344C908.411 108.235 906.917 107.339 905.04 106.656C903.248 105.888 900.859 105.504 897.872 105.504C893.605 105.504 890.405 106.4 888.272 108.192C886.139 109.984 885.072 112.245 885.072 114.976C885.072 116.597 885.541 118.048 886.48 119.328C887.419 120.608 889.211 121.76 891.856 122.784C894.501 123.808 898.427 124.917 903.632 126.112C909.264 127.221 913.701 128.715 916.944 130.592C920.187 132.469 922.491 134.645 923.856 137.12C925.221 139.595 925.904 142.453 925.904 145.696C925.904 149.28 924.837 152.565 922.704 155.552C920.656 158.539 917.584 160.928 913.488 162.72C909.477 164.427 904.485 165.28 898.512 165.28Z" fill="black"/>
</svg>
