<svg width="1234" height="240" viewBox="0 0 1234 240" fill="none" xmlns="http://www.w3.org/2000/svg">
<path d="M205.998 169.072C209.825 171.281 211.136 176.174 208.927 180C206.718 183.826 201.825 185.138 197.998 182.929C195.157 181.288 193.705 178.169 194.049 175.104L159.363 155.079L159.363 176.615L179.642 188.321C180.759 187.845 182.08 187.882 183.213 188.536C185.126 189.641 185.782 192.088 184.677 194.001C183.572 195.914 181.126 196.569 179.213 195.465C178.08 194.81 177.389 193.685 177.242 192.479L155.763 180.079L155.764 180.077C154.995 179.633 154.568 178.828 154.567 178H154.563L154.563 152.308L122.586 133.847L108.2 142.152V179.076L130.449 191.921L130.448 191.923C131.165 192.338 131.649 193.112 131.649 194V218.8C132.62 219.53 133.249 220.691 133.249 222C133.249 224.209 131.458 226 129.249 226C127.04 226 125.249 224.209 125.249 222C125.249 220.691 125.877 219.53 126.849 218.8V195.385L108.2 184.619V224.668C111.025 225.903 113 228.72 113 232C113 236.418 109.419 240 105 240C100.582 240 97.0002 236.418 97.0002 232C97.0002 228.72 98.9749 225.903 101.8 224.668V184.618L83.1496 195.386V218.8C84.1212 219.53 84.7502 220.691 84.7502 222C84.7501 224.209 82.9584 226 80.7492 226C78.5402 226 76.7492 224.209 76.7492 222C76.7492 220.691 77.3781 219.53 78.3498 218.8V194H78.3508L78.3635 193.755C78.4431 192.97 78.9013 192.299 79.5519 191.923L79.55 191.921L101.8 179.075V142.152L87.4152 133.847L55.4367 152.309V177.999H55.4347C55.4341 178.75 55.0821 179.483 54.4426 179.944L54.2365 180.078L32.758 192.477C32.6121 193.683 31.9201 194.809 30.7863 195.464C28.8732 196.568 26.4271 195.913 25.3224 194C24.2178 192.087 24.8731 189.64 26.7863 188.535C27.9197 187.881 29.2408 187.844 30.3586 188.32L50.6369 176.613V155.08L15.9523 175.104C16.2959 178.169 14.8431 181.288 12.0021 182.929C8.17564 185.138 3.28263 183.826 1.07341 180C-1.13571 176.174 0.174964 171.282 4.00115 169.072C6.84205 167.432 10.2703 167.733 12.7521 169.562L47.4377 149.537L28.7873 138.771L8.50896 150.478C8.36278 151.684 7.6707 152.81 6.53728 153.464C4.62404 154.568 2.17704 153.912 1.07244 151.999C-0.0318462 150.086 0.624174 147.64 2.53728 146.535C3.67052 145.881 4.99089 145.844 6.10857 146.32L27.5861 133.921L27.5871 133.922L27.8058 133.81C28.5249 133.486 29.3355 133.548 29.9865 133.923L29.9875 133.921L52.2375 146.766L84.215 128.305L84.215 111.695L52.2375 93.2324L29.9875 106.078L29.9865 106.075C29.2684 106.489 28.3565 106.522 27.5871 106.078L6.10955 93.6777C4.99166 94.1544 3.67077 94.1183 2.53728 93.4639C0.624305 92.3593 -0.0308606 89.9131 1.07341 88C2.17802 86.0868 4.62501 85.4306 6.53826 86.5352C7.67096 87.1892 8.3623 88.314 8.50896 89.5195L28.7883 101.228L47.4367 90.4609L12.7521 70.4375C10.2702 72.2669 6.84211 72.5689 4.00115 70.9287C0.174725 68.7195 -1.13579 63.8263 1.07341 60C3.28269 56.1738 8.17571 54.8632 12.0021 57.0723C14.8426 58.7124 16.2954 61.8309 15.9523 64.8945L50.6369 84.9189V63.3848L30.3595 51.6777C29.2416 52.1544 27.9208 52.1183 26.7873 51.4639C24.874 50.3593 24.2188 47.9122 25.3234 45.999C26.4281 44.0862 28.8742 43.4309 30.7873 44.5352C31.9205 45.1894 32.6126 46.3145 32.759 47.5205L54.2375 59.9209V59.9219C55.0062 60.366 55.4339 61.1717 55.4347 62H55.4377V87.6904L87.4152 106.152L101.8 97.8477V60.9248L79.551 48.0791L79.5529 48.0762C78.9023 47.6999 78.4431 47.0298 78.3635 46.2451L78.3508 46V21.2002C77.3792 20.4704 76.7502 19.3087 76.7502 18C76.7502 15.7909 78.5419 14 80.7511 14C82.9602 14.0002 84.7511 15.791 84.7511 18C84.7511 19.3082 84.1226 20.4694 83.1515 21.1992V44.6152L101.8 55.3809V15.332C98.9749 14.0974 97.0002 11.2802 97.0002 8C97.0002 3.58172 100.582 0 105 0C109.419 4.98135e-05 113 3.58175 113 8C113 11.2801 111.025 14.0973 108.2 15.332V55.3818L126.85 44.6152V21.2002C125.878 20.4704 125.25 19.3085 125.25 18C125.25 15.7909 127.041 14 129.25 14C131.459 14 133.25 15.7909 133.25 18C133.25 19.3085 132.622 20.4704 131.651 21.2002V46H131.65L131.637 46.2451C131.557 47.0294 131.099 47.6998 130.448 48.0762L130.449 48.0791L108.2 60.9248V97.8477L122.586 106.152L154.564 87.6904V62.001H154.567C154.567 61.2494 154.918 60.5169 155.558 60.0557L155.764 59.9219L177.242 47.5225C177.389 46.3161 178.08 45.1905 179.213 44.5361C181.126 43.4316 183.573 44.0869 184.678 46C185.783 47.9132 185.126 50.3603 183.213 51.4648C182.08 52.1188 180.76 52.1548 179.643 51.6787L159.363 63.3867V84.9199L194.049 64.8945C193.706 61.8309 195.158 58.7123 197.998 57.0723C201.825 54.8632 206.718 56.1738 208.927 60C211.136 63.8263 209.825 68.7196 205.998 70.9287C203.158 72.5684 199.731 72.2663 197.249 70.4375L162.564 90.4619L181.213 101.229L201.492 89.5215C201.639 88.3156 202.33 87.1903 203.463 86.5361C205.376 85.4319 207.822 86.0879 208.927 88.001C210.031 89.9141 209.376 92.3603 207.463 93.4648C206.33 94.119 205.01 94.1548 203.893 93.6787L182.413 106.079V106.078C181.644 106.522 180.733 106.489 180.015 106.076L180.013 106.079L157.764 93.2334L125.785 111.695L125.785 128.305L157.765 146.767L180.013 133.922L180.015 133.924C180.666 133.549 181.476 133.487 182.195 133.811L182.413 133.922L203.892 146.321C205.009 145.845 206.33 145.882 207.463 146.536C209.376 147.641 210.031 150.087 208.927 152C207.822 153.913 205.375 154.569 203.462 153.465C202.329 152.81 201.638 151.685 201.491 150.479L181.213 138.771L162.565 149.538L197.249 169.562C199.731 167.734 203.158 167.432 205.998 169.072ZM11.466 66C12.5704 64.087 11.915 61.6408 10.0021 60.5361C8.0889 59.4316 5.6419 60.0869 4.53728 62C3.43276 63.913 4.08825 66.3592 6.00115 67.4639C7.91439 68.5684 10.3614 67.9132 11.466 66ZM10.0021 179.464C11.915 178.359 12.5705 175.913 11.466 174C10.3614 172.087 7.91436 171.432 6.00115 172.536C4.08821 173.641 3.43288 176.087 4.53728 178C5.64189 179.913 8.08888 180.568 10.0021 179.464ZM119.054 111.999L105.196 103.999L91.34 111.999L91.34 128L105.196 136L119.054 128L119.054 111.999ZM109 8C109 5.79089 107.209 4.00005 105 4C102.791 4 101 5.79086 101 8C101 10.2091 102.791 12 105 12C107.209 12 109 10.2091 109 8ZM109 232C109 229.791 107.209 228 105 228C102.791 228 101 229.791 101 232C101 234.209 102.791 236 105 236C107.209 236 109 234.209 109 232ZM203.998 67.4639C205.911 66.3593 206.568 63.9132 205.463 62C204.358 60.0868 201.911 59.4316 199.998 60.5361C198.085 61.6407 197.43 64.0869 198.534 66C199.639 67.9131 202.085 68.5683 203.998 67.4639ZM205.463 178C206.567 176.087 205.911 173.641 203.998 172.536C202.085 171.432 199.639 172.087 198.534 174C197.43 175.913 198.085 178.359 199.998 179.464C201.911 180.568 204.358 179.913 205.463 178Z" fill="#00D3F3"/>
<path d="M269.936 165.28C262.512 165.28 256.283 164.171 251.248 161.952C246.213 159.648 242.331 156.704 239.6 153.12C236.955 149.451 235.547 145.568 235.376 141.472C235.376 140.789 235.632 140.192 236.144 139.68C236.741 139.083 237.424 138.784 238.192 138.784H244.72C245.744 138.784 246.512 139.04 247.024 139.552C247.536 140.064 247.877 140.661 248.048 141.344C248.475 143.392 249.499 145.44 251.12 147.488C252.827 149.451 255.173 151.115 258.16 152.48C261.232 153.76 265.157 154.4 269.936 154.4C277.275 154.4 282.651 153.12 286.064 150.56C289.563 147.915 291.312 144.416 291.312 140.064C291.312 137.077 290.373 134.688 288.496 132.896C286.704 131.019 283.931 129.355 280.176 127.904C276.421 126.453 271.557 124.875 265.584 123.168C259.355 121.376 254.192 119.413 250.096 117.28C246 115.147 242.928 112.501 240.88 109.344C238.917 106.187 237.936 102.176 237.936 97.312C237.936 92.704 239.173 88.608 241.648 85.024C244.123 81.3547 247.664 78.4533 252.272 76.32C256.965 74.1867 262.64 73.12 269.296 73.12C274.587 73.12 279.195 73.8453 283.12 75.296C287.131 76.6613 290.459 78.5387 293.104 80.928C295.749 83.232 297.755 85.7493 299.12 88.48C300.485 91.1253 301.211 93.728 301.296 96.288C301.296 96.8853 301.083 97.4827 300.656 98.08C300.229 98.592 299.547 98.848 298.608 98.848H291.824C291.227 98.848 290.587 98.6773 289.904 98.336C289.307 97.9947 288.837 97.3547 288.496 96.416C287.984 92.9173 286.021 89.9733 282.608 87.584C279.195 85.1947 274.757 84 269.296 84C263.749 84 259.227 85.0667 255.728 87.2C252.315 89.3333 250.608 92.6613 250.608 97.184C250.608 100.085 251.419 102.517 253.04 104.48C254.661 106.357 257.221 108.021 260.72 109.472C264.219 110.923 268.784 112.459 274.416 114.08C281.243 115.957 286.832 117.963 291.184 120.096C295.536 122.144 298.736 124.747 300.784 127.904C302.917 130.976 303.984 134.944 303.984 139.808C303.984 145.184 302.576 149.792 299.76 153.632C296.944 157.387 292.976 160.288 287.856 162.336C282.821 164.299 276.848 165.28 269.936 165.28ZM322.041 164C321.188 164 320.462 163.744 319.865 163.232C319.353 162.635 319.097 161.909 319.097 161.056V100.384C319.097 99.5307 319.353 98.848 319.865 98.336C320.462 97.7387 321.188 97.44 322.041 97.44H328.057C328.91 97.44 329.593 97.7387 330.105 98.336C330.702 98.848 331.001 99.5307 331.001 100.384V106.016C333.22 103.115 335.993 100.768 339.321 98.976C342.734 97.0987 347.086 96.16 352.377 96.16C357.924 96.16 362.617 97.3973 366.457 99.872C370.382 102.261 373.326 105.632 375.289 109.984C377.252 114.251 378.233 119.243 378.233 124.96V161.056C378.233 161.909 377.977 162.635 377.465 163.232C376.953 163.744 376.27 164 375.417 164H369.017C368.164 164 367.438 163.744 366.841 163.232C366.329 162.635 366.073 161.909 366.073 161.056V125.6C366.073 119.627 364.622 114.976 361.721 111.648C358.82 108.235 354.553 106.528 348.921 106.528C343.63 106.528 339.364 108.235 336.121 111.648C332.964 114.976 331.385 119.627 331.385 125.6V161.056C331.385 161.909 331.086 162.635 330.489 163.232C329.977 163.744 329.294 164 328.441 164H322.041ZM423.986 165.28C417.501 165.28 412.082 164.043 407.73 161.568C403.378 159.093 400.05 155.68 397.746 151.328C395.442 146.891 394.162 141.856 393.906 136.224C393.821 134.773 393.778 132.939 393.778 130.72C393.778 128.416 393.821 126.581 393.906 125.216C394.162 119.499 395.442 114.464 397.746 110.112C400.135 105.76 403.506 102.347 407.858 99.872C412.21 97.3973 417.586 96.16 423.986 96.16C430.386 96.16 435.762 97.3973 440.114 99.872C444.466 102.347 447.794 105.76 450.098 110.112C452.487 114.464 453.81 119.499 454.066 125.216C454.151 126.581 454.194 128.416 454.194 130.72C454.194 132.939 454.151 134.773 454.066 136.224C453.81 141.856 452.53 146.891 450.226 151.328C447.922 155.68 444.594 159.093 440.242 161.568C435.89 164.043 430.471 165.28 423.986 165.28ZM423.986 155.424C429.277 155.424 433.501 153.76 436.658 150.432C439.815 147.019 441.522 142.069 441.778 135.584C441.863 134.304 441.906 132.683 441.906 130.72C441.906 128.757 441.863 127.136 441.778 125.856C441.522 119.371 439.815 114.464 436.658 111.136C433.501 107.723 429.277 106.016 423.986 106.016C418.695 106.016 414.429 107.723 411.186 111.136C408.029 114.464 406.365 119.371 406.194 125.856C406.109 127.136 406.066 128.757 406.066 130.72C406.066 132.683 406.109 134.304 406.194 135.584C406.365 142.069 408.029 147.019 411.186 150.432C414.429 153.76 418.695 155.424 423.986 155.424ZM486.136 164C485.027 164 484.173 163.744 483.576 163.232C482.979 162.635 482.467 161.824 482.04 160.8L463.864 101.408C463.693 100.981 463.608 100.555 463.608 100.128C463.608 99.36 463.864 98.72 464.376 98.208C464.973 97.696 465.613 97.44 466.296 97.44H471.928C472.867 97.44 473.592 97.696 474.104 98.208C474.616 98.72 474.957 99.1893 475.128 99.616L489.336 147.872L504.568 100.128C504.739 99.5307 505.08 98.9333 505.592 98.336C506.189 97.7387 507.043 97.44 508.152 97.44H512.504C513.613 97.44 514.467 97.7387 515.064 98.336C515.661 98.9333 516.003 99.5307 516.088 100.128L531.32 147.872L545.528 99.616C545.613 99.1893 545.912 98.72 546.424 98.208C546.936 97.696 547.661 97.44 548.6 97.44H554.232C555 97.44 555.64 97.696 556.152 98.208C556.664 98.72 556.92 99.36 556.92 100.128C556.92 100.555 556.835 100.981 556.664 101.408L538.488 160.8C538.232 161.824 537.763 162.635 537.08 163.232C536.483 163.744 535.587 164 534.392 164H529.4C528.291 164 527.352 163.744 526.584 163.232C525.901 162.635 525.432 161.824 525.176 160.8L510.328 114.976L495.48 160.8C495.139 161.824 494.627 162.635 493.944 163.232C493.261 163.744 492.323 164 491.128 164H486.136ZM582.745 188.32C582.062 188.32 581.465 188.064 580.953 187.552C580.441 187.04 580.185 186.443 580.185 185.76C580.185 185.419 580.228 185.077 580.313 184.736C580.398 184.395 580.569 183.968 580.825 183.456L590.681 160.032L566.233 102.304C565.806 101.28 565.593 100.555 565.593 100.128C565.593 99.36 565.849 98.72 566.361 98.208C566.873 97.696 567.513 97.44 568.281 97.44H574.553C575.406 97.44 576.089 97.6533 576.601 98.08C577.113 98.5067 577.454 99.0187 577.625 99.616L597.081 146.208L617.049 99.616C617.305 99.0187 617.646 98.5067 618.073 98.08C618.585 97.6533 619.31 97.44 620.249 97.44H626.265C627.033 97.44 627.673 97.696 628.185 98.208C628.697 98.72 628.953 99.3173 628.953 100C628.953 100.427 628.74 101.195 628.313 102.304L591.961 186.144C591.705 186.741 591.321 187.253 590.809 187.68C590.382 188.107 589.7 188.32 588.761 188.32H582.745ZM655.664 164C654.811 164 654.085 163.744 653.488 163.232C652.976 162.635 652.72 161.909 652.72 161.056V85.792H628.144C627.291 85.792 626.565 85.536 625.968 85.024C625.456 84.4267 625.2 83.7013 625.2 82.848V77.472C625.2 76.5333 625.456 75.808 625.968 75.296C626.565 74.6987 627.291 74.4 628.144 74.4H689.84C690.779 74.4 691.504 74.6987 692.016 75.296C692.613 75.808 692.912 76.5333 692.912 77.472V82.848C692.912 83.7013 692.613 84.4267 692.016 85.024C691.504 85.536 690.779 85.792 689.84 85.792H665.392V161.056C665.392 161.909 665.093 162.635 664.496 163.232C663.984 163.744 663.259 164 662.32 164H655.664ZM719.843 165.28C711.054 165.28 704.056 162.592 698.851 157.216C693.646 151.755 690.787 144.331 690.275 134.944C690.19 133.835 690.147 132.427 690.147 130.72C690.147 128.928 690.19 127.477 690.275 126.368C690.616 120.309 692.024 115.019 694.499 110.496C696.974 105.888 700.344 102.347 704.611 99.872C708.963 97.3973 714.04 96.16 719.843 96.16C726.328 96.16 731.747 97.5253 736.099 100.256C740.536 102.987 743.907 106.869 746.211 111.904C748.515 116.939 749.667 122.827 749.667 129.568V131.744C749.667 132.683 749.368 133.408 748.771 133.92C748.259 134.432 747.576 134.688 746.723 134.688H702.435C702.435 134.773 702.435 134.944 702.435 135.2C702.435 135.456 702.435 135.669 702.435 135.84C702.606 139.339 703.374 142.624 704.739 145.696C706.104 148.683 708.067 151.115 710.627 152.992C713.187 154.869 716.259 155.808 719.843 155.808C722.915 155.808 725.475 155.339 727.523 154.4C729.571 153.461 731.235 152.437 732.515 151.328C733.795 150.133 734.648 149.237 735.075 148.64C735.843 147.531 736.44 146.891 736.867 146.72C737.294 146.464 737.976 146.336 738.915 146.336H745.059C745.912 146.336 746.595 146.592 747.107 147.104C747.704 147.531 747.96 148.171 747.875 149.024C747.79 150.304 747.107 151.883 745.827 153.76C744.547 155.552 742.712 157.344 740.323 159.136C737.934 160.928 735.032 162.421 731.619 163.616C728.206 164.725 724.28 165.28 719.843 165.28ZM702.435 125.856H737.507V125.472C737.507 121.632 736.782 118.219 735.331 115.232C733.966 112.245 731.96 109.899 729.315 108.192C726.67 106.4 723.512 105.504 719.843 105.504C716.174 105.504 713.016 106.4 710.371 108.192C707.811 109.899 705.848 112.245 704.483 115.232C703.118 118.219 702.435 121.632 702.435 125.472V125.856ZM767.916 164C767.063 164 766.337 163.744 765.74 163.232C765.228 162.635 764.972 161.909 764.972 161.056V100.384C764.972 99.5307 765.228 98.848 765.74 98.336C766.337 97.7387 767.063 97.44 767.916 97.44H773.676C774.529 97.44 775.212 97.7387 775.724 98.336C776.321 98.848 776.62 99.5307 776.62 100.384V104.864C778.583 102.219 781.057 100.128 784.044 98.592C787.031 96.9707 790.615 96.16 794.796 96.16C804.439 96.0747 811.265 100 815.276 107.936C817.239 104.352 820.097 101.493 823.852 99.36C827.607 97.2267 831.873 96.16 836.652 96.16C841.089 96.16 845.1 97.184 848.684 99.232C852.353 101.28 855.212 104.395 857.26 108.576C859.393 112.672 860.46 117.835 860.46 124.064V161.056C860.46 161.909 860.161 162.635 859.564 163.232C859.052 163.744 858.369 164 857.516 164H851.5C850.647 164 849.921 163.744 849.324 163.232C848.812 162.635 848.556 161.909 848.556 161.056V125.216C848.556 120.437 847.873 116.683 846.508 113.952C845.143 111.221 843.308 109.301 841.004 108.192C838.7 107.083 836.183 106.528 833.452 106.528C831.233 106.528 828.972 107.083 826.668 108.192C824.364 109.301 822.444 111.221 820.908 113.952C819.457 116.683 818.732 120.437 818.732 125.216V161.056C818.732 161.909 818.433 162.635 817.836 163.232C817.324 163.744 816.641 164 815.788 164H809.772C808.919 164 808.193 163.744 807.596 163.232C807.084 162.635 806.828 161.909 806.828 161.056V125.216C806.828 120.437 806.103 116.683 804.652 113.952C803.201 111.221 801.324 109.301 799.02 108.192C796.716 107.083 794.284 106.528 791.724 106.528C789.505 106.528 787.244 107.083 784.94 108.192C782.636 109.301 780.716 111.221 779.18 113.952C777.729 116.683 777.004 120.395 777.004 125.088V161.056C777.004 161.909 776.705 162.635 776.108 163.232C775.596 163.744 774.913 164 774.06 164H767.916ZM881.794 188.32C880.941 188.32 880.215 188.021 879.618 187.424C879.106 186.912 878.85 186.229 878.85 185.376V100.384C878.85 99.5307 879.106 98.848 879.618 98.336C880.215 97.7387 880.941 97.44 881.794 97.44H887.682C888.535 97.44 889.218 97.7387 889.73 98.336C890.327 98.848 890.626 99.5307 890.626 100.384V106.016C892.674 103.2 895.405 100.853 898.818 98.976C902.231 97.0987 906.498 96.16 911.618 96.16C916.397 96.16 920.45 96.9707 923.778 98.592C927.191 100.213 929.965 102.432 932.098 105.248C934.317 108.064 935.981 111.264 937.09 114.848C938.199 118.432 938.797 122.272 938.882 126.368C938.967 127.733 939.01 129.184 939.01 130.72C939.01 132.256 938.967 133.707 938.882 135.072C938.797 139.083 938.199 142.923 937.09 146.592C935.981 150.176 934.317 153.376 932.098 156.192C929.965 158.923 927.191 161.141 923.778 162.848C920.45 164.469 916.397 165.28 911.618 165.28C906.669 165.28 902.487 164.384 899.074 162.592C895.746 160.715 893.015 158.411 890.882 155.68V185.376C890.882 186.229 890.626 186.912 890.114 187.424C889.602 188.021 888.877 188.32 887.938 188.32H881.794ZM908.93 154.912C913.367 154.912 916.823 153.973 919.298 152.096C921.858 150.133 923.693 147.616 924.802 144.544C925.911 141.387 926.551 138.016 926.722 134.432C926.807 131.957 926.807 129.483 926.722 127.008C926.551 123.424 925.911 120.096 924.802 117.024C923.693 113.867 921.858 111.349 919.298 109.472C916.823 107.509 913.367 106.528 908.93 106.528C904.749 106.528 901.335 107.509 898.69 109.472C896.13 111.435 894.21 113.952 892.93 117.024C891.735 120.011 891.053 123.083 890.882 126.24C890.797 127.605 890.754 129.227 890.754 131.104C890.754 132.981 890.797 134.645 890.882 136.096C890.967 139.083 891.65 142.027 892.93 144.928C894.295 147.829 896.301 150.219 898.946 152.096C901.591 153.973 904.919 154.912 908.93 154.912ZM958.044 164C957.191 164 956.465 163.744 955.868 163.232C955.356 162.635 955.1 161.909 955.1 161.056V76.064C955.1 75.2107 955.356 74.528 955.868 74.016C956.465 73.4187 957.191 73.12 958.044 73.12H964.06C964.999 73.12 965.724 73.4187 966.236 74.016C966.748 74.528 967.004 75.2107 967.004 76.064V161.056C967.004 161.909 966.748 162.635 966.236 163.232C965.724 163.744 964.999 164 964.06 164H958.044ZM1004.66 165.28C1000.39 165.28 996.508 164.427 993.009 162.72C989.51 161.013 986.694 158.709 984.561 155.808C982.428 152.907 981.361 149.621 981.361 145.952C981.361 140.064 983.75 135.371 988.529 131.872C993.308 128.373 999.537 126.069 1007.22 124.96L1026.29 122.272V118.56C1026.29 114.464 1025.09 111.264 1022.71 108.96C1020.4 106.656 1016.6 105.504 1011.31 105.504C1007.47 105.504 1004.36 106.272 1001.97 107.808C999.665 109.344 998.044 111.307 997.105 113.696C996.593 114.976 995.697 115.616 994.417 115.616H988.657C987.718 115.616 986.993 115.36 986.481 114.848C986.054 114.251 985.841 113.568 985.841 112.8C985.841 111.52 986.31 109.941 987.249 108.064C988.273 106.187 989.809 104.352 991.857 102.56C993.905 100.768 996.508 99.2747 999.665 98.08C1002.91 96.8 1006.83 96.16 1011.44 96.16C1016.56 96.16 1020.87 96.8427 1024.37 98.208C1027.87 99.488 1030.6 101.237 1032.56 103.456C1034.61 105.675 1036.06 108.192 1036.91 111.008C1037.85 113.824 1038.32 116.683 1038.32 119.584V161.056C1038.32 161.909 1038.02 162.635 1037.43 163.232C1036.91 163.744 1036.23 164 1035.38 164H1029.49C1028.55 164 1027.83 163.744 1027.31 163.232C1026.8 162.635 1026.55 161.909 1026.55 161.056V155.552C1025.44 157.088 1023.94 158.624 1022.07 160.16C1020.19 161.611 1017.84 162.848 1015.03 163.872C1012.21 164.811 1008.75 165.28 1004.66 165.28ZM1007.35 155.68C1010.84 155.68 1014.04 154.955 1016.95 153.504C1019.85 151.968 1022.11 149.621 1023.73 146.464C1025.44 143.307 1026.29 139.339 1026.29 134.56V130.976L1011.44 133.152C1005.38 134.005 1000.82 135.456 997.745 137.504C994.673 139.467 993.137 141.984 993.137 145.056C993.137 147.445 993.82 149.451 995.185 151.072C996.636 152.608 998.428 153.76 1000.56 154.528C1002.78 155.296 1005.04 155.68 1007.35 155.68ZM1082.08 164C1077.3 164 1073.42 163.104 1070.43 161.312C1067.45 159.435 1065.27 156.832 1063.91 153.504C1062.54 150.091 1061.86 146.08 1061.86 141.472V107.68H1051.87C1051.02 107.68 1050.29 107.424 1049.7 106.912C1049.19 106.315 1048.93 105.589 1048.93 104.736V100.384C1048.93 99.5307 1049.19 98.848 1049.7 98.336C1050.29 97.7387 1051.02 97.44 1051.87 97.44H1061.86V76.064C1061.86 75.2107 1062.11 74.528 1062.62 74.016C1063.22 73.4187 1063.95 73.12 1064.8 73.12H1070.82C1071.67 73.12 1072.35 73.4187 1072.87 74.016C1073.46 74.528 1073.76 75.2107 1073.76 76.064V97.44H1089.63C1090.49 97.44 1091.17 97.7387 1091.68 98.336C1092.28 98.848 1092.58 99.5307 1092.58 100.384V104.736C1092.58 105.589 1092.28 106.315 1091.68 106.912C1091.17 107.424 1090.49 107.68 1089.63 107.68H1073.76V140.576C1073.76 144.587 1074.44 147.744 1075.81 150.048C1077.17 152.352 1079.61 153.504 1083.11 153.504H1090.91C1091.77 153.504 1092.45 153.803 1092.96 154.4C1093.56 154.912 1093.86 155.595 1093.86 156.448V161.056C1093.86 161.909 1093.56 162.635 1092.96 163.232C1092.45 163.744 1091.77 164 1090.91 164H1082.08ZM1132.59 165.28C1123.8 165.28 1116.81 162.592 1111.6 157.216C1106.4 151.755 1103.54 144.331 1103.03 134.944C1102.94 133.835 1102.9 132.427 1102.9 130.72C1102.9 128.928 1102.94 127.477 1103.03 126.368C1103.37 120.309 1104.77 115.019 1107.25 110.496C1109.72 105.888 1113.09 102.347 1117.36 99.872C1121.71 97.3973 1126.79 96.16 1132.59 96.16C1139.08 96.16 1144.5 97.5253 1148.85 100.256C1153.29 102.987 1156.66 106.869 1158.96 111.904C1161.27 116.939 1162.42 122.827 1162.42 129.568V131.744C1162.42 132.683 1162.12 133.408 1161.52 133.92C1161.01 134.432 1160.33 134.688 1159.47 134.688H1115.19C1115.19 134.773 1115.19 134.944 1115.19 135.2C1115.19 135.456 1115.19 135.669 1115.19 135.84C1115.36 139.339 1116.12 142.624 1117.49 145.696C1118.85 148.683 1120.82 151.115 1123.38 152.992C1125.94 154.869 1129.01 155.808 1132.59 155.808C1135.67 155.808 1138.23 155.339 1140.27 154.4C1142.32 153.461 1143.99 152.437 1145.27 151.328C1146.55 150.133 1147.4 149.237 1147.83 148.64C1148.59 147.531 1149.19 146.891 1149.62 146.72C1150.04 146.464 1150.73 146.336 1151.67 146.336H1157.81C1158.66 146.336 1159.35 146.592 1159.86 147.104C1160.45 147.531 1160.71 148.171 1160.62 149.024C1160.54 150.304 1159.86 151.883 1158.58 153.76C1157.3 155.552 1155.46 157.344 1153.07 159.136C1150.68 160.928 1147.78 162.421 1144.37 163.616C1140.96 164.725 1137.03 165.28 1132.59 165.28ZM1115.19 125.856H1150.26V125.472C1150.26 121.632 1149.53 118.219 1148.08 115.232C1146.72 112.245 1144.71 109.899 1142.07 108.192C1139.42 106.4 1136.26 105.504 1132.59 105.504C1128.92 105.504 1125.77 106.4 1123.12 108.192C1120.56 109.899 1118.6 112.245 1117.23 115.232C1115.87 118.219 1115.19 121.632 1115.19 125.472V125.856ZM1200.76 165.28C1195.98 165.28 1191.89 164.683 1188.47 163.488C1185.06 162.293 1182.29 160.843 1180.15 159.136C1178.02 157.429 1176.4 155.723 1175.29 154.016C1174.27 152.309 1173.71 150.944 1173.63 149.92C1173.54 148.981 1173.84 148.256 1174.52 147.744C1175.2 147.232 1175.89 146.976 1176.57 146.976H1182.2C1182.71 146.976 1183.1 147.061 1183.35 147.232C1183.7 147.317 1184.12 147.659 1184.63 148.256C1185.74 149.451 1186.98 150.645 1188.35 151.84C1189.71 153.035 1191.38 154.016 1193.34 154.784C1195.39 155.552 1197.9 155.936 1200.89 155.936C1205.24 155.936 1208.83 155.125 1211.64 153.504C1214.46 151.797 1215.87 149.323 1215.87 146.08C1215.87 143.947 1215.27 142.24 1214.07 140.96C1212.96 139.68 1210.92 138.528 1207.93 137.504C1205.03 136.48 1201.02 135.413 1195.9 134.304C1190.78 133.109 1186.72 131.659 1183.74 129.952C1180.75 128.16 1178.62 126.069 1177.34 123.68C1176.06 121.205 1175.42 118.432 1175.42 115.36C1175.42 112.203 1176.36 109.173 1178.23 106.272C1180.11 103.285 1182.84 100.853 1186.43 98.976C1190.1 97.0987 1194.66 96.16 1200.12 96.16C1204.56 96.16 1208.36 96.7147 1211.51 97.824C1214.67 98.9333 1217.27 100.341 1219.32 102.048C1221.37 103.669 1222.91 105.291 1223.93 106.912C1224.95 108.533 1225.51 109.899 1225.59 111.008C1225.68 111.861 1225.42 112.587 1224.83 113.184C1224.23 113.696 1223.55 113.952 1222.78 113.952H1217.4C1216.8 113.952 1216.29 113.824 1215.87 113.568C1215.52 113.312 1215.18 113.013 1214.84 112.672C1213.99 111.563 1212.96 110.453 1211.77 109.344C1210.66 108.235 1209.17 107.339 1207.29 106.656C1205.5 105.888 1203.11 105.504 1200.12 105.504C1195.86 105.504 1192.66 106.4 1190.52 108.192C1188.39 109.984 1187.32 112.245 1187.32 114.976C1187.32 116.597 1187.79 118.048 1188.73 119.328C1189.67 120.608 1191.46 121.76 1194.11 122.784C1196.75 123.808 1200.68 124.917 1205.88 126.112C1211.51 127.221 1215.95 128.715 1219.19 130.592C1222.44 132.469 1224.74 134.645 1226.11 137.12C1227.47 139.595 1228.15 142.453 1228.15 145.696C1228.15 149.28 1227.09 152.565 1224.95 155.552C1222.91 158.539 1219.83 160.928 1215.74 162.72C1211.73 164.427 1206.74 165.28 1200.76 165.28Z" fill="black"/>
</svg>
