<svg width="320" height="320" viewBox="0 0 320 320" fill="none" xmlns="http://www.w3.org/2000/svg">
<rect y="240" width="80" height="80" transform="rotate(-90 0 240)" fill="#2B7FFF" fill-opacity="0.6"/>
<path d="M40 120C62.0914 120 80 120 80 120C80 142.091 62.0914 160 40 160C17.9086 160 0 142.091 0 120C0 120 17.9086 120 40 120Z" fill="#2B7FFF" fill-opacity="0.4"/>
<path d="M40 120C62.0914 120 80 120 80 120C80 97.9086 62.0914 80 40 80C17.9086 80 0 97.9086 0 120C0 120 17.9086 120 40 120Z" fill="#2B7FFF" fill-opacity="0.6"/>
<path d="M200 40C200 17.9086 200 0 200 0C222.091 0 240 17.9086 240 40C240 62.0914 222.091 80 200 80C200 80 200 62.0914 200 40Z" fill="#2B7FFF" fill-opacity="0.4"/>
<path d="M200 40C200 17.9086 200 0 200 0C177.909 0 160 17.9086 160 40C160 62.0914 177.909 80 200 80C200 80 200 62.0914 200 40Z" fill="#2B7FFF" fill-opacity="0.6"/>
<path d="M80 160V240L160 160H80Z" fill="#2B7FFF" fill-opacity="0.4"/>
<path d="M160 80V160L240 80H160Z" fill="#2B7FFF" fill-opacity="0.6"/>
<path d="M80 0V80L160 0H80Z" fill="#2B7FFF" fill-opacity="0.6"/>
<path d="M160 80V0L80 80H160Z" fill="#2B7FFF" fill-opacity="0.4"/>
<path d="M240 0V80L320 0H240Z" fill="#2B7FFF" fill-opacity="0.4"/>
<path d="M0 240V320L80 240H0Z" fill="#2B7FFF" fill-opacity="0.4"/>
<path d="M80 80.0003C124.183 80.0003 160 115.817 160 160C160 160 124.183 160 80 160C80 115.817 80 80.0003 80 80.0003Z" fill="#2B7FFF" fill-opacity="0.6"/>
<path d="M0 0C0 44.1828 0 80 0 80C44.1828 80 80 44.1828 80 0C80 0 44.1828 0 0 0Z" fill="#2B7FFF" fill-opacity="0.6"/>
</svg>
