<svg width="63" height="63" viewBox="0 0 63 63" fill="none" xmlns="http://www.w3.org/2000/svg">
<circle cx="1.5" cy="1.5" r="1.5" fill="#2B7FFF"/>
<circle cx="1.5" cy="16.5" r="1.5" fill="#2B7FFF"/>
<circle cx="1.5" cy="31.5" r="1.5" fill="#2B7FFF"/>
<circle cx="1.5" cy="46.5" r="1.5" fill="#2B7FFF"/>
<circle cx="1.5" cy="61.5" r="1.5" fill="#2B7FFF"/>
<circle cx="16.5" cy="1.5" r="1.5" fill="#2B7FFF"/>
<circle cx="16.5" cy="16.5" r="1.5" fill="#2B7FFF"/>
<circle cx="16.5" cy="31.5" r="1.5" fill="#2B7FFF"/>
<circle cx="16.5" cy="46.5" r="1.5" fill="#2B7FFF"/>
<circle cx="16.5" cy="61.5" r="1.5" fill="#2B7FFF"/>
<circle cx="31.5" cy="1.5" r="1.5" fill="#2B7FFF"/>
<circle cx="31.5" cy="16.5" r="1.5" fill="#2B7FFF"/>
<circle cx="31.5" cy="31.5" r="1.5" fill="#2B7FFF"/>
<circle cx="31.5" cy="46.5" r="1.5" fill="#2B7FFF"/>
<circle cx="31.5" cy="61.5" r="1.5" fill="#2B7FFF"/>
<circle cx="46.5" cy="1.5" r="1.5" fill="#2B7FFF"/>
<circle cx="46.5" cy="16.5" r="1.5" fill="#2B7FFF"/>
<circle cx="46.5" cy="31.5" r="1.5" fill="#2B7FFF"/>
<circle cx="46.5" cy="46.5" r="1.5" fill="#2B7FFF"/>
<circle cx="46.5" cy="61.5" r="1.5" fill="#2B7FFF"/>
<circle cx="61.5" cy="1.5" r="1.5" fill="#2B7FFF"/>
<circle cx="61.5" cy="16.5" r="1.5" fill="#2B7FFF"/>
<circle cx="61.5" cy="31.5" r="1.5" fill="#2B7FFF"/>
<circle cx="61.5" cy="46.5" r="1.5" fill="#2B7FFF"/>
<circle cx="61.5" cy="61.5" r="1.5" fill="#2B7FFF"/>
</svg>
