<svg width="100%" height="100%" viewBox="0 0 2000 2000"
    xmlns="http://www.w3.org/2000/svg">
    <g transform="scale(1) rotate(0) skewX(0) skewY(0)" style="transform-origin: center center">
        <rect x="0" y="0" width="200" height="200" stroke="#f3f4f6" stroke-width="2" fill="#f3f4f6f6" />
        <rect x="200" y="0" width="200" height="200" stroke="#f3f4f6" stroke-width="2" fill="none" />
        <rect x="400" y="0" width="200" height="200" stroke="#f3f4f6" stroke-width="2" fill="#f3f4f68f" />
        <rect x="600" y="0" width="200" height="200" stroke="#f3f4f6" stroke-width="2" fill="#f3f4f62f" />
        <rect x="800" y="0" width="200" height="200" stroke="#f3f4f6" stroke-width="2" fill="none" />
        <rect x="1000" y="0" width="200" height="200" stroke="#f3f4f6" stroke-width="2" fill="none" />
        <rect x="1200" y="0" width="200" height="200" stroke="#f3f4f6" stroke-width="2" fill="none" />
        <rect x="1400" y="0" width="200" height="200" stroke="#f3f4f6" stroke-width="2" fill="none" />
        <rect x="1600" y="0" width="200" height="200" stroke="#f3f4f6" stroke-width="2" fill="none" />
        <rect x="1800" y="0" width="200" height="200" stroke="#f3f4f6" stroke-width="2" fill="#f3f4f62a" />
        <rect x="0" y="200" width="200" height="200" stroke="#f3f4f6" stroke-width="2" fill="none" />
        <rect x="200" y="200" width="200" height="200" stroke="#f3f4f6" stroke-width="2" fill="#f3f4f6d6" />
        <rect x="400" y="200" width="200" height="200" stroke="#f3f4f6" stroke-width="2" fill="none" />
        <rect x="600" y="200" width="200" height="200" stroke="#f3f4f6" stroke-width="2" fill="none" />
        <rect x="800" y="200" width="200" height="200" stroke="#f3f4f6" stroke-width="2" fill="none" />
        <rect x="1000" y="200" width="200" height="200" stroke="#f3f4f6" stroke-width="2" fill="none" />
        <rect x="1200" y="200" width="200" height="200" stroke="#f3f4f6" stroke-width="2" fill="#f3f4f623" />
        <rect x="1400" y="200" width="200" height="200" stroke="#f3f4f6" stroke-width="2" fill="none" />
        <rect x="1600" y="200" width="200" height="200" stroke="#f3f4f6" stroke-width="2" fill="none" />
        <rect x="1800" y="200" width="200" height="200" stroke="#f3f4f6" stroke-width="2" fill="none" />
        <rect x="0" y="400" width="200" height="200" stroke="#f3f4f6" stroke-width="2" fill="none" />
        <rect x="200" y="400" width="200" height="200" stroke="#f3f4f6" stroke-width="2" fill="#f3f4f691" />
        <rect x="400" y="400" width="200" height="200" stroke="#f3f4f6" stroke-width="2" fill="none" />
        <rect x="600" y="400" width="200" height="200" stroke="#f3f4f6" stroke-width="2" fill="#f3f4f6ce" />
        <rect x="800" y="400" width="200" height="200" stroke="#f3f4f6" stroke-width="2" fill="#f3f4f6cd" />
        <rect x="1000" y="400" width="200" height="200" stroke="#f3f4f6" stroke-width="2" fill="none" />
        <rect x="1200" y="400" width="200" height="200" stroke="#f3f4f6" stroke-width="2" fill="#f3f4f66a" />
        <rect x="1400" y="400" width="200" height="200" stroke="#f3f4f6" stroke-width="2" fill="#f3f4f663" />
        <rect x="1600" y="400" width="200" height="200" stroke="#f3f4f6" stroke-width="2" fill="none" />
        <rect x="1800" y="400" width="200" height="200" stroke="#f3f4f6" stroke-width="2" fill="none" />
        <rect x="0" y="600" width="200" height="200" stroke="#f3f4f6" stroke-width="2" fill="#f3f4f64e" />
        <rect x="200" y="600" width="200" height="200" stroke="#f3f4f6" stroke-width="2" fill="none" />
        <rect x="400" y="600" width="200" height="200" stroke="#f3f4f6" stroke-width="2" fill="none" />
        <rect x="600" y="600" width="200" height="200" stroke="#f3f4f6" stroke-width="2" fill="none" />
        <rect x="800" y="600" width="200" height="200" stroke="#f3f4f6" stroke-width="2" fill="none" />
        <rect x="1000" y="600" width="200" height="200" stroke="#f3f4f6" stroke-width="2" fill="none" />
        <rect x="1200" y="600" width="200" height="200" stroke="#f3f4f6" stroke-width="2" fill="none" />
        <rect x="1400" y="600" width="200" height="200" stroke="#f3f4f6" stroke-width="2" fill="none" />
        <rect x="1600" y="600" width="200" height="200" stroke="#f3f4f6" stroke-width="2" fill="none" />
        <rect x="1800" y="600" width="200" height="200" stroke="#f3f4f6" stroke-width="2" fill="none" />
        <rect x="0" y="800" width="200" height="200" stroke="#f3f4f6" stroke-width="2" fill="none" />
        <rect x="200" y="800" width="200" height="200" stroke="#f3f4f6" stroke-width="2" fill="none" />
        <rect x="400" y="800" width="200" height="200" stroke="#f3f4f6" stroke-width="2" fill="none" />
        <rect x="600" y="800" width="200" height="200" stroke="#f3f4f6" stroke-width="2" fill="none" />
        <rect x="800" y="800" width="200" height="200" stroke="#f3f4f6" stroke-width="2" fill="none" />
        <rect x="1000" y="800" width="200" height="200" stroke="#f3f4f6" stroke-width="2" fill="none" />
        <rect x="1200" y="800" width="200" height="200" stroke="#f3f4f6" stroke-width="2" fill="none" />
        <rect x="1400" y="800" width="200" height="200" stroke="#f3f4f6" stroke-width="2" fill="none" />
        <rect x="1600" y="800" width="200" height="200" stroke="#f3f4f6" stroke-width="2" fill="#f3f4f631" />
        <rect x="1800" y="800" width="200" height="200" stroke="#f3f4f6" stroke-width="2" fill="none" />
        <rect x="0" y="1000" width="200" height="200" stroke="#f3f4f6" stroke-width="2" fill="none" />
        <rect x="200" y="1000" width="200" height="200" stroke="#f3f4f6" stroke-width="2" fill="#f3f4f610" />
        <rect x="400" y="1000" width="200" height="200" stroke="#f3f4f6" stroke-width="2" fill="none" />
        <rect x="600" y="1000" width="200" height="200" stroke="#f3f4f6" stroke-width="2" fill="#f3f4f6dd" />
        <rect x="800" y="1000" width="200" height="200" stroke="#f3f4f6" stroke-width="2" fill="#f3f4f6a0" />
        <rect x="1000" y="1000" width="200" height="200" stroke="#f3f4f6" stroke-width="2" fill="none" />
        <rect x="1200" y="1000" width="200" height="200" stroke="#f3f4f6" stroke-width="2" fill="none" />
        <rect x="1400" y="1000" width="200" height="200" stroke="#f3f4f6" stroke-width="2" fill="none" />
        <rect x="1600" y="1000" width="200" height="200" stroke="#f3f4f6" stroke-width="2" fill="none" />
        <rect x="1800" y="1000" width="200" height="200" stroke="#f3f4f6" stroke-width="2" fill="none" />
        <rect x="0" y="1200" width="200" height="200" stroke="#f3f4f6" stroke-width="2" fill="none" />
        <rect x="200" y="1200" width="200" height="200" stroke="#f3f4f6" stroke-width="2" fill="#f3f4f65d" />
        <rect x="400" y="1200" width="200" height="200" stroke="#f3f4f6" stroke-width="2" fill="#f3f4f6a2" />
        <rect x="600" y="1200" width="200" height="200" stroke="#f3f4f6" stroke-width="2" fill="none" />
        <rect x="800" y="1200" width="200" height="200" stroke="#f3f4f6" stroke-width="2" fill="none" />
        <rect x="1000" y="1200" width="200" height="200" stroke="#f3f4f6" stroke-width="2" fill="none" />
        <rect x="1200" y="1200" width="200" height="200" stroke="#f3f4f6" stroke-width="2" fill="#f3f4f65c" />
        <rect x="1400" y="1200" width="200" height="200" stroke="#f3f4f6" stroke-width="2" fill="none" />
        <rect x="1600" y="1200" width="200" height="200" stroke="#f3f4f6" stroke-width="2" fill="none" />
        <rect x="1800" y="1200" width="200" height="200" stroke="#f3f4f6" stroke-width="2" fill="#f3f4f607" />
        <rect x="0" y="1400" width="200" height="200" stroke="#f3f4f6" stroke-width="2" fill="#f3f4f6ab" />
        <rect x="200" y="1400" width="200" height="200" stroke="#f3f4f6" stroke-width="2" fill="none" />
        <rect x="400" y="1400" width="200" height="200" stroke="#f3f4f6" stroke-width="2" fill="#f3f4f62a" />
        <rect x="600" y="1400" width="200" height="200" stroke="#f3f4f6" stroke-width="2" fill="none" />
        <rect x="800" y="1400" width="200" height="200" stroke="#f3f4f6" stroke-width="2" fill="#f3f4f677" />
        <rect x="1000" y="1400" width="200" height="200" stroke="#f3f4f6" stroke-width="2" fill="#f3f4f6ce" />
        <rect x="1200" y="1400" width="200" height="200" stroke="#f3f4f6" stroke-width="2" fill="none" />
        <rect x="1400" y="1400" width="200" height="200" stroke="#f3f4f6" stroke-width="2" fill="none" />
        <rect x="1600" y="1400" width="200" height="200" stroke="#f3f4f6" stroke-width="2" fill="#f3f4f6b1" />
        <rect x="1800" y="1400" width="200" height="200" stroke="#f3f4f6" stroke-width="2" fill="#f3f4f609" />
        <rect x="0" y="1600" width="200" height="200" stroke="#f3f4f6" stroke-width="2" fill="#f3f4f667" />
        <rect x="200" y="1600" width="200" height="200" stroke="#f3f4f6" stroke-width="2" fill="none" />
        <rect x="400" y="1600" width="200" height="200" stroke="#f3f4f6" stroke-width="2" fill="none" />
        <rect x="600" y="1600" width="200" height="200" stroke="#f3f4f6" stroke-width="2" fill="none" />
        <rect x="800" y="1600" width="200" height="200" stroke="#f3f4f6" stroke-width="2" fill="#f3f4f631" />
        <rect x="1000" y="1600" width="200" height="200" stroke="#f3f4f6" stroke-width="2" fill="#f3f4f67f" />
        <rect x="1200" y="1600" width="200" height="200" stroke="#f3f4f6" stroke-width="2" fill="none" />
        <rect x="1400" y="1600" width="200" height="200" stroke="#f3f4f6" stroke-width="2" fill="none" />
        <rect x="1600" y="1600" width="200" height="200" stroke="#f3f4f6" stroke-width="2" fill="#f3f4f6cf" />
        <rect x="1800" y="1600" width="200" height="200" stroke="#f3f4f6" stroke-width="2" fill="#f3f4f654" />
        <rect x="0" y="1800" width="200" height="200" stroke="#f3f4f6" stroke-width="2" fill="none" />
        <rect x="200" y="1800" width="200" height="200" stroke="#f3f4f6" stroke-width="2" fill="#f3f4f6ab" />
        <rect x="400" y="1800" width="200" height="200" stroke="#f3f4f6" stroke-width="2" fill="none" />
        <rect x="600" y="1800" width="200" height="200" stroke="#f3f4f6" stroke-width="2" fill="none" />
        <rect x="800" y="1800" width="200" height="200" stroke="#f3f4f6" stroke-width="2" fill="none" />
        <rect x="1000" y="1800" width="200" height="200" stroke="#f3f4f6" stroke-width="2" fill="#f3f4f60c" />
        <rect x="1200" y="1800" width="200" height="200" stroke="#f3f4f6" stroke-width="2" fill="none" />
        <rect x="1400" y="1800" width="200" height="200" stroke="#f3f4f6" stroke-width="2" fill="none" />
        <rect x="1600" y="1800" width="200" height="200" stroke="#f3f4f6" stroke-width="2" fill="#f3f4f626" />
        <rect x="1800" y="1800" width="200" height="200" stroke="#f3f4f6" stroke-width="2" fill="none" />
    </g>
</svg>