<svg width="100%" height="100%" viewBox="0 0 2000 2000"
    xmlns="http://www.w3.org/2000/svg">
    <g transform="scale(1) rotate(0) skewX(0) skewY(0)" style="transform-origin: center center">
        <rect x="0" y="0" width="200" height="200" stroke="#111827" stroke-width="2" fill="#111827f6" />
        <rect x="200" y="0" width="200" height="200" stroke="#111827" stroke-width="2" fill="none" />
        <rect x="400" y="0" width="200" height="200" stroke="#111827" stroke-width="2" fill="#1118278f" />
        <rect x="600" y="0" width="200" height="200" stroke="#111827" stroke-width="2" fill="#1118272f" />
        <rect x="800" y="0" width="200" height="200" stroke="#111827" stroke-width="2" fill="none" />
        <rect x="1000" y="0" width="200" height="200" stroke="#111827" stroke-width="2" fill="none" />
        <rect x="1200" y="0" width="200" height="200" stroke="#111827" stroke-width="2" fill="none" />
        <rect x="1400" y="0" width="200" height="200" stroke="#111827" stroke-width="2" fill="none" />
        <rect x="1600" y="0" width="200" height="200" stroke="#111827" stroke-width="2" fill="none" />
        <rect x="1800" y="0" width="200" height="200" stroke="#111827" stroke-width="2" fill="#1118272a" />
        <rect x="0" y="200" width="200" height="200" stroke="#111827" stroke-width="2" fill="none" />
        <rect x="200" y="200" width="200" height="200" stroke="#111827" stroke-width="2" fill="#111827d6" />
        <rect x="400" y="200" width="200" height="200" stroke="#111827" stroke-width="2" fill="none" />
        <rect x="600" y="200" width="200" height="200" stroke="#111827" stroke-width="2" fill="none" />
        <rect x="800" y="200" width="200" height="200" stroke="#111827" stroke-width="2" fill="none" />
        <rect x="1000" y="200" width="200" height="200" stroke="#111827" stroke-width="2" fill="none" />
        <rect x="1200" y="200" width="200" height="200" stroke="#111827" stroke-width="2" fill="#11182723" />
        <rect x="1400" y="200" width="200" height="200" stroke="#111827" stroke-width="2" fill="none" />
        <rect x="1600" y="200" width="200" height="200" stroke="#111827" stroke-width="2" fill="none" />
        <rect x="1800" y="200" width="200" height="200" stroke="#111827" stroke-width="2" fill="none" />
        <rect x="0" y="400" width="200" height="200" stroke="#111827" stroke-width="2" fill="none" />
        <rect x="200" y="400" width="200" height="200" stroke="#111827" stroke-width="2" fill="#11182791" />
        <rect x="400" y="400" width="200" height="200" stroke="#111827" stroke-width="2" fill="none" />
        <rect x="600" y="400" width="200" height="200" stroke="#111827" stroke-width="2" fill="#111827ce" />
        <rect x="800" y="400" width="200" height="200" stroke="#111827" stroke-width="2" fill="#111827cd" />
        <rect x="1000" y="400" width="200" height="200" stroke="#111827" stroke-width="2" fill="none" />
        <rect x="1200" y="400" width="200" height="200" stroke="#111827" stroke-width="2" fill="#1118276a" />
        <rect x="1400" y="400" width="200" height="200" stroke="#111827" stroke-width="2" fill="#11182763" />
        <rect x="1600" y="400" width="200" height="200" stroke="#111827" stroke-width="2" fill="none" />
        <rect x="1800" y="400" width="200" height="200" stroke="#111827" stroke-width="2" fill="none" />
        <rect x="0" y="600" width="200" height="200" stroke="#111827" stroke-width="2" fill="#1118274e" />
        <rect x="200" y="600" width="200" height="200" stroke="#111827" stroke-width="2" fill="none" />
        <rect x="400" y="600" width="200" height="200" stroke="#111827" stroke-width="2" fill="none" />
        <rect x="600" y="600" width="200" height="200" stroke="#111827" stroke-width="2" fill="none" />
        <rect x="800" y="600" width="200" height="200" stroke="#111827" stroke-width="2" fill="none" />
        <rect x="1000" y="600" width="200" height="200" stroke="#111827" stroke-width="2" fill="none" />
        <rect x="1200" y="600" width="200" height="200" stroke="#111827" stroke-width="2" fill="none" />
        <rect x="1400" y="600" width="200" height="200" stroke="#111827" stroke-width="2" fill="none" />
        <rect x="1600" y="600" width="200" height="200" stroke="#111827" stroke-width="2" fill="none" />
        <rect x="1800" y="600" width="200" height="200" stroke="#111827" stroke-width="2" fill="none" />
        <rect x="0" y="800" width="200" height="200" stroke="#111827" stroke-width="2" fill="none" />
        <rect x="200" y="800" width="200" height="200" stroke="#111827" stroke-width="2" fill="none" />
        <rect x="400" y="800" width="200" height="200" stroke="#111827" stroke-width="2" fill="none" />
        <rect x="600" y="800" width="200" height="200" stroke="#111827" stroke-width="2" fill="none" />
        <rect x="800" y="800" width="200" height="200" stroke="#111827" stroke-width="2" fill="none" />
        <rect x="1000" y="800" width="200" height="200" stroke="#111827" stroke-width="2" fill="none" />
        <rect x="1200" y="800" width="200" height="200" stroke="#111827" stroke-width="2" fill="none" />
        <rect x="1400" y="800" width="200" height="200" stroke="#111827" stroke-width="2" fill="none" />
        <rect x="1600" y="800" width="200" height="200" stroke="#111827" stroke-width="2" fill="#11182731" />
        <rect x="1800" y="800" width="200" height="200" stroke="#111827" stroke-width="2" fill="none" />
        <rect x="0" y="1000" width="200" height="200" stroke="#111827" stroke-width="2" fill="none" />
        <rect x="200" y="1000" width="200" height="200" stroke="#111827" stroke-width="2" fill="#11182710" />
        <rect x="400" y="1000" width="200" height="200" stroke="#111827" stroke-width="2" fill="none" />
        <rect x="600" y="1000" width="200" height="200" stroke="#111827" stroke-width="2" fill="#111827dd" />
        <rect x="800" y="1000" width="200" height="200" stroke="#111827" stroke-width="2" fill="#111827a0" />
        <rect x="1000" y="1000" width="200" height="200" stroke="#111827" stroke-width="2" fill="none" />
        <rect x="1200" y="1000" width="200" height="200" stroke="#111827" stroke-width="2" fill="none" />
        <rect x="1400" y="1000" width="200" height="200" stroke="#111827" stroke-width="2" fill="none" />
        <rect x="1600" y="1000" width="200" height="200" stroke="#111827" stroke-width="2" fill="none" />
        <rect x="1800" y="1000" width="200" height="200" stroke="#111827" stroke-width="2" fill="none" />
        <rect x="0" y="1200" width="200" height="200" stroke="#111827" stroke-width="2" fill="none" />
        <rect x="200" y="1200" width="200" height="200" stroke="#111827" stroke-width="2" fill="#1118275d" />
        <rect x="400" y="1200" width="200" height="200" stroke="#111827" stroke-width="2" fill="#111827a2" />
        <rect x="600" y="1200" width="200" height="200" stroke="#111827" stroke-width="2" fill="none" />
        <rect x="800" y="1200" width="200" height="200" stroke="#111827" stroke-width="2" fill="none" />
        <rect x="1000" y="1200" width="200" height="200" stroke="#111827" stroke-width="2" fill="none" />
        <rect x="1200" y="1200" width="200" height="200" stroke="#111827" stroke-width="2" fill="#1118275c" />
        <rect x="1400" y="1200" width="200" height="200" stroke="#111827" stroke-width="2" fill="none" />
        <rect x="1600" y="1200" width="200" height="200" stroke="#111827" stroke-width="2" fill="none" />
        <rect x="1800" y="1200" width="200" height="200" stroke="#111827" stroke-width="2" fill="#11182707" />
        <rect x="0" y="1400" width="200" height="200" stroke="#111827" stroke-width="2" fill="#111827ab" />
        <rect x="200" y="1400" width="200" height="200" stroke="#111827" stroke-width="2" fill="none" />
        <rect x="400" y="1400" width="200" height="200" stroke="#111827" stroke-width="2" fill="#1118272a" />
        <rect x="600" y="1400" width="200" height="200" stroke="#111827" stroke-width="2" fill="none" />
        <rect x="800" y="1400" width="200" height="200" stroke="#111827" stroke-width="2" fill="#11182777" />
        <rect x="1000" y="1400" width="200" height="200" stroke="#111827" stroke-width="2" fill="#111827ce" />
        <rect x="1200" y="1400" width="200" height="200" stroke="#111827" stroke-width="2" fill="none" />
        <rect x="1400" y="1400" width="200" height="200" stroke="#111827" stroke-width="2" fill="none" />
        <rect x="1600" y="1400" width="200" height="200" stroke="#111827" stroke-width="2" fill="#111827b1" />
        <rect x="1800" y="1400" width="200" height="200" stroke="#111827" stroke-width="2" fill="#11182709" />
        <rect x="0" y="1600" width="200" height="200" stroke="#111827" stroke-width="2" fill="#11182767" />
        <rect x="200" y="1600" width="200" height="200" stroke="#111827" stroke-width="2" fill="none" />
        <rect x="400" y="1600" width="200" height="200" stroke="#111827" stroke-width="2" fill="none" />
        <rect x="600" y="1600" width="200" height="200" stroke="#111827" stroke-width="2" fill="none" />
        <rect x="800" y="1600" width="200" height="200" stroke="#111827" stroke-width="2" fill="#11182731" />
        <rect x="1000" y="1600" width="200" height="200" stroke="#111827" stroke-width="2" fill="#1118277f" />
        <rect x="1200" y="1600" width="200" height="200" stroke="#111827" stroke-width="2" fill="none" />
        <rect x="1400" y="1600" width="200" height="200" stroke="#111827" stroke-width="2" fill="none" />
        <rect x="1600" y="1600" width="200" height="200" stroke="#111827" stroke-width="2" fill="#111827cf" />
        <rect x="1800" y="1600" width="200" height="200" stroke="#111827" stroke-width="2" fill="#11182754" />
        <rect x="0" y="1800" width="200" height="200" stroke="#111827" stroke-width="2" fill="none" />
        <rect x="200" y="1800" width="200" height="200" stroke="#111827" stroke-width="2" fill="#111827ab" />
        <rect x="400" y="1800" width="200" height="200" stroke="#111827" stroke-width="2" fill="none" />
        <rect x="600" y="1800" width="200" height="200" stroke="#111827" stroke-width="2" fill="none" />
        <rect x="800" y="1800" width="200" height="200" stroke="#111827" stroke-width="2" fill="none" />
        <rect x="1000" y="1800" width="200" height="200" stroke="#111827" stroke-width="2" fill="#1118270c" />
        <rect x="1200" y="1800" width="200" height="200" stroke="#111827" stroke-width="2" fill="none" />
        <rect x="1400" y="1800" width="200" height="200" stroke="#111827" stroke-width="2" fill="none" />
        <rect x="1600" y="1800" width="200" height="200" stroke="#111827" stroke-width="2" fill="#11182726" />
        <rect x="1800" y="1800" width="200" height="200" stroke="#111827" stroke-width="2" fill="none" />
    </g>
</svg>