<svg width="817" height="591" viewBox="0 0 817 591" fill="none" xmlns="http://www.w3.org/2000/svg">
<path d="M816 0.5C716 56 681.095 141 652 211.5C626.206 274 635.5 528 596.5 562.5C547.265 606.054 455.5 584 421 584C391.293 584 303 374.5 171.5 377.5C66.3 379.9 14 466.667 1 509" stroke="url(#paint0_linear_165_324)"/>
<path d="M816 314C735 326.5 620.885 333 570 396C530.019 445.5 529 575 472.5 575C441.207 575 442 537 344.5 499C221.761 451.163 116.5 460 77.5 474.5C46.3 486.1 18.1667 502.333 8 509" stroke="url(#paint1_linear_165_324)"/>
<path d="M816 15.4287C716.905 68.8811 678.228 150.143 648.095 220.286C621.626 282.167 630.429 530.238 590.595 563.095C542.215 604.575 454.857 581.762 417.357 579.953C383.22 577.675 294.119 378.572 167.024 382.119C65.3476 384.957 14.1984 468.365 1.33331 509" stroke="url(#paint2_linear_165_324)"/>
<path d="M816 30.3569C717.81 81.7617 675.361 159.285 644.19 229.071C617.046 290.333 625.357 532.476 584.69 563.69C537.164 603.096 454.214 579.524 413.714 575.905C375.147 571.349 285.238 382.643 162.548 386.738C64.3953 390.014 14.3968 470.063 1.66669 509" stroke="url(#paint3_linear_165_324)"/>
<path d="M816 45.2856C718.714 94.6428 672.494 168.428 640.286 237.857C612.465 298.5 620.286 534.714 578.786 564.286C532.114 601.618 453.571 577.286 410.071 571.857C367.074 565.023 276.357 386.714 158.071 391.357C63.4429 395.071 14.5952 471.762 2 509" stroke="url(#paint4_linear_165_324)"/>
<path d="M816 60.2144C719.619 107.524 669.627 177.572 636.381 246.643C607.885 306.667 615.214 536.952 572.881 564.881C527.064 600.139 452.929 575.048 406.429 567.81C359.001 558.698 267.476 390.786 153.595 395.976C62.4905 400.129 14.7936 473.46 2.33331 509" stroke="url(#paint5_linear_165_324)"/>
<path d="M816 75.1431C720.524 120.405 666.759 186.715 632.476 255.429C603.305 314.834 610.143 539.191 566.976 565.476C522.013 598.66 452.286 572.81 402.786 563.762C350.928 552.372 258.595 394.857 149.119 400.595C61.5381 405.186 14.9921 475.159 2.66669 509" stroke="url(#paint6_linear_165_324)"/>
<path d="M816 90.0713C721.429 133.286 663.892 195.857 628.571 264.214C598.724 323 605.071 541.428 561.071 566.071C516.963 597.181 451.643 570.571 399.143 559.714C342.855 546.046 249.714 398.928 144.643 405.214C60.5857 410.243 15.1905 476.857 3 509" stroke="url(#paint7_linear_165_324)"/>
<path d="M816 105C722.333 146.167 661.025 205 624.667 273C594.144 331.167 600 543.667 555.167 566.667C511.912 595.703 451 568.333 395.5 555.667C334.782 539.721 240.833 403 140.167 409.833C59.6333 415.3 15.3889 478.556 3.33331 509" stroke="url(#paint8_linear_165_324)"/>
<path d="M816 119.929C723.238 159.048 658.158 214.143 620.762 281.786C589.564 339.333 594.929 545.905 549.262 567.262C506.862 594.224 450.357 566.095 391.857 551.619C326.709 533.396 231.952 407.072 135.69 414.453C58.681 420.357 15.5873 480.254 3.66669 509" stroke="url(#paint9_linear_165_324)"/>
<path d="M816 134.857C724.143 171.928 655.291 223.285 616.857 290.571C584.983 347.5 589.857 548.143 543.357 567.857C501.812 592.745 449.714 563.857 388.214 547.571C318.636 527.07 223.071 411.143 131.214 419.071C57.7286 425.414 15.7857 481.952 4 509" stroke="url(#paint10_linear_165_324)"/>
<path d="M816 149.786C725.048 184.809 652.423 232.428 612.952 299.357C580.403 355.667 584.786 550.381 537.452 568.452C496.761 591.266 449.071 561.619 384.571 543.524C310.563 520.744 214.19 415.214 126.738 423.69C56.7762 430.471 15.9841 483.651 4.33331 509" stroke="url(#paint11_linear_165_324)"/>
<path d="M816 164.714C725.952 197.691 649.556 241.572 609.048 308.143C575.823 363.833 579.714 552.619 531.548 569.048C491.711 589.788 448.429 559.381 380.929 539.476C302.491 514.419 205.31 419.286 122.262 428.31C55.8238 435.529 16.1826 485.349 4.66669 509" stroke="url(#paint12_linear_165_324)"/>
<path d="M816 179.643C726.857 210.572 646.689 250.715 605.143 316.929C571.242 372 574.643 554.857 525.643 569.643C486.661 588.309 447.786 557.143 377.286 535.429C294.418 508.093 196.429 423.357 117.786 432.929C54.8714 440.586 16.381 487.048 5 509" stroke="url(#paint13_linear_165_324)"/>
<path d="M816 194.571C727.762 223.452 643.822 259.857 601.238 325.714C566.662 380.167 569.571 557.095 519.738 570.238C481.61 586.83 447.143 554.905 373.643 531.381C286.345 501.768 187.548 427.428 113.31 437.547C53.919 445.643 16.5793 488.746 5.33331 509" stroke="url(#paint14_linear_165_324)"/>
<path d="M816 209.5C728.667 236.333 640.955 269 597.333 334.5C562.082 388.333 564.5 559.333 513.833 570.833C476.56 585.351 446.5 552.667 370 527.333C278.272 495.442 178.667 431.5 108.833 442.167C52.9667 450.7 16.7778 490.444 5.66669 509" stroke="url(#paint15_linear_165_324)"/>
<path d="M816 224.429C729.571 249.214 638.088 278.143 593.429 343.286C557.501 396.5 559.429 561.572 507.929 571.429C471.509 583.873 445.857 550.429 366.357 523.286C270.199 489.117 169.786 435.572 104.357 446.786C52.0143 455.757 16.9762 492.143 6 509" stroke="url(#paint16_linear_165_324)"/>
<path d="M816 239.357C730.476 262.095 635.22 287.286 589.524 352.071C552.921 404.666 554.357 563.809 502.024 572.024C466.459 582.394 445.214 548.19 362.714 519.238C262.126 482.791 160.905 439.643 99.8809 451.405C51.0619 460.814 17.1746 493.841 6.33331 509" stroke="url(#paint17_linear_165_324)"/>
<path d="M816 254.286C731.381 274.976 632.353 296.428 585.619 360.857C548.341 412.833 549.286 566.048 496.119 572.619C461.409 580.915 444.571 545.952 359.071 515.19C254.053 476.465 152.024 443.714 95.4048 456.024C50.1095 465.871 17.373 495.54 6.66669 509" stroke="url(#paint18_linear_165_324)"/>
<path d="M816 269.214C732.286 287.857 629.486 305.572 581.714 369.643C543.76 421 544.214 568.286 490.214 573.214C456.358 579.436 443.929 543.714 355.429 511.143C245.98 470.14 143.143 447.786 90.9286 460.643C49.1571 470.929 17.5714 497.238 7 509" stroke="url(#paint19_linear_165_324)"/>
<path d="M816 284.143C733.19 300.738 626.619 314.714 577.81 378.429C539.18 429.167 539.143 570.524 484.31 573.81C451.308 577.958 443.286 541.476 351.786 507.095C237.907 463.815 134.262 451.857 86.4524 465.262C48.2047 475.986 17.7698 498.937 7.33331 509" stroke="url(#paint20_linear_165_324)"/>
<path d="M816 299.071C734.095 313.619 623.752 323.857 573.905 387.214C534.6 437.333 534.071 572.762 478.405 574.405C446.257 576.479 442.643 539.238 348.143 503.047C229.834 457.489 125.381 455.928 81.9762 469.881C47.2524 481.043 17.9683 500.635 7.66669 509" stroke="url(#paint21_linear_165_324)"/>
<defs>
<linearGradient id="paint0_linear_165_324" x1="408.5" y1="0.5" x2="408.5" y2="589.583" gradientUnits="userSpaceOnUse">
<stop stop-color="#2B7FFF" stop-opacity="0.3"/>
<stop offset="1" stop-color="#2B7FFF" stop-opacity="0.1"/>
</linearGradient>
<linearGradient id="paint1_linear_165_324" x1="412" y1="314" x2="412" y2="575" gradientUnits="userSpaceOnUse">
<stop stop-color="#2B7FFF" stop-opacity="0.3"/>
<stop offset="1" stop-color="#2B7FFF" stop-opacity="0.1"/>
</linearGradient>
<linearGradient id="paint2_linear_165_324" x1="408.667" y1="15.4287" x2="408.667" y2="587.831" gradientUnits="userSpaceOnUse">
<stop stop-color="#2B7FFF" stop-opacity="0.3"/>
<stop offset="1" stop-color="#2B7FFF" stop-opacity="0.1"/>
</linearGradient>
<linearGradient id="paint3_linear_165_324" x1="408.833" y1="30.3569" x2="408.833" y2="586.193" gradientUnits="userSpaceOnUse">
<stop stop-color="#2B7FFF" stop-opacity="0.3"/>
<stop offset="1" stop-color="#2B7FFF" stop-opacity="0.1"/>
</linearGradient>
<linearGradient id="paint4_linear_165_324" x1="409" y1="45.2856" x2="409" y2="584.662" gradientUnits="userSpaceOnUse">
<stop stop-color="#2B7FFF" stop-opacity="0.3"/>
<stop offset="1" stop-color="#2B7FFF" stop-opacity="0.1"/>
</linearGradient>
<linearGradient id="paint5_linear_165_324" x1="409.167" y1="60.2144" x2="409.167" y2="583.234" gradientUnits="userSpaceOnUse">
<stop stop-color="#2B7FFF" stop-opacity="0.3"/>
<stop offset="1" stop-color="#2B7FFF" stop-opacity="0.1"/>
</linearGradient>
<linearGradient id="paint6_linear_165_324" x1="409.333" y1="75.1431" x2="409.333" y2="581.907" gradientUnits="userSpaceOnUse">
<stop stop-color="#2B7FFF" stop-opacity="0.3"/>
<stop offset="1" stop-color="#2B7FFF" stop-opacity="0.1"/>
</linearGradient>
<linearGradient id="paint7_linear_165_324" x1="409.5" y1="90.0713" x2="409.5" y2="580.677" gradientUnits="userSpaceOnUse">
<stop stop-color="#2B7FFF" stop-opacity="0.3"/>
<stop offset="1" stop-color="#2B7FFF" stop-opacity="0.1"/>
</linearGradient>
<linearGradient id="paint8_linear_165_324" x1="409.667" y1="105" x2="409.667" y2="579.545" gradientUnits="userSpaceOnUse">
<stop stop-color="#2B7FFF" stop-opacity="0.3"/>
<stop offset="1" stop-color="#2B7FFF" stop-opacity="0.1"/>
</linearGradient>
<linearGradient id="paint9_linear_165_324" x1="409.833" y1="119.929" x2="409.833" y2="578.51" gradientUnits="userSpaceOnUse">
<stop stop-color="#2B7FFF" stop-opacity="0.3"/>
<stop offset="1" stop-color="#2B7FFF" stop-opacity="0.1"/>
</linearGradient>
<linearGradient id="paint10_linear_165_324" x1="410" y1="134.857" x2="410" y2="577.572" gradientUnits="userSpaceOnUse">
<stop stop-color="#2B7FFF" stop-opacity="0.3"/>
<stop offset="1" stop-color="#2B7FFF" stop-opacity="0.1"/>
</linearGradient>
<linearGradient id="paint11_linear_165_324" x1="410.167" y1="149.786" x2="410.167" y2="576.734" gradientUnits="userSpaceOnUse">
<stop stop-color="#2B7FFF" stop-opacity="0.3"/>
<stop offset="1" stop-color="#2B7FFF" stop-opacity="0.1"/>
</linearGradient>
<linearGradient id="paint12_linear_165_324" x1="410.333" y1="164.714" x2="410.333" y2="575.996" gradientUnits="userSpaceOnUse">
<stop stop-color="#2B7FFF" stop-opacity="0.3"/>
<stop offset="1" stop-color="#2B7FFF" stop-opacity="0.1"/>
</linearGradient>
<linearGradient id="paint13_linear_165_324" x1="410.5" y1="179.643" x2="410.5" y2="575.361" gradientUnits="userSpaceOnUse">
<stop stop-color="#2B7FFF" stop-opacity="0.3"/>
<stop offset="1" stop-color="#2B7FFF" stop-opacity="0.1"/>
</linearGradient>
<linearGradient id="paint14_linear_165_324" x1="410.667" y1="194.571" x2="410.667" y2="574.832" gradientUnits="userSpaceOnUse">
<stop stop-color="#2B7FFF" stop-opacity="0.3"/>
<stop offset="1" stop-color="#2B7FFF" stop-opacity="0.1"/>
</linearGradient>
<linearGradient id="paint15_linear_165_324" x1="410.833" y1="209.5" x2="410.833" y2="574.413" gradientUnits="userSpaceOnUse">
<stop stop-color="#2B7FFF" stop-opacity="0.3"/>
<stop offset="1" stop-color="#2B7FFF" stop-opacity="0.1"/>
</linearGradient>
<linearGradient id="paint16_linear_165_324" x1="411" y1="224.429" x2="411" y2="574.108" gradientUnits="userSpaceOnUse">
<stop stop-color="#2B7FFF" stop-opacity="0.3"/>
<stop offset="1" stop-color="#2B7FFF" stop-opacity="0.1"/>
</linearGradient>
<linearGradient id="paint17_linear_165_324" x1="411.167" y1="239.357" x2="411.167" y2="573.92" gradientUnits="userSpaceOnUse">
<stop stop-color="#2B7FFF" stop-opacity="0.3"/>
<stop offset="1" stop-color="#2B7FFF" stop-opacity="0.1"/>
</linearGradient>
<linearGradient id="paint18_linear_165_324" x1="411.333" y1="254.286" x2="411.333" y2="573.858" gradientUnits="userSpaceOnUse">
<stop stop-color="#2B7FFF" stop-opacity="0.3"/>
<stop offset="1" stop-color="#2B7FFF" stop-opacity="0.1"/>
</linearGradient>
<linearGradient id="paint19_linear_165_324" x1="411.5" y1="269.214" x2="411.5" y2="573.926" gradientUnits="userSpaceOnUse">
<stop stop-color="#2B7FFF" stop-opacity="0.3"/>
<stop offset="1" stop-color="#2B7FFF" stop-opacity="0.1"/>
</linearGradient>
<linearGradient id="paint20_linear_165_324" x1="411.667" y1="284.143" x2="411.667" y2="574.133" gradientUnits="userSpaceOnUse">
<stop stop-color="#2B7FFF" stop-opacity="0.3"/>
<stop offset="1" stop-color="#2B7FFF" stop-opacity="0.1"/>
</linearGradient>
<linearGradient id="paint21_linear_165_324" x1="411.833" y1="299.071" x2="411.833" y2="574.487" gradientUnits="userSpaceOnUse">
<stop stop-color="#2B7FFF" stop-opacity="0.3"/>
<stop offset="1" stop-color="#2B7FFF" stop-opacity="0.1"/>
</linearGradient>
</defs>
</svg>
